<?xml version="1.0" encoding="UTF-8" standalone="no"?><!DOCTYPE svg PUBLIC "-//W3C//DTD SVG 1.1//EN" "http://www.w3.org/Graphics/SVG/1.1/DTD/svg11.dtd"><svg width="100%" height="100%" viewBox="0 0 2084 2084" version="1.1" xmlns="http://www.w3.org/2000/svg" xmlns:xlink="http://www.w3.org/1999/xlink" xml:space="preserve" xmlns:serif="http://www.serif.com/" style="fill-rule:evenodd;clip-rule:evenodd;stroke-linecap:round;stroke-linejoin:round;stroke-miterlimit:10;"><g id="Floor"><path d="M364.565,1884.84c-371.712,-193.558 -371.717,-507.375 -0.004,-700.929c371.708,-193.555 974.375,-193.555 1346.09,-0c371.716,193.554 371.716,507.371 0.004,700.929c-371.709,193.558 -974.379,193.558 -1346.09,-0" style="fill:#f5f5f5;fill-rule:nonzero;"/></g><g id="Shadows"><path d="M1826.93,1348.9c99.146,57.242 99.146,150.05 -0,207.292c-99.146,57.242 -259.892,57.242 -359.038,0c-99.141,-57.242 -99.141,-150.05 0.005,-207.292c99.145,-57.241 259.891,-57.241 359.033,0" style="fill:#e7e7e7;fill-rule:nonzero;"/><path d="M624.947,1365.55c97.138,56.079 101.079,148.67 3.942,204.754c-97.138,56.083 -258.575,54.421 -355.713,-1.659c-97.137,-56.083 -97.137,-147.012 0,-203.095c97.142,-56.084 254.634,-56.084 351.771,-0" style="fill:#e7e7e7;fill-rule:nonzero;"/><path d="M1417.25,1667.76l-318.837,-184.079c-9.958,-5.754 -26.117,-5.754 -36.079,-0l-318.829,184.079c-9.963,5.75 -9.963,15.079 -0,20.833l145.216,83.842l-135.625,78.258c-27.546,15.909 -72.379,15.896 -99.925,-0.012l-213.329,-123.163c-11.771,-6.796 -18.25,-15.329 -18.25,-24.029c-0,-8.704 6.479,-17.242 18.25,-24.033l189.046,-109.15c3.987,-2.3 5.354,-7.396 3.054,-11.384c-2.308,-3.983 -7.4,-5.354 -11.388,-3.054l-189.045,109.15c-17.146,9.9 -26.584,23.563 -26.584,38.471c0,14.904 9.442,28.567 26.584,38.467l213.329,123.162c16.346,9.442 37.329,14.159 58.308,14.159c20.971,-0 41.942,-4.717 58.283,-14.146l143.963,-83.071l156.942,90.612c9.962,5.75 26.12,5.75 36.079,0l318.837,-184.079c9.963,-5.754 9.963,-15.083 0,-20.833" style="fill:#e7e7e7;fill-rule:nonzero;"/></g><g id="Character-2" serif:id="Character 2"><path d="M1781.6,1383.71c-0,-0 11.566,-171.571 8.162,-234.85c-2.7,-50.138 -9.512,-70.8 -10.933,-82.109c0,0 -12.275,-116.887 -13.292,-216.212c-0.491,-47.808 -4.916,-81.838 -31.104,-138.671l-168.479,40.304c-3.421,25.242 -14.996,193.163 -17.729,342.463c-2.396,130.696 1.333,245.133 1.333,245.133l0.171,6.879c-0,7.638 -1.679,12.975 -6.588,25.238c-4.979,12.412 -14.058,30.183 -26.095,43.166c-3.467,3.742 -27.492,24.763 -30.667,29.242c-10.317,12.042 11.067,18.825 26.937,16.704c16.759,-2.237 42.78,-8.6 50.155,-18.804c4.92,-6.796 8.612,-30.604 13.666,-37.496c17.046,-23.233 24.042,-33.225 24.167,-40.65c0.225,-13.412 -4.388,-18.72 -6.033,-26.295c1.37,-15.83 35.545,-146.059 36.137,-192.159c0.284,-21.971 -1.2,-52.229 -1.2,-52.229l26.521,-152.158c10.242,37.991 28.246,132.358 34.3,168.566c7.404,44.23 26.696,157.805 38.096,225.567c4.396,26.138 6.442,39.333 8.446,51.442c0.012,0.054 0.496,5.141 0.496,5.191c0.358,6.555 5.141,76.996 7.729,91.742c5.416,30.808 32.8,26.929 37.183,2.013c3.729,-21.2 -0.942,-86.838 -1.042,-94.892l-0.337,-7.125Z" style="fill:#ffaaa8;fill-rule:nonzero;"/><path d="M1781.6,1383.71c7.725,0.133 2.646,30.033 4.637,49.271c2.138,20.616 8.896,35.679 10.83,52.583c2.212,19.321 0.491,27.408 -6.438,43.292c-5.387,12.35 -32.454,29.275 -42.729,11.612c-10.4,-17.875 -12.504,-37.833 -11.325,-57.071c1.221,-19.883 -0,-32.187 0.404,-47.308c0.358,-13.329 -9.417,-47.396 0.592,-49.308l0.496,5.191c3.591,7.188 40.183,8.621 43.87,-1.137l-0.337,-7.125Z" style="fill:#2b454e;fill-rule:nonzero;"/><path d="M1602.93,1380.28c2.362,9.638 -0.088,36.055 -0.088,36.055c0,-0 -4.167,9.112 -19.037,15.179l-6.671,-36.746l25.796,-14.488Z" style="fill:#1a2e35;fill-rule:nonzero;"/><path d="M1583.81,1431.51l-32.775,-10.762l-7.895,-29.083l36.82,18.637l3.85,21.208Z" style="fill-rule:nonzero;"/><path d="M1549.72,1346.64l-0.17,-6.879c-4.446,2.162 -14.25,38.012 -27.496,62.604c-12.096,22.454 -36.067,34.967 -43.846,44.738c-10.413,13.07 9.821,29.92 42.3,22.975c16.121,-3.45 40.533,-13.763 47.15,-24.642c6.621,-10.875 8.858,-30.858 14.267,-38.854c5.412,-7.996 18.27,-17.209 21.004,-26.313c1.496,-5 2.696,-16.1 -0.071,-25.129c-2.542,-8.283 -4.767,-18.304 -7.592,-17.4l-0.191,6.3c-2.175,4.429 -10.021,9.592 -26.421,10.479c-7.8,0.421 -15.363,-0.771 -18.934,-7.879" style="fill:#2b454e;fill-rule:nonzero;"/><path d="M1562.73,750.126c-0,0 -11.138,123.613 -14.721,233.096c-3.592,109.488 -0.379,250.708 -0.379,250.708c-0,0 11.3,8.084 36.179,9.196c24.871,1.117 33.479,-7.175 33.479,-7.175c0,0 15.196,-49.608 17.575,-84.525c2.384,-34.916 0,-56.796 0,-56.796l22.217,-146.07c-0,-0 28.162,143.816 31.362,161.208c3.192,17.392 30.192,171.046 30.192,171.046c0,-0 10.596,9.779 37.758,9.262c24.009,-0.454 30.992,-9.066 30.992,-9.066c0,-0 5.788,-94.25 4.467,-134.513c-1.159,-35.483 -9.263,-63.754 -10.884,-86.771c-1.62,-23.012 -2.566,-154.116 -4.187,-204.025c-1.621,-49.908 -6.104,-93.283 -48.75,-153.346l-165.3,47.771Z" style="fill:#375a64;fill-rule:nonzero;"/><path d="M1657.08,948.558l-18.475,-91.505c-0,0 -32.242,-8.412 -47.263,-28.1c0,0 4.179,21.825 37.317,35.779l19.662,91.167l-6.683,94.192l15.442,-101.533Z" style="fill:#2b454e;fill-rule:nonzero;"/><path d="M1327.34,727.226c16.987,3.442 35.45,-2.625 35.45,-2.625c-6.342,-3.579 -11.267,-6.517 -14.038,-9.308c-5.516,-5.55 -3.6,-11.325 -1.658,-13.425c1.512,-1.638 5.342,2.216 14.017,4.679c11.083,3.141 19.116,3.779 29.808,9.95c3.979,2.295 8.721,3.216 13.329,2.346c26.017,-4.9 86.642,-33.292 114.4,-48.184c5.7,-23.096 15.508,-57.121 27.654,-99.517c11.196,-39.091 29.204,-56.191 57.809,-55.541l-3.959,84.854c0,0 -13.65,58.629 -30.562,106.492c-2.979,8.429 -14.842,18.071 -36.584,26.146c-28.162,10.462 -62.17,20.312 -103.708,31.683c-15.533,4.25 -36.062,8.717 -51.592,10.037c-43.916,3.75 -60.741,-8.458 -66.741,-16.97c-16.746,-23.759 -6.65,-35.28 16.375,-30.617" style="fill:#ffaaa8;fill-rule:nonzero;"/><path d="M1678.01,514.95l40.079,3.108c-10.908,58.437 30.15,89.721 30.15,89.721l-17.871,72.029c0.592,8.892 15.355,38.892 29.655,71.171c-26.884,35.987 -158.721,48.275 -201.717,16.691c6.633,-33.92 11.587,-59.687 12.9,-72.545l-2.175,-46.538c-53.888,-44.225 11.15,-111.571 35.087,-132.983l30.096,-1.342l43.796,0.688Z" style="fill:#00dfbf;fill-rule:nonzero;"/><path d="M1846.79,873.653c-5.863,-4.062 -9.255,-12.587 -8.567,-19.308c0.692,-6.725 2.246,-15.15 5.008,-18.4c2.759,-3.25 20.304,-27.025 28.059,-13.188c8.466,15.096 6.637,21.188 6.637,21.188l-31.137,29.708Z" style="fill:#ff9090;fill-rule:nonzero;"/><path d="M1792.81,1191.64c-16.504,0 -34.587,-5.4 -53.133,-16.108l-208.038,-120.108c-32.137,-18.559 -58.291,-63.855 -58.291,-100.971l-0.005,-174.529c0,-12.009 -6.204,-22.763 -16.604,-28.767c-10.396,-6.004 -22.825,-6.004 -33.225,-0.004l-73.071,42.187c-3.991,2.304 -9.083,0.934 -11.383,-3.05c-2.3,-3.987 -0.937,-9.083 3.05,-11.383l73.071,-42.188c15.612,-9.02 34.271,-9.016 49.892,0.005c15.612,9.016 24.937,25.166 24.937,43.2l0.004,174.529c0,31.271 22.879,70.9 49.959,86.533l208.037,120.108c26.621,15.371 51.308,18.05 69.488,7.555c18.187,-10.5 28.204,-33.213 28.204,-63.955l-0,-222.816c-0,-37.742 24.129,-81.242 54.946,-99.029l50.766,-29.317c3.984,-2.313 9.079,-0.938 11.388,3.05c2.3,3.983 0.937,9.083 -3.054,11.383l-50.767,29.317c-25.271,14.583 -46.613,53.325 -46.613,84.596l0,222.816c0,36.946 -12.979,64.788 -36.537,78.388c-9.9,5.717 -21.05,8.558 -33.021,8.558" style="fill:#2b454e;fill-rule:nonzero;"/><path d="M1433.21,805.377l0,13.629c0,21.8 -15.308,48.317 -34.191,59.221l-126.196,72.858l-128.284,-74.083l-0.029,-111.092l124.559,-57.533c19.795,-9.142 51.154,-7.717 70.037,3.183l59.913,34.596c18.883,10.9 34.191,37.417 34.191,59.221" style="fill:#2b454e;fill-rule:nonzero;"/><path d="M1269.07,708.378c19.796,-9.142 51.15,-7.717 70.038,3.183l59.908,34.592c18.888,10.904 18.146,27.154 -1.65,36.296l-124.529,57.521l-128.329,-74.059l124.562,-57.533Z" style="fill:#375a64;fill-rule:nonzero;"/><g opacity="0.15"><path d="M1284.94,813.235c9.445,5.454 17.1,18.708 17.1,29.608l-0,91.375l-29.221,16.867l-128.284,-74.08l-0.029,-111.091l32.484,-15.004l107.95,62.325Z" style="fill-rule:nonzero;"/></g><path d="M1133.61,746.785c3.067,-1.77 7.304,-1.52 12.004,1.192l126.179,72.854c9.446,5.45 17.096,18.704 17.096,29.609l0,108.666c0,5.459 -1.925,9.267 -5.029,11.029c-2.888,1.634 -13.192,7.58 -16.05,9.263c-3.075,1.812 -7.338,1.575 -12.067,-1.154l-126.183,-72.85c-9.438,-5.45 -17.092,-18.709 -17.092,-29.613l0,-108.666c0,-5.425 1.892,-9.275 4.967,-11.05c2.892,-1.667 13.283,-7.613 16.175,-9.28" style="fill:#2b454e;fill-rule:nonzero;"/><path d="M1255.74,830.096l-126.179,-72.85c-9.446,-5.45 -17.096,-1.033 -17.096,9.871l0,108.667c0,10.904 7.65,24.158 17.096,29.608l126.179,72.85c9.442,5.454 17.1,1.033 17.1,-9.867l0,-108.67c0,-10.9 -7.654,-24.159 -17.1,-29.609" style="fill:#375a64;fill-rule:nonzero;"/><path d="M1153.51,933.179c0.35,1.316 0.587,2.816 0.587,4.458c0,10.229 -7.183,22.667 -16.037,27.779c-1.43,0.825 -2.788,1.325 -4.1,1.679c-0.351,-1.316 -0.596,-2.737 -0.596,-4.383c-0,-10.225 7.183,-22.662 16.041,-27.775c1.421,-0.825 2.788,-1.4 4.105,-1.758m-47.217,23.391l0.004,18.8c0,7.625 2.642,12.938 6.946,15.413c1.917,1.104 9.437,5.446 11.362,6.571c4.346,2.533 10.359,2.216 16.975,-1.604l104.367,-60.255l-0.012,-74.075l-11.346,-6.558l-104.367,60.254c-13.217,7.634 -23.929,26.192 -23.929,41.454" style="fill:#00dfbf;fill-rule:nonzero;"/><g opacity="0.2"><path d="M1123.98,996.928c0.246,0.162 0.471,0.346 0.733,0.483c-0.041,0 -0.041,-0.041 -0.087,-0.041c-0.121,-0.084 -0.292,-0.167 -0.413,-0.25c-2.504,-1.459 -9.208,-5.334 -10.958,-6.375c-4.375,-2.417 -6.958,-7.709 -6.958,-15.375l-0,-18.792c-0,-7.667 2.666,-16.125 7.037,-23.625l11.338,6.542c-4.334,7.583 -7.005,15.958 -7.005,23.625l0,18.791c0,5.959 1.63,10.5 4.375,13.417c0.563,0.633 1.242,1.137 1.938,1.6" style="fill-rule:nonzero;"/></g><g opacity="0.5"><path d="M1245.88,861.412l-104.292,60.25c-6.625,3.833 -12.587,10.333 -16.916,17.833l-11.338,-6.542c4.334,-7.5 10.296,-14 16.879,-17.833l104.375,-60.25l11.292,6.542Z" style="fill:#fff;fill-rule:nonzero;"/></g><g opacity="0.5"><path d="M1125.17,997.703c-0.083,-0.042 -0.208,-0.125 -0.288,-0.167c0.038,0 0.125,0.042 0.205,0.084c0.041,0.041 0.041,0.083 0.083,0.083" style="fill:#fff;fill-rule:nonzero;"/></g><g opacity="0.2"><path d="M1125.09,997.62c-0.084,-0.042 -0.167,-0.084 -0.209,-0.084c-0.083,-0.041 -0.125,-0.083 -0.166,-0.125c0.12,0.084 0.25,0.125 0.375,0.209" style="fill-rule:nonzero;"/></g><g opacity="0.2"><path d="M1154.07,937.616c0,-1.658 -0.246,-3.175 -0.562,-4.438c6.854,-1.908 11.933,2.409 11.933,10.992c0,10.267 -7.188,22.663 -16.033,27.796c-7.417,4.342 -13.738,2.05 -15.475,-4.9c1.341,-0.313 2.687,-0.788 4.104,-1.654c8.841,-5.134 16.033,-17.534 16.033,-27.796" style="fill-rule:nonzero;"/></g><path d="M1057.29,877.62c0.346,1.317 0.587,2.817 0.587,4.463c0,10.225 -7.183,22.662 -16.037,27.775c-1.429,0.825 -2.784,1.325 -4.104,1.679c-0.346,-1.312 -0.588,-2.737 -0.588,-4.379c0,-10.229 7.175,-22.667 16.038,-27.779c1.42,-0.825 2.787,-1.4 4.104,-1.759m-47.217,23.392l0.004,18.8c0,7.625 2.642,12.938 6.946,15.413c1.917,1.104 9.433,5.445 11.363,6.57c4.345,2.534 10.354,2.217 16.975,-1.604l104.366,-60.254l-0.012,-74.075l-11.35,-6.558l-104.359,60.254c-13.22,7.633 -23.937,26.192 -23.933,41.454" style="fill:#00dfbf;fill-rule:nonzero;"/><g opacity="0.2"><path d="M1028.88,942.078c-0.084,-0.042 -0.125,-0.084 -0.209,-0.084c-0.083,-0.083 -0.208,-0.125 -0.291,-0.166c-1.959,-1.167 -9.459,-5.542 -11.334,-6.625c-4.375,-2.459 -6.958,-7.75 -6.958,-15.417l-0,-18.792c-0,-3.833 0.667,-7.833 1.875,-11.833c1.208,-4 2.958,-8 5.125,-11.75l0.042,0.042l11.333,6.5c-0,-0 -0,0.041 -0.042,0.041c-1.083,1.875 -2.041,3.792 -2.875,5.75c-2.583,5.917 -4.083,12.084 -4.083,17.834l-0,18.791c-0,5.917 1.625,10.5 4.375,13.417c0.875,0.917 1.917,1.708 3.042,2.292" style="fill-rule:nonzero;"/></g><g opacity="0.5"><path d="M1149.67,805.87l-104.292,60.25c-6.667,3.833 -12.583,10.333 -16.917,17.833l-11.337,-6.5c4.333,-7.542 10.296,-14.083 16.879,-17.917l104.371,-60.25l11.296,6.584Z" style="fill:#fff;fill-rule:nonzero;"/></g><g opacity="0.5"><path d="M1028.96,942.163c-0.083,-0.042 -0.166,-0.088 -0.291,-0.167c0.083,0 0.125,0.042 0.208,0.079c0.042,0.046 0.042,0.088 0.083,0.088" style="fill:#fff;fill-rule:nonzero;"/></g><g opacity="0.2"><path d="M1057.85,882.058c0,-1.659 -0.241,-3.175 -0.558,-4.438c6.854,-1.908 11.929,2.408 11.929,10.992c0,10.266 -7.183,22.662 -16.029,27.796c-7.421,4.341 -13.742,2.05 -15.475,-4.9c1.341,-0.313 2.687,-0.788 4.104,-1.655c8.842,-5.133 16.029,-17.529 16.029,-27.795" style="fill-rule:nonzero;"/></g><path d="M1041.63,825.205l-16.784,-65.341" style="fill:none;fill-rule:nonzero;stroke:#e1e1e1;stroke-width:12.5px;"/><path d="M994.765,852.464l-62.075,-49.038" style="fill:none;fill-rule:nonzero;stroke:#e1e1e1;stroke-width:12.5px;"/><path d="M981.797,906.675l-72.537,5.625" style="fill:none;fill-rule:nonzero;stroke:#e1e1e1;stroke-width:12.5px;"/><path d="M1903.5,805.662c-1.633,-12.525 -2.995,-30.308 -6.833,-45.85c-9.687,-39.271 -30.796,-90.092 -37.746,-103.4c-6.954,-13.304 -22.671,-32.671 -33.804,-49.033c-15.746,-23.138 -26.808,-36.109 -38.787,-51.8c-26.317,-34.471 -37.525,-36.434 -68.246,-37.521c-4.15,10.954 -13.663,55.867 17.104,92.171l66.021,69.583c3.746,6.042 44.075,74.979 50.791,100.45c1.188,4.513 0.546,9.304 -1.566,13.467c-5.671,11.162 -9.029,25.179 -11.559,36.475c-1.975,8.841 -7.204,15.837 -5.425,17.196c2.288,1.75 7.946,3.908 14.617,-1.167c3.213,-2.446 8.108,-10.529 11.388,-17.138c5.541,0.021 9.108,3.234 9.529,9.096c0.371,5.129 -1.959,12.279 -3.717,21.163c-0.342,1.712 -0.762,3.716 -1.579,8.554c-0.546,2.629 -1.075,6.137 -1.138,9.929c8.405,1.558 17.013,-3.554 31.017,-16.825c12.654,-11.992 13.492,-28.104 9.933,-55.35" style="fill:#ffaaa8;fill-rule:nonzero;"/><path d="M1685.18,494.71c0.221,-8.216 27.333,-27.854 41.037,-48.595c12.696,-19.217 30.454,-72.146 -11.612,-89.067c-0,-0 9.046,-25.396 -7.425,-40.333c-16.471,-14.942 -38.717,-5.73 -42.221,0.541c-0,0 -6.129,-26.283 -35.233,-27.687c-29.1,-1.404 -34.505,25.741 -34.505,25.741c0,0 -22.983,-10.533 -38.408,10.746c-15.421,21.284 5.058,40.796 5.058,40.796c0,0 -9.25,5.838 -7.837,16.258c1.225,9.013 9.837,11.238 10.858,15.713c1.021,4.479 -4.646,7.117 -7.566,3.925c-0,-0 0.95,7.725 10.67,7.196c9.725,-0.529 18.367,-13.721 18.367,-13.721l98.817,98.487Z" style="fill:#1a2e35;fill-rule:nonzero;"/><path d="M1596.82,354.386c-12.446,5.396 -24.279,24.434 -24.1,77.692c0.15,45.142 13.988,56.558 20.983,59.908c6.996,3.35 20.638,1.659 33.909,-0.383l-0.05,25.95c-0,-0 -24.004,29.812 -2.484,44.642c55.492,-9.709 59.771,-46.117 59.771,-46.117l0.979,-56.583c0,-0 7.634,8.02 21.063,-3.738c11.083,-9.704 15.071,-26.362 6.746,-35.496c-8.321,-9.137 -19.017,-9.879 -28.671,0.338c-0,-0 -17.713,1.137 -44.321,-15.579c-27.246,-17.109 -36.533,-33.63 -43.825,-50.634" style="fill:#ffaaa8;fill-rule:nonzero;"/><path d="M1628.81,460.343c0.134,3.688 -2.637,6.775 -6.187,6.896c-3.55,0.121 -6.538,-2.775 -6.671,-6.462c-0.133,-3.692 2.638,-6.775 6.183,-6.896c3.55,-0.117 6.542,2.775 6.675,6.462" style="fill:#c76668;fill-rule:nonzero;"/><path d="M1594.48,416.742c0.125,3.438 -2.455,6.313 -5.763,6.425c-3.308,0.108 -6.092,-2.587 -6.212,-6.025c-0.125,-3.433 2.454,-6.308 5.762,-6.421c3.308,-0.112 6.088,2.588 6.213,6.021" style="fill:#1a2e35;fill-rule:nonzero;"/><path d="M1640.64,419.419c0.138,3.688 -2.633,6.775 -6.183,6.896c-3.55,0.121 -6.538,-2.775 -6.671,-6.463c-0.133,-3.691 2.637,-6.774 6.183,-6.895c3.55,-0.121 6.542,2.775 6.671,6.462" style="fill:#1a2e35;fill-rule:nonzero;"/><path d="M1590.33,392.806l-12.704,7.433c1.833,3.742 6.491,4.767 10.004,2.713c3.5,-2.054 4.529,-6.409 2.7,-10.146" style="fill:#1a2e35;fill-rule:nonzero;"/><path d="M1684.88,413.238l-0.15,25.079c-6.708,0.221 -12.112,-5.208 -12.07,-12.137c0.045,-6.921 5.52,-12.717 12.22,-12.942" style="fill:#1a2e35;fill-rule:nonzero;"/><path d="M1610.92,410.718l-2.566,35.983l-18.971,-4.446l21.537,-31.537Z" style="fill:#ff9090;fill-rule:nonzero;"/><path d="M1627.61,491.604c13.975,-1.638 42.812,-9.659 47.504,-21.375c-0,-0 -1.625,7.387 -10.334,14.866c-8.716,7.48 -37.187,15.242 -37.187,15.242l0.017,-8.733Z" style="fill:#ff9090;fill-rule:nonzero;"/><path d="M1765.74,312.825c1.25,0.471 2.162,1.334 2.721,2.588c0.575,1.254 0.621,2.504 0.146,3.758l-5.659,15.025c-0.471,1.259 -1.333,2.167 -2.587,2.734c-1.254,0.566 -2.504,0.616 -3.754,0.145l-14.688,-5.529c-1.254,-0.475 -2.162,-1.333 -2.729,-2.591c-0.575,-1.255 -0.621,-2.5 -0.146,-3.759l5.658,-15.029c0.471,-1.25 1.334,-2.158 2.588,-2.729c1.254,-0.567 2.504,-0.617 3.762,-0.146l14.688,5.533Zm29.692,-99.57c5.35,2.012 10.283,4.716 14.791,8.104c4.504,3.387 8.184,7.271 11.013,11.654c2.837,4.379 4.65,9.154 5.429,14.329c0.783,5.167 0.121,10.542 -1.979,16.121c-1.713,4.554 -3.917,8.246 -6.6,11.067c-2.692,2.82 -5.65,5.154 -8.871,6.991c-3.229,1.842 -6.579,3.375 -10.029,4.609c-3.454,1.237 -6.729,2.408 -9.804,3.52c-3.088,1.117 -5.921,2.425 -8.496,3.921c-2.584,1.5 -4.513,3.438 -5.8,5.813c-0.7,1.166 -1.621,2.054 -2.754,2.662c-1.142,0.617 -2.338,0.679 -3.588,0.213l-12.983,-4.892c-1.25,-0.471 -2.192,-1.342 -2.813,-2.617c-0.625,-1.279 -0.65,-2.512 -0.058,-3.725c1.896,-4.354 4.3,-7.904 7.217,-10.641c2.92,-2.734 6.045,-5 9.387,-6.8c3.342,-1.796 6.758,-3.271 10.246,-4.425c3.492,-1.159 6.746,-2.3 9.779,-3.438c3.025,-1.133 5.654,-2.421 7.883,-3.854c2.234,-1.433 3.8,-3.35 4.7,-5.742c1.625,-4.325 1.146,-8.566 -1.445,-12.729c-2.596,-4.162 -6.909,-7.379 -12.946,-9.65c-9.675,-3.646 -18.613,-1.483 -26.809,6.479c-1.041,1.038 -1.995,1.75 -2.85,2.142c-0.866,0.392 -2.037,0.308 -3.516,-0.254l-13.834,-5.204c-1.02,-0.388 -1.783,-1.063 -2.262,-2.025c-0.479,-0.963 -0.508,-2.009 -0.079,-3.15c1.608,-3.942 4.375,-7.55 8.271,-10.825c3.895,-3.279 8.441,-5.854 13.637,-7.738c5.192,-1.875 10.842,-2.904 16.95,-3.071c6.113,-0.166 12.179,0.88 18.213,3.155" style="fill:#00dfbf;fill-rule:nonzero;"/><path d="M1864.97,317.287c3.904,3.708 7.191,7.867 9.858,12.458c2.671,4.6 4.442,9.321 5.288,14.163c0.85,4.846 0.666,9.654 -0.55,14.429c-1.217,4.779 -3.759,9.204 -7.634,13.275c-3.162,3.321 -6.425,5.717 -9.791,7.179c-3.371,1.467 -6.796,2.404 -10.271,2.817c-3.479,0.412 -6.946,0.517 -10.396,0.325c-3.454,-0.2 -6.725,-0.383 -9.808,-0.55c-3.084,-0.163 -6.025,-0.067 -8.809,0.287c-2.791,0.355 -5.183,1.33 -7.166,2.917c-1.038,0.758 -2.163,1.188 -3.375,1.3c-1.217,0.117 -2.28,-0.267 -3.188,-1.133l-9.479,-9.009c-0.913,-0.87 -1.408,-1.97 -1.479,-3.308c-0.079,-1.333 0.358,-2.421 1.312,-3.254c3.25,-3.088 6.642,-5.279 10.179,-6.583c3.534,-1.305 7.084,-2.125 10.642,-2.463c3.558,-0.333 7.067,-0.362 10.525,-0.079c3.45,0.275 6.7,0.475 9.75,0.604c3.038,0.125 5.788,-0.025 8.258,-0.454c2.459,-0.429 4.525,-1.513 6.18,-3.258c3.004,-3.159 4.137,-7.017 3.42,-11.584c-0.725,-4.558 -3.287,-8.937 -7.687,-13.125c-7.067,-6.712 -15.625,-8.121 -25.658,-4.221c-1.292,0.521 -2.38,0.796 -3.263,0.817c-0.896,0.021 -1.879,-0.479 -2.958,-1.504l-10.096,-9.604c-0.75,-0.709 -1.158,-1.571 -1.221,-2.584c-0.067,-1.012 0.296,-1.933 1.079,-2.762c2.85,-2.833 6.567,-4.954 11.154,-6.371c4.592,-1.408 9.484,-1.983 14.684,-1.704c5.191,0.275 10.475,1.454 15.837,3.554c5.371,2.092 10.25,5.238 14.663,9.425m-62.334,75.538c0.913,0.87 1.388,1.95 1.421,3.25c0.034,1.295 -0.387,2.4 -1.254,3.316l-10.429,10.967c-0.871,0.917 -1.954,1.392 -3.25,1.421c-1.3,0.033 -2.4,-0.388 -3.317,-1.254l-10.716,-10.192c-0.917,-0.871 -1.388,-1.95 -1.421,-3.246c-0.038,-1.304 0.383,-2.404 1.258,-3.321l10.425,-10.966c0.871,-0.917 1.946,-1.388 3.25,-1.421c1.292,-0.029 2.396,0.383 3.317,1.254l10.716,10.192Z" style="fill:#00dfbf;fill-rule:nonzero;"/><g opacity="0.6"><path d="M1864.97,317.287c3.904,3.708 7.191,7.867 9.858,12.458c2.671,4.6 4.442,9.321 5.288,14.163c0.85,4.846 0.666,9.654 -0.55,14.429c-1.217,4.779 -3.759,9.204 -7.634,13.275c-3.162,3.321 -6.425,5.717 -9.791,7.179c-3.371,1.467 -6.796,2.404 -10.271,2.817c-3.479,0.412 -6.946,0.517 -10.396,0.325c-3.454,-0.2 -6.725,-0.383 -9.808,-0.55c-3.084,-0.163 -6.025,-0.067 -8.809,0.287c-2.791,0.355 -5.183,1.33 -7.166,2.917c-1.038,0.758 -2.163,1.188 -3.375,1.3c-1.217,0.117 -2.28,-0.267 -3.188,-1.133l-9.479,-9.009c-0.913,-0.87 -1.408,-1.97 -1.479,-3.308c-0.079,-1.333 0.358,-2.421 1.312,-3.254c3.25,-3.088 6.642,-5.279 10.179,-6.583c3.534,-1.305 7.084,-2.125 10.642,-2.463c3.558,-0.333 7.067,-0.362 10.525,-0.079c3.45,0.275 6.7,0.475 9.75,0.604c3.038,0.125 5.788,-0.025 8.258,-0.454c2.459,-0.429 4.525,-1.513 6.18,-3.258c3.004,-3.159 4.137,-7.017 3.42,-11.584c-0.725,-4.558 -3.287,-8.937 -7.687,-13.125c-7.067,-6.712 -15.625,-8.121 -25.658,-4.221c-1.292,0.521 -2.38,0.796 -3.263,0.817c-0.896,0.021 -1.879,-0.479 -2.958,-1.504l-10.096,-9.604c-0.75,-0.709 -1.158,-1.571 -1.221,-2.584c-0.067,-1.012 0.296,-1.933 1.079,-2.762c2.85,-2.833 6.567,-4.954 11.154,-6.371c4.592,-1.408 9.484,-1.983 14.684,-1.704c5.191,0.275 10.475,1.454 15.837,3.554c5.371,2.092 10.25,5.238 14.663,9.425m-62.334,75.538c0.913,0.87 1.388,1.95 1.421,3.25c0.034,1.295 -0.387,2.4 -1.254,3.316l-10.429,10.967c-0.871,0.917 -1.954,1.392 -3.25,1.421c-1.3,0.033 -2.4,-0.388 -3.317,-1.254l-10.716,-10.192c-0.917,-0.871 -1.388,-1.95 -1.421,-3.246c-0.038,-1.304 0.383,-2.404 1.258,-3.321l10.425,-10.966c0.871,-0.917 1.946,-1.388 3.25,-1.421c1.292,-0.029 2.396,0.383 3.317,1.254l10.716,10.192Z" style="fill:#fff;fill-rule:nonzero;"/></g></g><g id="Character-1" serif:id="Character 1"><path d="M320.056,1440.46c13.213,8.034 30.75,8.384 47.296,2.546l12.696,-87.358l-58.546,-14.95l-1.446,99.762Z" style="fill:#ffaaa8;fill-rule:nonzero;"/><path d="M414.183,1524.21c1.425,1.483 0.545,12.433 -1.242,14.937c-1.921,2.688 -11.838,10.796 -30.296,11.121c-17.642,0.317 -33.208,-2.9 -43.171,-10.004c-9.962,-7.109 -14.571,-14.6 -15.004,-24.663c-0.429,-10.062 1.204,-19.662 -3.154,-27.625c-4.025,-7.35 -9.538,-14.596 -10.858,-18.537c-2.875,-8.571 -0.1,-21.542 -0.1,-21.542l103.825,76.313Z" style="fill:#1a2e35;fill-rule:nonzero;"/><path d="M371.393,1439.32c0.096,3.733 0.525,7.454 1.55,11.246c2.129,7.899 5.608,15.412 9.575,22.6c2.046,3.7 4.221,7.337 6.771,10.729c4.979,6.612 11.3,12.162 16.6,18.529c5.3,6.367 9.687,13.983 9.687,22.154c0.009,13.825 -15.2,17.704 -26.829,19.133c-12.412,1.53 -25.508,0.163 -37.325,-3.891c-13.154,-4.513 -22.233,-15.379 -23.733,-28.821c-0.429,-3.863 0.016,-7.763 -0.229,-11.638c-0.559,-8.837 -4.675,-17.108 -9.421,-24.691c-2.75,-4.396 -5.771,-8.709 -7.517,-13.563c-3.137,-8.729 0.263,-18.171 3.017,-26.546c2.379,-7.233 4.275,-15.954 6.821,-15.12c-0.067,1.479 -0.067,4.716 -0.067,4.716c0.758,1.642 2.6,2.821 3.033,4.713c0.454,1.966 0.992,3.925 1.788,5.787c1.225,2.842 3.108,5.484 5.754,7.079c0.45,-5.195 0.904,-10.387 1.358,-15.583c0.138,-1.604 0.334,-3.346 1.446,-4.517c1.125,-1.187 2.883,-1.466 4.504,-1.679c9.834,-1.287 19.85,-2.571 29.617,-0.854c1.467,0.258 3.075,0.688 3.867,1.946c0.65,1.029 0.57,2.342 0.466,3.558c-0.425,5.009 -0.858,9.863 -0.733,14.713" style="fill:#00dfbf;fill-rule:nonzero;"/><g opacity="0.2"><path d="M371.393,1439.32c0.096,3.733 0.525,7.454 1.55,11.246c2.129,7.899 5.608,15.412 9.575,22.6c2.046,3.7 4.221,7.337 6.771,10.729c4.979,6.612 11.3,12.162 16.6,18.529c5.3,6.367 9.687,13.983 9.687,22.154c0.009,13.825 -15.2,17.704 -26.829,19.133c-12.412,1.53 -25.508,0.163 -37.325,-3.891c-13.154,-4.513 -22.233,-15.379 -23.733,-28.821c-0.429,-3.863 0.016,-7.763 -0.229,-11.638c-0.559,-8.837 -4.675,-17.108 -9.421,-24.691c-2.75,-4.396 -5.771,-8.709 -7.517,-13.563c-3.137,-8.729 0.263,-18.171 3.017,-26.546c2.379,-7.233 4.275,-15.954 6.821,-15.12c-0.067,1.479 -0.067,4.716 -0.067,4.716c0.758,1.642 2.6,2.821 3.033,4.713c0.454,1.966 0.992,3.925 1.788,5.787c1.225,2.842 3.108,5.484 5.754,7.079c0.45,-5.195 0.904,-10.387 1.358,-15.583c0.138,-1.604 0.334,-3.346 1.446,-4.517c1.125,-1.187 2.883,-1.466 4.504,-1.679c9.834,-1.287 19.85,-2.571 29.617,-0.854c1.467,0.258 3.075,0.688 3.867,1.946c0.65,1.029 0.57,2.342 0.466,3.558c-0.425,5.009 -0.858,9.863 -0.733,14.713" style="fill-rule:nonzero;"/></g><path d="M384.22,1476.15c-4.925,-4.121 -16.42,-4.792 -22.745,-4.454c-7.921,0.42 -14.446,2.837 -18.213,5.312c-1.667,1.096 -3.9,0.771 -5.237,-0.7c-1.613,-1.771 -1.305,-4.521 0.704,-5.837c3.987,-2.617 11.146,-6.213 20.512,-6.371c15.534,-0.259 19.929,2.641 19.929,2.641c0,0 6.813,4.921 5.05,9.409" style="fill:#375a64;fill-rule:nonzero;"/><path d="M395.264,1490.91c-6.25,-4.163 -18.925,-4.292 -25.25,-3.958c-7.921,0.42 -13.975,3.204 -17.738,5.679c-1.671,1.096 -3.904,0.771 -5.241,-0.7c-1.609,-1.771 -1.305,-4.521 0.704,-5.838c3.987,-2.616 11.612,-6.783 20.979,-6.937c15.533,-0.259 19.396,3.121 19.396,3.121c-0,-0 6.387,2.879 7.15,8.633" style="fill:#375a64;fill-rule:nonzero;"/><path d="M353.876,1448.96c10.754,-0.525 15.221,0.913 19.362,2.68c2.646,1.675 4.213,6.079 2.4,7.075c-3.345,-2.1 -9.504,-3.225 -17.12,-3.296c-5.109,-0.046 -11.646,1.671 -16.98,3.7c-1.358,0.512 -2.966,1.254 -4.379,1.937c-1.904,0.925 -4.221,0.071 -5.004,-1.854c-0.671,-1.637 -0.008,-3.504 1.579,-4.35c3.859,-2.062 11.454,-5.462 20.142,-5.892" style="fill:#375a64;fill-rule:nonzero;"/><path d="M484.454,1407.6c10.154,25.467 26.088,17.613 50.321,2.958l3.671,-86.912l-61.708,-5.717l7.716,89.671Z" style="fill:#ffaaa8;fill-rule:nonzero;"/><path d="M627.887,1468.86c1.283,3.096 0.558,8.733 -1.346,12.233c-1.908,3.496 -21.225,13.059 -46.421,9.992c-25.2,-3.067 -42.016,-14.187 -51.316,-21.092c-9.3,-6.9 -19.271,-8.633 -31.759,-10.025c-12.483,-1.391 -21.891,-5.741 -24.32,-11.745c-2.434,-6.005 1.27,-15.921 1.27,-15.921l153.892,36.558Z" style="fill:#1a2e35;fill-rule:nonzero;"/><path d="M529.718,1388.74c2.317,-0.413 4.25,-1.133 6.717,-1.892c1.229,-0.379 2.587,-0.75 3.762,-0.233c1.588,0.7 2.113,2.642 2.454,4.333c0.696,3.467 0.821,7.921 2.171,11.138c1.225,2.921 4.442,5.708 6.692,7.833c5.858,5.521 12.687,9.963 19.537,14.138c8.025,4.883 15.934,8.766 24.259,13.058c8.487,4.383 19.908,7.396 26.47,12.35c9.567,7.225 9.942,24.096 -1.72,30.125c-10.063,5.2 -36.063,10.025 -62.567,0.954c-14.438,-4.946 -29.875,-21.487 -49.038,-24.029c-12.187,-1.617 -28.445,-3.521 -35.825,-13.238c-2.687,-4.279 -0.354,-16.225 1.83,-30.375c1.954,-12.666 3.75,-32.479 7.77,-31.175c-0.016,-0.004 0.33,3.838 0.33,3.838c-0,-0 3.666,4.433 4.854,5.887c1.05,1.28 2.266,2.096 3.421,3.234c1.483,1.458 2.675,3.121 4.316,4.437c2.017,1.625 4.463,2.834 7.05,2.942c1.229,0.05 2.492,-0.158 3.554,-0.767c2.075,-1.191 2.35,-3.921 4.034,-5.616c1.916,-1.938 4.283,-3.421 6.808,-4.425c3.521,-1.392 7.296,-1.942 11.05,-2.25c0.733,-0.059 1.417,-0.15 2.071,-0.267" style="fill:#00dfbf;fill-rule:nonzero;"/><g opacity="0.2"><path d="M529.718,1388.74c2.317,-0.413 4.25,-1.133 6.717,-1.892c1.229,-0.379 2.587,-0.75 3.762,-0.233c1.588,0.7 2.113,2.642 2.454,4.333c0.696,3.467 0.821,7.921 2.171,11.138c1.225,2.921 4.442,5.708 6.692,7.833c5.858,5.521 12.687,9.963 19.537,14.138c8.025,4.883 15.934,8.766 24.259,13.058c8.487,4.383 19.908,7.396 26.47,12.35c9.567,7.225 9.942,24.096 -1.72,30.125c-10.063,5.2 -36.063,10.025 -62.567,0.954c-14.438,-4.946 -29.875,-21.487 -49.038,-24.029c-12.187,-1.617 -28.445,-3.521 -35.825,-13.238c-2.687,-4.279 -0.354,-16.225 1.83,-30.375c1.954,-12.666 3.75,-32.479 7.77,-31.175c-0.016,-0.004 0.33,3.838 0.33,3.838c-0,-0 3.666,4.433 4.854,5.887c1.05,1.28 2.266,2.096 3.421,3.234c1.483,1.458 2.675,3.121 4.316,4.437c2.017,1.625 4.463,2.834 7.05,2.942c1.229,0.05 2.492,-0.158 3.554,-0.767c2.075,-1.191 2.35,-3.921 4.034,-5.616c1.916,-1.938 4.283,-3.421 6.808,-4.425c3.521,-1.392 7.296,-1.942 11.05,-2.25c0.733,-0.059 1.417,-0.15 2.071,-0.267" style="fill-rule:nonzero;"/></g><path d="M559.981,1416.79c0,-0 -1.504,-4.788 -8.712,-6.534c-5.517,-1.337 -15.571,2.238 -21.954,6.946c-2.613,1.929 -2.5,5.859 0.254,7.579c1.637,1.025 3.721,0.892 5.246,-0.3c4.195,-3.27 13.525,-9.125 25.166,-7.691" style="fill:#375a64;fill-rule:nonzero;"/><path d="M576.721,1427.38c0,0 -3.296,-5.816 -10.416,-6.091c-0,-0 -14.563,-0.367 -24.013,7.541c-2.412,2.017 -2.45,5.667 0.221,7.325c1.587,0.984 3.596,0.855 5.054,-0.312c4.25,-3.404 12.788,-10.575 29.154,-8.463" style="fill:#375a64;fill-rule:nonzero;"/><path d="M595.308,1437.12c0,-0 -3.733,-5.305 -10.854,-5.58c0,0 -13.575,-0.225 -23.025,7.68c-2.412,2.016 -2.45,5.67 0.217,7.329c1.592,0.987 3.6,0.854 5.054,-0.313c4.25,-3.404 12.242,-11.229 28.608,-9.116" style="fill:#375a64;fill-rule:nonzero;"/><path d="M318.398,1205.87c1.879,-41.938 10.804,-63.804 12.071,-75.434c-0,0 3.425,-230.8 9.033,-300.858l206.675,-8.783c3.046,74.812 5.8,276.512 4.196,303.162c-1.538,25.529 -11.925,247.088 -11.925,247.088c-29.229,9.1 -60.283,-4.021 -60.283,-4.021c-0,-0 -17.338,-126.017 -20.184,-153.808c-3.683,-35.975 1.95,-75.038 1.95,-75.038l-13.204,-179.454c0,-0 -15.971,139.133 -23.858,191.537c-9.042,60.042 -47.767,246.146 -47.767,246.146c-27.879,6.979 -55.046,-5.075 -55.046,-5.075c0,0 -4.383,-124.646 -1.658,-185.462" style="fill:#375a64;fill-rule:nonzero;"/><path d="M446.72,958.73l3.909,-24.721c12.041,-1.783 42.525,-20.833 60.587,-37.466c0,-0 -16.321,27.662 -50.671,46.7l-0.612,194.937l-13.213,-179.45Z" style="fill:#2b454e;fill-rule:nonzero;"/><path d="M531.46,699.21c-14.063,-32.045 -38.205,-86.012 -38.205,-86.012l-6.15,-87.696c0,0 13.692,0.354 26.717,2.383c13.021,2.034 33.621,14.463 43.067,37.859c7.021,17.383 43.604,123.396 43.604,123.396l63.767,-33.605c16.316,-10.387 22.1,-27.566 32.529,-37.325c10.425,-9.766 20.966,-11.425 32.362,-19.375c11.396,-7.954 16.117,-14.333 19.017,-6.395c2.9,7.941 -10.004,20.175 -12.333,23.225c-2.334,3.054 -15.055,9.554 0.975,10.387c16.029,0.833 48.37,-14.75 56.112,-17.417c7.742,-2.666 7.063,6.525 3.038,12.221c-4.017,5.7 -4.463,22.467 -11.217,31.871c-7.171,9.979 -11.038,14.275 -26.396,20.213c-14.312,5.533 -43.912,6.929 -59.179,15.741c-15.271,8.813 -52.183,42.171 -76.792,59.284c-33.041,22.987 -51.637,24.491 -64.575,6.162c-12.937,-18.325 -21.391,-43.633 -26.341,-54.917" style="fill:#ffaaa8;fill-rule:nonzero;"/><path d="M478.505,523.84c21.642,-1.662 47.188,-0.333 61.342,12.588c11.267,10.287 15.513,16.858 28.104,52.225c8.5,23.875 26.154,78.871 26.154,78.871c0,-0 -37.5,6.679 -62.704,38.329l-40.612,-91.292l-12.284,-90.721Z" style="fill:#e1e1e1;fill-rule:nonzero;"/><path d="M600.495,689.14c-14.117,5.058 -23.55,14.967 -26.942,20.679c-0,0 1.521,-16.762 24.892,-26.608l2.05,5.929Z" style="fill:#ff9090;fill-rule:nonzero;"/><path d="M426.634,519.936c-0,0 -13.917,-1.058 -30.454,3.313c-19.042,5.033 -53.171,14.616 -53.171,14.616c-10.829,5.642 -15.067,24.4 -17.513,35.184c-7.841,34.516 12.679,112.65 15.646,142.883c2.971,30.225 -3.521,123.421 -3.521,123.421c23.3,26.975 149.492,44.887 210.95,0.004c0,0 2.679,-213.621 -3.379,-244.296c-9.162,-46.379 -22.758,-68.433 -70.725,-71.221l-47.833,-3.904Z" style="fill:#f5f5f5;fill-rule:nonzero;"/><path d="M453.599,405.312l-13.712,7.567c-2.021,-3.938 -0.588,-8.825 3.196,-10.917c3.787,-2.087 8.495,-0.587 10.516,3.35" style="fill:#1a2e35;fill-rule:nonzero;"/><path d="M513.19,410.832l-12.505,-9.629c2.55,-3.58 7.417,-4.33 10.871,-1.667c3.454,2.658 4.184,7.717 1.634,11.296" style="fill:#1a2e35;fill-rule:nonzero;"/><path d="M390.582,361.688c0,0 -14.742,2.054 -20.146,13.167c-4.704,9.662 -3,32.992 3.263,58.417c6.266,25.425 12.171,40.741 15.854,47.779c3.687,7.033 11.258,9.016 11.258,9.016l-0.737,-30.17l-1.092,-21.025c0,-0 13.496,-18.425 14.979,-33.525c1.904,-19.442 -2.187,-27.392 -2.187,-27.392l-21.192,-16.267Z" style="fill:#1a2e35;fill-rule:nonzero;"/><path d="M414.388,390.881c0.1,31.113 25.404,56.254 56.517,56.154c31.112,-0.1 54.437,-25.625 54.333,-56.737c-0.096,-31.113 -23.588,-56.033 -54.696,-55.933c-31.117,0.1 -56.254,25.404 -56.154,56.516" style="fill:#1a2e35;fill-rule:nonzero;"/><path d="M399.776,435.518c-5.071,4.396 -9.196,-6.983 -13.462,-11.42c-4.267,-4.434 -18.167,-10.467 -25.046,4.145c-7.008,14.892 6.067,35.834 16.758,39.942c11.592,4.454 18.154,-5.562 18.154,-5.562l0,66.854c16.034,28.883 44.334,27.996 59.438,26.371c15.104,-1.625 18.429,-17.342 7.383,-30.017l-0.116,-20.675c-0,-0 17.07,2.533 25.391,1.221c13.842,-2.188 21.079,-12.629 25.229,-27.634c6.671,-24.104 9.355,-64.612 0.084,-111.408c-15.504,-11.992 -69.275,-10.008 -101.813,10.621c2.384,41.504 -6.929,53.167 -12,57.562" style="fill:#ffaaa8;fill-rule:nonzero;"/><path d="M516.158,343.717c2.087,-8.67 3.029,-17.62 2.796,-26.533c-0.092,-3.533 -0.859,-7.775 -4.138,-9.079c-3.183,-1.271 -6.533,1.067 -9.371,2.987c-11.983,8.096 -26.92,10.375 -41.362,11.167c-24.921,1.367 -63.225,-0.258 -75.933,27.108c-3.525,7.584 -4.13,15.584 2.833,20.83c5.946,4.475 13.562,6.5 20.792,7.758c12.629,2.196 25.154,4.979 37.87,6.663c12.95,1.72 28.05,3.404 40.78,-0.526c10.687,-3.295 21.558,-6.129 29.541,-14.641c6.854,-7.304 10.834,-17.233 10.925,-27.25c0.013,-1.425 -0.325,-3.213 -1.712,-3.558c-0.696,-0.171 -1.413,0.116 -2.071,0.395c-3.65,1.563 -7.3,3.121 -10.95,4.68" style="fill:#1a2e35;fill-rule:nonzero;"/><path d="M462.883,505.155c-0,0 -30.938,-6.129 -41.767,-11.837c-7.246,-3.825 -13.229,-10.471 -14.992,-14.738c0,0 2.059,9.167 8.546,17.413c7.938,10.079 48.238,17.392 48.238,17.392l-0.025,-8.23Z" style="fill:#ff9090;fill-rule:nonzero;"/><path d="M456.661,425.812c0.012,3.983 -3.083,7.212 -6.917,7.212c-3.833,0.004 -6.95,-3.221 -6.966,-7.204c-0.009,-3.983 3.087,-7.213 6.92,-7.217c3.834,0 6.95,3.225 6.963,7.209" style="fill:#1a2e35;fill-rule:nonzero;"/><path d="M466.65,473.924c0.013,3.746 -2.9,6.779 -6.504,6.783c-3.604,0 -6.533,-3.033 -6.546,-6.779c-0.012,-3.742 2.896,-6.779 6.505,-6.779c3.6,-0 6.533,3.033 6.545,6.775" style="fill:#c76668;fill-rule:nonzero;"/><path d="M447.91,403.916l-14.345,9.038c-2.434,-4.129 -1.192,-9.504 2.766,-12c3.963,-2.496 9.15,-1.171 11.579,2.962" style="fill:#1a2e35;fill-rule:nonzero;"/><path d="M498.509,395.08l15.079,6.734c-1.721,4.271 -6.488,6.221 -10.654,4.358c-4.163,-1.858 -6.146,-6.825 -4.425,-11.092" style="fill:#1a2e35;fill-rule:nonzero;"/><path d="M506.46,423.712c0.012,3.846 -2.98,6.967 -6.684,6.971c-3.704,-0 -6.716,-3.117 -6.733,-6.967c-0.013,-3.846 2.983,-6.966 6.687,-6.971c3.705,0 6.717,3.117 6.73,6.967" style="fill:#1a2e35;fill-rule:nonzero;"/><path d="M472.384,411.957l2.471,46.316l21.966,-5.816l-24.437,-40.5Z" style="fill:#ff9090;fill-rule:nonzero;"/><path d="M83.211,602.795c7.204,3.892 36.575,24.534 52.525,26.321c6.759,0.759 8.592,-0.329 8.321,-2.091c-0.367,-2.396 -4.625,-6.042 -5.662,-7.996c-1.805,-3.392 -12.546,-17.563 -8.392,-24.925c4.154,-7.363 7.775,-0.296 17.725,9.404c9.95,9.704 20.079,13.054 28.779,24.383c8.696,11.334 11.604,29.221 26.013,42.125l57.445,39.184c0,-0 26.742,-124.134 38.48,-138.75c12.329,-15.359 66.154,18.137 54.904,66.995c-11.254,48.863 -36.8,133.621 -54.525,150.271c-11.471,10.775 -35.7,0.6 -65.913,-26.275c-23.862,-21.225 -56.596,-53.225 -70.225,-64.404c-13.633,-11.179 -42.612,-17.375 -55.829,-25.162c-14.187,-8.363 -17.304,-13.23 -22.754,-24.242c-5.133,-10.379 -2.842,-26.996 -5.883,-33.275c-3.038,-6.275 -2.213,-15.454 4.991,-11.563" style="fill:#ffaaa8;fill-rule:nonzero;"/><path d="M343.01,537.864c18.395,11.525 19.325,28.279 20.237,47.425c0.846,17.629 -2.7,41.954 -10.487,65.996c-7.813,24.113 -20.192,68.175 -20.192,68.175c-0,0 -48.083,1.113 -72.825,-20.262c-0,-0 11.283,-47.475 19.25,-83.175c7.962,-35.7 17.65,-74.117 64.017,-78.159" style="fill:#e1e1e1;fill-rule:nonzero;"/><path d="M259.965,709.198c13.104,7.292 20.8,22.958 23.212,29.146c0,-0 -0.404,-22.013 -21.862,-35.534l-1.35,6.388Z" style="fill:#ff9090;fill-rule:nonzero;"/><path d="M758.795,1609.77l321.579,185.666l0,68.4l-321.579,-185.662l-0,-68.404Z" style="fill:#00dfbf;fill-rule:nonzero;"/><g opacity="0.35"><path d="M758.795,1609.77l321.579,185.666l0,68.4l-321.579,-185.662l-0,-68.404Z" style="fill-rule:nonzero;"/></g><path d="M1401.95,1609.77l-321.579,185.666l-0,68.4l321.579,-185.662l-0,-68.405Z" style="fill:#00dfbf;fill-rule:nonzero;"/><g opacity="0.2"><path d="M1401.95,1609.77l-321.579,185.666l-0,68.4l321.579,-185.662l-0,-68.405Z" style="fill-rule:nonzero;"/></g><path d="M1401.95,1609.77l-321.583,-185.667l-321.575,185.666l321.579,185.667l321.579,-185.667Z" style="fill:#00dfbf;fill-rule:nonzero;"/><g opacity="0.15"><path d="M1401.95,1609.77l-321.583,-185.667l-321.575,185.666l321.579,185.667l321.579,-185.667Z" style="fill-rule:nonzero;"/></g><g opacity="0.1"><path d="M1080.38,1795.43l0,-19.542l-287.733,-166.125l-33.846,-0l321.579,185.667Z" style="fill-rule:nonzero;"/></g><g opacity="0.1"><path d="M1080.37,1424.1l0.004,19.546l287.73,166.121l33.85,-0l-321.584,-185.667Z" style="fill-rule:nonzero;"/></g><path d="M1401.95,1609.77l-33.85,-0l-287.729,166.12l-0,19.546l321.579,-185.666Z" style="fill:#00dfbf;fill-rule:nonzero;"/><path d="M1080.37,1424.1l0.004,19.546l-287.733,166.121l-33.846,-0l321.575,-185.667Z" style="fill:#00dfbf;fill-rule:nonzero;"/><path d="M1081.54,1529.32l138.183,79.779c10.342,5.971 10.342,15.65 0,21.621l-103.058,59.5c-10.346,5.971 -27.104,5.971 -37.45,0.004l-138.179,-79.783c-10.342,-5.971 -10.342,-15.65 -0,-21.621l103.058,-59.5c10.338,-5.971 27.104,-5.971 37.446,0" style="fill:#2b454e;fill-rule:nonzero;"/><path d="M1116.66,1690.22l99.654,-57.538l-134.779,-77.812c-10.341,-5.971 -27.108,-5.971 -37.446,-0l-99.65,57.537l134.775,77.813c10.342,5.971 27.105,5.971 37.446,-0" style="fill:#375a64;fill-rule:nonzero;"/><path d="M998.102,1609.89l60.446,-34.9c1.995,-1.15 5.229,-1.154 7.225,-0.008l7.437,4.266c1.992,1.146 1.996,3.009 0.004,4.163l-60.446,34.9c-1.991,1.15 -5.225,1.154 -7.22,0.008l-7.442,-4.271c-1.996,-1.146 -1.996,-3.008 -0.004,-4.158" style="fill:#1a2e35;fill-rule:nonzero;"/><path d="M1088.39,1662.09l60.446,-34.9c1.992,-1.15 5.225,-1.154 7.221,-0.008l7.437,4.266c1.996,1.15 2,3.013 0.004,4.163l-60.441,34.9c-1.996,1.154 -5.229,1.154 -7.225,0.008l-7.438,-4.271c-2,-1.146 -2,-3.008 -0.004,-4.158" style="fill:#1a2e35;fill-rule:nonzero;"/><path d="M940.648,1744.89c-0,-11.621 -8.159,-25.746 -18.217,-31.554c-5.038,-2.908 -9.583,-3.167 -12.875,-1.254c-0.667,0.387 -7.217,4.329 -7.892,4.721c-3.283,1.904 -5.321,5.962 -5.321,11.754c0,11.621 8.159,25.746 18.217,31.554c5.042,2.912 9.596,3.167 12.888,1.246c0.662,-0.384 7.183,-4.313 7.854,-4.696c3.3,-1.896 5.346,-5.963 5.346,-11.771" style="fill:#00dfbf;fill-rule:nonzero;"/><g opacity="0.1"><path d="M914.561,1718.04c10.062,5.812 18.221,19.937 18.221,31.558c-0,11.617 -8.159,16.325 -18.221,10.517c-10.063,-5.808 -18.221,-19.938 -18.221,-31.558c0,-11.617 8.158,-16.325 18.221,-10.517" style="fill-rule:nonzero;"/></g><path d="M703.148,1851.14c-20.98,0 -41.963,-4.721 -58.313,-14.154l-213.325,-123.167c-17.15,-9.9 -26.587,-23.562 -26.587,-38.471c-0,-14.908 9.441,-28.566 26.587,-38.466l247.175,-142.709c27.079,-15.633 49.958,-55.262 49.958,-86.529l0,-782.208c0,-4.604 3.734,-8.333 8.334,-8.333c4.604,-0 8.333,3.729 8.333,8.333l0,782.208c0,37.742 -25.604,82.096 -58.292,100.967l-247.175,142.708c-11.775,6.796 -18.254,15.329 -18.254,24.029c0,8.7 6.479,17.238 18.254,24.034l213.325,123.166c27.546,15.905 72.38,15.909 99.925,0.013l157.3,-90.771c3.992,-2.3 9.084,-0.929 11.388,3.054c2.296,3.988 0.929,9.088 -3.054,11.384l-157.3,90.766c-16.342,9.429 -37.309,14.146 -58.279,14.146" style="fill:#2b454e;fill-rule:nonzero;"/><path d="M311.906,238.558c-0.225,-1.175 0.004,-2.275 0.696,-3.3c0.695,-1.033 1.633,-1.658 2.808,-1.883l20.288,-3.909c1.183,-0.229 2.283,0.009 3.3,0.7c1.033,0.692 1.658,1.629 1.883,2.809l13.371,69.387c0.225,1.179 -0.004,2.279 -0.7,3.3c-0.692,1.029 -1.63,1.65 -2.809,1.879l-20.287,3.909c-1.179,0.225 -2.279,-0.005 -3.304,-0.696c-1.025,-0.692 -1.65,-1.629 -1.88,-2.809l-13.366,-69.387Zm16.908,87.737c-0.229,-1.183 0,-2.283 0.692,-3.312c0.696,-1.021 1.633,-1.646 2.808,-1.875l20.292,-3.904c1.179,-0.229 2.279,0.004 3.3,0.691c1.029,0.696 1.654,1.634 1.883,2.813l3.129,16.258c0.229,1.184 0,2.288 -0.704,3.304c-0.683,1.03 -1.617,1.655 -2.804,1.88l-20.288,3.908c-1.175,0.225 -2.275,-0.004 -3.304,-0.7c-1.025,-0.688 -1.646,-1.625 -1.875,-2.808l-3.129,-16.255Z" style="fill:#00dfbf;fill-rule:nonzero;"/><path d="M235.37,327.73c-0.8,-0.891 -1.167,-1.958 -1.1,-3.195c0.067,-1.238 0.546,-2.259 1.442,-3.055l15.387,-13.783c0.9,-0.8 1.967,-1.171 3.196,-1.1c1.242,0.063 2.254,0.55 3.054,1.442l47.142,52.637c0.804,0.892 1.175,1.954 1.1,3.196c-0.067,1.229 -0.546,2.246 -1.446,3.05l-15.387,13.783c-0.892,0.796 -1.955,1.163 -3.196,1.105c-1.229,-0.075 -2.246,-0.55 -3.05,-1.45l-47.142,-52.63Zm59.613,66.55c-0.805,-0.891 -1.171,-1.958 -1.105,-3.191c0.075,-1.242 0.55,-2.259 1.442,-3.054l15.392,-13.784c0.9,-0.804 1.962,-1.171 3.191,-1.1c1.242,0.067 2.259,0.546 3.059,1.438l11.046,12.341c0.808,0.896 1.175,1.955 1.1,3.196c-0.063,1.229 -0.55,2.246 -1.446,3.05l-15.388,13.784c-0.891,0.804 -1.954,1.166 -3.191,1.1c-1.234,-0.063 -2.255,-0.55 -3.055,-1.438l-11.045,-12.342Z" style="fill:#00dfbf;fill-rule:nonzero;"/><g opacity="0.6"><path d="M235.37,327.73c-0.8,-0.891 -1.167,-1.958 -1.1,-3.195c0.067,-1.238 0.546,-2.259 1.442,-3.055l15.387,-13.783c0.9,-0.8 1.967,-1.171 3.196,-1.1c1.242,0.063 2.254,0.55 3.054,1.442l47.142,52.637c0.804,0.892 1.175,1.954 1.1,3.196c-0.067,1.229 -0.546,2.246 -1.446,3.05l-15.387,13.783c-0.892,0.796 -1.955,1.163 -3.196,1.105c-1.229,-0.075 -2.246,-0.55 -3.05,-1.45l-47.142,-52.63Zm59.613,66.55c-0.805,-0.891 -1.171,-1.958 -1.105,-3.191c0.075,-1.242 0.55,-2.259 1.442,-3.054l15.392,-13.784c0.9,-0.804 1.962,-1.171 3.191,-1.1c1.242,0.067 2.259,0.546 3.059,1.438l11.046,12.341c0.808,0.896 1.175,1.955 1.1,3.196c-0.063,1.229 -0.55,2.246 -1.446,3.05l-15.388,13.784c-0.891,0.804 -1.954,1.166 -3.191,1.1c-1.234,-0.063 -2.255,-0.55 -3.055,-1.438l-11.045,-12.342Z" style="fill:#fff;fill-rule:nonzero;"/></g></g><g id="_404-Error" serif:id="404 Error"><path d="M818.483,378.172c0.713,-0 1.321,0.258 1.838,0.775c0.517,0.516 0.779,1.133 0.779,1.837l0,10.267c0,0.712 -0.262,1.325 -0.779,1.837c-0.517,0.521 -1.125,0.775 -1.838,0.775l-45.895,0c-0.713,0 -1.321,-0.254 -1.838,-0.775c-0.517,-0.512 -0.775,-1.125 -0.775,-1.837l0,-62.55c0,-0.708 0.258,-1.321 0.775,-1.838c0.517,-0.516 1.125,-0.775 1.837,-0.775l45.121,0c0.709,0 1.325,0.259 1.842,0.775c0.517,0.517 0.771,1.13 0.771,1.838l-0,10.262c-0,0.713 -0.254,1.325 -0.771,1.842c-0.517,0.517 -1.133,0.775 -1.842,0.775l-29.82,0l-0,10.458l27.691,0c0.713,0 1.321,0.259 1.842,0.771c0.512,0.521 0.775,1.134 0.775,1.842l-0,10.262c-0,0.713 -0.263,1.325 -0.775,1.838c-0.521,0.521 -1.129,0.775 -1.842,0.775l-27.691,-0l-0,10.846l30.595,-0Z" style="fill:#00dfbf;fill-rule:nonzero;"/><path d="M850.145,355.225l10.941,-0c2.709,-0 4.95,-0.517 6.729,-1.55c1.775,-1.03 2.663,-2.905 2.663,-5.617c-0,-2.708 -0.888,-4.579 -2.663,-5.613c-1.779,-1.033 -4.02,-1.55 -6.729,-1.55l-10.941,0l-0,14.33Zm10.941,-29.338c4.259,0 8.067,0.45 11.425,1.354c3.354,0.904 6.209,2.263 8.571,4.067c2.354,1.808 4.163,4.117 5.421,6.925c1.258,2.808 1.887,6.083 1.887,9.825c0,4.842 -1.004,8.862 -3,12.058c-2,3.192 -4.841,5.629 -8.52,7.309l12.004,23.041c0.196,0.392 0.291,0.746 0.291,1.067c0,0.583 -0.212,1.083 -0.629,1.504c-0.421,0.417 -0.921,0.629 -1.5,0.629l-13.171,0c-1.291,0 -2.212,-0.291 -2.758,-0.871c-0.55,-0.583 -0.983,-1.162 -1.308,-1.745l-10.746,-20.721l-8.908,-0l-0,20.721c-0,0.712 -0.259,1.325 -0.775,1.841c-0.521,0.517 -1.13,0.775 -1.842,0.775l-12.683,0c-0.713,0 -1.321,-0.258 -1.838,-0.775c-0.517,-0.516 -0.775,-1.129 -0.775,-1.841l0,-62.55c0,-0.709 0.258,-1.321 0.775,-1.838c0.517,-0.517 1.125,-0.775 1.838,-0.775l26.241,0Z" style="fill:#00dfbf;fill-rule:nonzero;"/><path d="M917.438,355.225l10.942,-0c2.708,-0 4.95,-0.517 6.729,-1.55c1.775,-1.03 2.662,-2.905 2.662,-5.617c0,-2.708 -0.887,-4.579 -2.662,-5.613c-1.779,-1.033 -4.021,-1.55 -6.729,-1.55l-10.942,0l-0,14.33Zm10.942,-29.338c4.258,0 8.066,0.45 11.425,1.354c3.354,0.904 6.208,2.263 8.57,4.067c2.355,1.808 4.163,4.117 5.421,6.925c1.259,2.808 1.888,6.083 1.888,9.825c-0,4.842 -1.004,8.862 -3,12.058c-2,3.192 -4.842,5.629 -8.521,7.309l12.004,23.041c0.196,0.392 0.292,0.746 0.292,1.067c-0,0.583 -0.213,1.083 -0.629,1.504c-0.421,0.417 -0.921,0.629 -1.5,0.629l-13.171,0c-1.292,0 -2.213,-0.291 -2.759,-0.871c-0.55,-0.583 -0.983,-1.162 -1.308,-1.745l-10.746,-20.721l-8.908,-0l-0,20.721c-0,0.712 -0.258,1.325 -0.775,1.841c-0.521,0.517 -1.129,0.775 -1.842,0.775l-12.683,0c-0.713,0 -1.321,-0.258 -1.838,-0.775c-0.516,-0.516 -0.775,-1.129 -0.775,-1.841l0,-62.55c0,-0.709 0.259,-1.321 0.775,-1.838c0.517,-0.517 1.125,-0.775 1.838,-0.775l26.242,0Z" style="fill:#00dfbf;fill-rule:nonzero;"/><path d="M1007.1,367.91c0.063,-1.163 0.125,-2.455 0.192,-3.875c0.067,-1.417 0.096,-2.871 0.096,-4.359c-0,-1.483 -0.029,-2.916 -0.096,-4.304c-0.067,-1.387 -0.129,-2.633 -0.192,-3.729c-0.129,-1.613 -0.471,-3.1 -1.016,-4.454c-0.55,-1.354 -1.325,-2.534 -2.325,-3.534c-1,-1 -2.246,-1.791 -3.725,-2.375c-1.488,-0.579 -3.234,-0.87 -5.23,-0.87c-2.004,-0 -3.75,0.291 -5.229,0.87c-1.483,0.584 -2.729,1.375 -3.729,2.375c-1.004,1 -1.775,2.18 -2.325,3.534c-0.55,1.354 -0.887,2.841 -1.012,4.454c-0.134,1.096 -0.213,2.342 -0.246,3.729c-0.034,1.388 -0.05,2.821 -0.05,4.304c-0,1.488 0.016,2.942 0.05,4.359c0.033,1.42 0.112,2.712 0.246,3.875c0.254,3.229 1.366,5.904 3.337,8.037c1.967,2.129 4.954,3.192 8.958,3.192c4,-0 6.971,-1.063 8.909,-3.192c1.933,-2.133 3.062,-4.808 3.387,-8.037m-42.508,-16.755c0.196,-3.612 0.983,-7.016 2.371,-10.212c1.387,-3.196 3.358,-5.971 5.908,-8.325c2.546,-2.358 5.65,-4.229 9.296,-5.617c3.646,-1.387 7.854,-2.083 12.638,-2.083c4.708,-0 8.908,0.696 12.583,2.083c3.679,1.388 6.796,3.259 9.346,5.617c2.55,2.354 4.516,5.129 5.904,8.325c1.387,3.196 2.179,6.6 2.375,10.212c0.129,2.78 0.191,5.684 0.191,8.717c0,3.033 -0.062,5.875 -0.191,8.521c-0.196,3.617 -0.988,7.021 -2.375,10.217c-1.388,3.191 -3.354,5.987 -5.904,8.375c-2.55,2.387 -5.667,4.258 -9.346,5.612c-3.675,1.358 -7.875,2.038 -12.584,2.038c-4.783,-0 -8.991,-0.68 -12.637,-2.038c-3.646,-1.354 -6.75,-3.225 -9.296,-5.612c-2.55,-2.388 -4.521,-5.184 -5.908,-8.375c-1.388,-3.196 -2.175,-6.6 -2.371,-10.217c-0.129,-2.646 -0.192,-5.488 -0.192,-8.521c0,-3.033 0.063,-5.937 0.192,-8.717" style="fill:#00dfbf;fill-rule:nonzero;"/><path d="M1054.25,355.225l10.946,-0c2.708,-0 4.95,-0.517 6.725,-1.55c1.775,-1.03 2.662,-2.905 2.662,-5.617c0,-2.708 -0.887,-4.579 -2.662,-5.613c-1.775,-1.033 -4.017,-1.55 -6.725,-1.55l-10.946,0l-0,14.33Zm10.946,-29.338c4.254,0 8.062,0.45 11.425,1.354c3.354,0.904 6.204,2.263 8.566,4.067c2.355,1.808 4.163,4.117 5.421,6.925c1.259,2.808 1.888,6.083 1.888,9.825c-0,4.842 -1,8.862 -3,12.058c-2,3.192 -4.838,5.629 -8.517,7.309l12,23.041c0.196,0.392 0.292,0.746 0.292,1.067c-0,0.583 -0.209,1.083 -0.625,1.504c-0.425,0.417 -0.921,0.629 -1.504,0.629l-13.167,0c-1.296,0 -2.217,-0.291 -2.758,-0.871c-0.555,-0.583 -0.988,-1.162 -1.313,-1.745l-10.746,-20.721l-8.908,-0l-0,20.721c-0,0.712 -0.258,1.325 -0.771,1.841c-0.521,0.517 -1.129,0.775 -1.842,0.775l-12.683,0c-0.712,0 -1.325,-0.258 -1.842,-0.775c-0.516,-0.516 -0.77,-1.129 -0.77,-1.841l-0,-62.55c-0,-0.709 0.254,-1.321 0.77,-1.838c0.517,-0.517 1.13,-0.775 1.842,-0.775l26.242,0Z" style="fill:#00dfbf;fill-rule:nonzero;"/><path d="M1153.98,365.682l-0,-17.817l-14.142,17.817l14.142,0Zm2.125,27.983c-0.709,0 -1.325,-0.258 -1.842,-0.775c-0.517,-0.516 -0.767,-1.129 -0.767,-1.841l0,-9.875l-30.504,-0c-0.708,-0 -1.321,-0.259 -1.837,-0.775c-0.521,-0.517 -0.775,-1.129 -0.775,-1.838l-0,-10.266c-0,-1.675 0.42,-3.063 1.258,-4.163l28.95,-36.5c0.583,-0.712 1.117,-1.179 1.596,-1.404c0.487,-0.225 1.146,-0.342 1.987,-0.342l14.621,0c0.713,0 1.321,0.259 1.842,0.775c0.508,0.517 0.771,1.129 0.771,1.842l-0,37.179l8.325,0c0.712,0 1.32,0.258 1.841,0.775c0.517,0.517 0.779,1.129 0.779,1.838l0,10.266c0,0.709 -0.262,1.321 -0.779,1.838c-0.521,0.516 -1.129,0.775 -1.841,0.775l-8.325,-0l-0,9.875c-0,0.712 -0.263,1.325 -0.771,1.841c-0.521,0.517 -1.129,0.775 -1.842,0.775l-12.687,0Z" style="fill:#00dfbf;fill-rule:nonzero;"/><path d="M1229.11,367.91c0.258,-5.488 0.258,-10.909 -0,-16.267c-0.125,-1.613 -0.371,-3.1 -0.73,-4.454c-0.354,-1.354 -0.92,-2.534 -1.687,-3.534c-0.779,-1 -1.808,-1.791 -3.096,-2.375c-1.3,-0.579 -2.908,-0.87 -4.842,-0.87c-1.941,-0 -3.558,0.291 -4.841,0.87c-1.3,0.584 -2.325,1.375 -3.109,2.375c-0.766,1 -1.354,2.18 -1.737,3.534c-0.383,1.354 -0.617,2.841 -0.675,4.454c-0.329,5.358 -0.329,10.779 -0,16.267c0.058,1.612 0.275,3.1 0.625,4.454c0.354,1.354 0.937,2.533 1.75,3.533c0.8,1 1.846,1.792 3.146,2.371c1.283,0.583 2.9,0.871 4.841,0.871c1.934,-0 3.542,-0.288 4.842,-0.871c1.288,-0.579 2.329,-1.371 3.146,-2.371c0.8,-1 1.387,-2.179 1.737,-3.533c0.355,-1.354 0.567,-2.842 0.63,-4.454m-10.355,-42.992c4.842,-0 9,0.712 12.488,2.129c3.487,1.421 6.371,3.329 8.662,5.713c2.292,2.391 4.009,5.183 5.134,8.379c1.133,3.191 1.791,6.533 1.983,10.016c0.133,2.78 0.196,5.684 0.196,8.717c-0,3.033 -0.063,5.875 -0.196,8.521c-0.192,3.487 -0.85,6.825 -1.983,10.021c-1.125,3.196 -2.842,5.987 -5.134,8.375c-2.291,2.387 -5.175,4.296 -8.662,5.712c-3.488,1.421 -7.646,2.134 -12.488,2.134c-4.841,-0 -9.008,-0.713 -12.495,-2.134c-3.488,-1.416 -6.375,-3.325 -8.663,-5.712c-2.292,-2.388 -4.004,-5.179 -5.137,-8.375c-1.13,-3.196 -1.792,-6.534 -1.984,-10.021c-0.133,-2.646 -0.191,-5.488 -0.191,-8.521c-0,-3.033 0.058,-5.937 0.191,-8.717c0.192,-3.483 0.854,-6.825 1.984,-10.016c1.133,-3.196 2.845,-5.988 5.137,-8.379c2.288,-2.384 5.175,-4.292 8.663,-5.713c3.487,-1.417 7.654,-2.129 12.495,-2.129" style="fill:#00dfbf;fill-rule:nonzero;"/><path d="M1288.65,365.682l0,-17.817l-14.137,17.817l14.137,0Zm2.134,27.983c-0.713,0 -1.325,-0.258 -1.842,-0.775c-0.521,-0.516 -0.775,-1.129 -0.775,-1.841l0,-9.875l-30.504,-0c-0.708,-0 -1.321,-0.259 -1.838,-0.775c-0.512,-0.517 -0.77,-1.129 -0.77,-1.838l-0,-10.266c-0,-1.675 0.416,-3.063 1.254,-4.163l28.954,-36.5c0.579,-0.712 1.112,-1.179 1.596,-1.404c0.487,-0.225 1.15,-0.342 1.983,-0.342l14.629,0c0.704,0 1.313,0.259 1.834,0.775c0.512,0.517 0.775,1.129 0.775,1.842l-0,37.179l8.329,0c0.712,0 1.321,0.258 1.841,0.775c0.509,0.517 0.771,1.129 0.771,1.838l0,10.266c0,0.709 -0.262,1.321 -0.771,1.838c-0.52,0.516 -1.129,0.775 -1.841,0.775l-8.329,-0l-0,9.875c-0,0.712 -0.263,1.325 -0.775,1.841c-0.521,0.517 -1.13,0.775 -1.834,0.775l-12.687,0Z" style="fill:#00dfbf;fill-rule:nonzero;"/><g><path d="M558.502,260.52c-2.249,0 -4.072,-1.823 -4.072,-4.072c0,-11.308 0,-43.007 0,-54.315c0,-2.249 1.823,-4.072 4.072,-4.072l16.166,-0c7.669,-0 12.668,0.312 14.997,0.937c3.579,0.937 6.575,2.975 8.99,6.114c2.414,3.138 3.621,7.193 3.621,12.164c0,3.834 -0.696,7.058 -2.087,9.671c-1.392,2.613 -3.16,4.665 -5.305,6.157c-2.144,1.491 -4.324,2.478 -6.54,2.961c-3.011,0.596 -7.37,0.894 -13.079,0.894l-4.151,0c-1.08,0 -2.116,0.43 -2.88,1.193c-0.764,0.764 -1.193,1.8 -1.193,2.88c0,4.318 0,11.098 0,15.416c0,2.249 -1.823,4.072 -4.072,4.072c-1.43,0 -3.036,0 -4.467,0Zm12.612,-51.893c-2.249,-0 -4.073,1.823 -4.073,4.072c0,2.873 0,6.706 0,9.58c0,1.08 0.43,2.115 1.193,2.879c0.764,0.764 1.8,1.193 2.88,1.193l2.83,-0c4.97,-0 8.293,-0.327 9.969,-0.98c1.676,-0.653 2.99,-1.676 3.941,-3.068c0.952,-1.392 1.428,-3.011 1.428,-4.857c-0,-2.272 -0.668,-4.147 -2.003,-5.624c-1.335,-1.477 -3.025,-2.4 -5.07,-2.769c-1.505,-0.284 -4.53,-0.426 -9.075,-0.426l-2.02,-0Z" style="fill:#375a64;fill-rule:nonzero;"/><path d="M622.577,226.706c-0.876,1.348 -2.475,2.039 -4.056,1.754c-0.954,-0.091 -2.018,-0.282 -3.052,-0.469c-1.334,-0.24 -2.462,-1.128 -3.007,-2.369c-0.546,-1.241 -0.438,-2.672 0.287,-3.817c1.19,-1.769 2.556,-3.254 4.184,-4.401c2.982,-2.102 7.413,-3.153 13.292,-3.153c5.34,-0 9.317,0.632 11.93,1.896c2.613,1.264 4.452,2.868 5.517,4.814c1.064,1.943 1.597,5.508 1.598,10.695c0,0.013 0,0.026 -0,0.039c-0.005,0.553 -0.122,13.36 -0.128,13.936c0,0.013 0,0.025 0,0.038c0.001,3.967 0.193,6.894 0.575,8.78c0.069,0.337 0.148,0.678 0.237,1.023c0.301,1.213 0.026,2.497 -0.745,3.482c-0.77,0.984 -1.951,1.559 -3.201,1.559c-1.058,0.007 -2.119,0.007 -3.047,0.007c-1.799,0.001 -3.386,-1.179 -3.903,-2.902c-0.058,-0.204 -0.12,-0.415 -0.184,-0.634c-0.198,-0.71 -0.341,-1.179 -0.426,-1.406c-2.045,1.988 -4.232,3.48 -6.561,4.474c-2.329,0.994 -4.814,1.491 -7.456,1.491c-4.658,-0 -8.329,-1.264 -11.013,-3.792c-2.685,-2.528 -4.027,-5.723 -4.027,-9.586c0,-2.557 0.611,-4.836 1.832,-6.838c1.222,-2.003 2.933,-3.537 5.134,-4.602c2.202,-1.065 5.376,-1.995 9.523,-2.791c5.595,-1.05 9.472,-2.03 11.631,-2.939c-0,-0 -0,-0 -0,-0c-0,-0.011 -0,-1.193 -0,-1.193c-0,-2.301 -0.568,-3.941 -1.704,-4.921c-1.136,-0.98 -3.281,-1.47 -6.434,-1.47c-2.13,-0 -3.792,0.419 -4.985,1.257c-0.677,0.475 -1.281,1.155 -1.811,2.038Zm14.934,14.44c-0.001,-0.552 -0.26,-1.071 -0.7,-1.404c-0.44,-0.333 -1.01,-0.442 -1.541,-0.294c-1.356,0.354 -3.037,0.747 -5.045,1.176c-3.323,0.71 -5.496,1.406 -6.518,2.087c-1.562,1.108 -2.344,2.514 -2.344,4.218c0,1.676 0.625,3.125 1.875,4.346c1.25,1.221 2.84,1.832 4.772,1.832c2.159,-0 4.218,-0.71 6.178,-2.13c1.448,-1.08 2.4,-2.4 2.854,-3.963c0.313,-1.022 0.469,-2.968 0.469,-5.836l-0,-0.032Zm-6.863,-31.411c-1.329,-0 -2.566,-0.678 -3.282,-1.797c-0.716,-1.119 -0.812,-2.526 -0.256,-3.732c0.784,-1.699 1.606,-3.478 2.237,-4.845c0.665,-1.442 2.109,-2.365 3.697,-2.365c0.474,-0 0.992,-0 1.537,-0c1.616,-0 3.08,0.955 3.729,2.435c0.65,1.48 0.363,3.204 -0.731,4.393c-2.782,3.025 -5.436,5.911 -5.436,5.911l-1.495,-0Z" style="fill:#375a64;fill-rule:nonzero;"/><path d="M659.921,264.95c0.001,-0.368 0.159,-0.719 0.434,-0.963c0.276,-0.244 0.644,-0.359 1.009,-0.314c2.307,0.28 6.936,0.843 9.804,1.191c1.33,0.163 2.494,0.97 3.114,2.157c0.148,0.655 0.5,1.109 0.935,1.424c1.136,0.852 2.925,1.278 5.368,1.278c3.125,0 5.468,-0.469 7.03,-1.406c1.051,-0.625 1.846,-1.633 2.386,-3.025c0.369,-0.994 0.554,-2.826 0.554,-5.496l-0,-0.007c-0.002,-1.046 -0.587,-2.003 -1.516,-2.481c-0.929,-0.479 -2.048,-0.399 -2.9,0.207c-2.628,2.034 -5.694,3.005 -9.133,3.005c-6.078,0 -10.893,-2.57 -14.443,-7.711c-2.784,-4.062 -4.175,-9.118 -4.175,-15.168c-0,-7.584 1.825,-13.378 5.474,-17.383c3.65,-4.005 8.188,-6.007 13.613,-6.007c4.052,-0 7.59,1.288 10.614,3.865c0.569,0.488 1.37,0.6 2.051,0.286c0.682,-0.313 1.118,-0.994 1.118,-1.744c0.064,-0.003 0.064,-0.006 0.064,-0.01c-0,-0.759 0.615,-1.375 1.375,-1.375c1.43,0 3.737,0 5.758,0c1.08,0 2.116,0.429 2.879,1.193c0.764,0.764 1.193,1.799 1.193,2.879l-0,36.531c-0,5.34 -0.44,9.331 -1.321,11.972c-0.88,2.642 -2.116,4.715 -3.707,6.221c-1.59,1.505 -3.713,2.684 -6.369,3.536c-2.656,0.852 -6.015,1.278 -10.076,1.278c-7.669,0 -13.109,-1.313 -16.318,-3.941c-3.21,-2.627 -4.815,-5.957 -4.815,-9.991c0,0 0,-0 0,-0.001Zm10.737,-27.991c0,4.801 0.93,8.316 2.791,10.545c1.86,2.23 4.154,3.345 6.88,3.345c2.926,-0 5.397,-1.143 7.414,-3.43c2.016,-2.286 3.025,-5.673 3.025,-10.161c-0,-4.687 -0.966,-8.166 -2.897,-10.439c-1.932,-2.272 -4.375,-3.408 -7.328,-3.408c-2.869,-0 -5.234,1.115 -7.094,3.344c-1.861,2.23 -2.791,5.631 -2.791,10.204Z" style="fill:#375a64;fill-rule:nonzero;"/><path d="M718.443,209.138c-2.249,0 -4.072,-1.823 -4.072,-4.072c0,-0.957 0,-1.976 0,-2.933c0,-2.249 1.823,-4.072 4.072,-4.072c1.236,-0 2.593,-0 3.828,-0c2.249,-0 4.072,1.823 4.072,4.072c0,0.957 0,1.976 0,2.933c0,2.249 -1.823,4.072 -4.072,4.072c-1.235,0 -2.592,0 -3.828,0Zm0,51.382c-2.249,0 -4.072,-1.823 -4.072,-4.072c0,-8.596 0,-28.507 0,-37.103c0,-2.249 1.823,-4.072 4.072,-4.072c1.236,0 2.593,0 3.828,0c2.249,0 4.072,1.823 4.072,4.072c0,8.596 0,28.507 0,37.103c0,2.249 -1.823,4.072 -4.072,4.072c-1.235,0 -2.592,0 -3.828,0Z" style="fill:#375a64;fill-rule:nonzero;"/><path d="M779.771,256.448c-0,2.249 -1.823,4.072 -4.072,4.072c-1.236,0 -2.593,0 -3.828,0c-2.249,0 -4.072,-1.823 -4.072,-4.072l-0,-19.02c-0,-4.885 -0.256,-8.045 -0.767,-9.48c-0.512,-1.434 -1.342,-2.549 -2.493,-3.344c-1.15,-0.795 -2.535,-1.193 -4.154,-1.193c-2.073,-0 -3.934,0.568 -5.581,1.704c-1.648,1.136 -2.777,2.642 -3.387,4.516c-0.611,1.875 -0.916,5.34 -0.916,10.396l-0,16.421c-0,1.08 -0.429,2.116 -1.193,2.88c-0.764,0.763 -1.799,1.192 -2.879,1.192c-1.236,0 -2.593,0 -3.828,0c-2.249,0 -4.072,-1.823 -4.072,-4.072c-0,-8.596 -0,-28.507 -0,-37.103c-0,-1.08 0.429,-2.115 1.192,-2.879c0.764,-0.764 1.8,-1.193 2.88,-1.193c0.134,0 0.269,0 0.406,0c1.761,0 3.451,0.7 4.696,1.946c1.246,1.245 1.946,2.934 1.946,4.696c-0,-6.642 -0,-6.03 -0,-5.179c0.001,0.824 0.478,1.573 1.224,1.922c0.746,0.349 1.627,0.235 2.26,-0.292c3.24,-2.759 7.063,-4.115 11.428,-4.115c2.641,-0 5.055,0.476 7.242,1.427c2.188,0.952 3.842,2.166 4.964,3.643c1.122,1.477 1.903,3.153 2.343,5.027c0.441,1.875 0.661,4.559 0.661,8.053l-0,24.047Z" style="fill:#375a64;fill-rule:nonzero;"/><path d="M801.946,226.706c-0.876,1.348 -2.474,2.039 -4.056,1.754c-0.954,-0.091 -2.018,-0.282 -3.052,-0.469c-1.334,-0.24 -2.461,-1.128 -3.007,-2.369c-0.545,-1.241 -0.438,-2.672 0.287,-3.817c1.191,-1.769 2.556,-3.254 4.184,-4.401c2.982,-2.102 7.413,-3.153 13.293,-3.153c5.339,-0 9.316,0.632 11.929,1.896c2.613,1.264 4.452,2.868 5.517,4.814c1.064,1.943 1.597,5.508 1.598,10.695c0,0.013 0,0.026 0,0.039c-0.005,0.553 -0.122,13.36 -0.127,13.936c-0.001,0.013 -0.001,0.025 -0.001,0.038c0.001,3.967 0.193,6.894 0.576,8.78c0.068,0.337 0.147,0.678 0.236,1.023c0.301,1.213 0.026,2.497 -0.745,3.482c-0.77,0.984 -1.951,1.559 -3.201,1.559c-1.058,0.007 -2.118,0.007 -3.047,0.007c-1.799,0.001 -3.386,-1.179 -3.903,-2.902c-0.058,-0.204 -0.12,-0.415 -0.184,-0.634c-0.198,-0.71 -0.34,-1.179 -0.426,-1.406c-2.045,1.988 -4.232,3.48 -6.561,4.474c-2.329,0.994 -4.814,1.491 -7.456,1.491c-4.658,-0 -8.329,-1.264 -11.013,-3.792c-2.684,-2.528 -4.027,-5.723 -4.027,-9.586c0,-2.557 0.611,-4.836 1.832,-6.838c1.222,-2.003 2.933,-3.537 5.134,-4.602c2.202,-1.065 5.376,-1.995 9.523,-2.791c5.595,-1.05 9.472,-2.03 11.631,-2.939c-0,-0 0,-0 0,-0c0,-0.011 0,-1.193 0,-1.193c0,-2.301 -0.568,-3.941 -1.704,-4.921c-1.136,-0.98 -3.281,-1.47 -6.434,-1.47c-2.13,-0 -3.791,0.419 -4.984,1.257c-0.678,0.475 -1.282,1.155 -1.812,2.038Zm14.934,14.44c-0.001,-0.552 -0.26,-1.071 -0.7,-1.404c-0.44,-0.333 -1.01,-0.442 -1.541,-0.294c-1.355,0.354 -3.037,0.747 -5.044,1.176c-3.324,0.71 -5.497,1.406 -6.519,2.087c-1.562,1.108 -2.343,2.514 -2.343,4.218c-0,1.676 0.624,3.125 1.874,4.346c1.25,1.221 2.841,1.832 4.772,1.832c2.159,-0 4.218,-0.71 6.178,-2.13c1.448,-1.08 2.4,-2.4 2.854,-3.963c0.313,-1.022 0.469,-2.968 0.469,-5.836l0,-0.032Z" style="fill:#375a64;fill-rule:nonzero;"/><path d="M905.84,256.448c0,2.249 -1.823,4.072 -4.072,4.072c-1.235,0 -2.592,0 -3.828,0c-2.249,0 -4.072,-1.823 -4.072,-4.072l0,-19.02c0,-4.885 -0.255,-8.045 -0.767,-9.48c-0.511,-1.434 -1.342,-2.549 -2.492,-3.344c-1.15,-0.795 -2.535,-1.193 -4.154,-1.193c-2.074,-0 -3.934,0.568 -5.581,1.704c-1.648,1.136 -2.777,2.642 -3.388,4.516c-0.61,1.875 -0.916,5.34 -0.916,10.396l0,16.421c0,1.08 -0.429,2.116 -1.192,2.88c-0.764,0.763 -1.8,1.192 -2.88,1.192c-1.235,0 -2.592,0 -3.828,0c-2.249,0 -4.072,-1.823 -4.072,-4.072c0,-8.596 0,-28.507 0,-37.103c0,-1.08 0.429,-2.115 1.193,-2.879c0.764,-0.764 1.799,-1.193 2.879,-1.193c0.135,0 0.27,0 0.407,0c1.761,0 3.45,0.7 4.696,1.946c1.246,1.245 1.945,2.934 1.945,4.696c0,-6.642 0,-6.03 0,-5.179c0.002,0.824 0.479,1.573 1.225,1.922c0.746,0.349 1.627,0.235 2.26,-0.292c3.24,-2.759 7.062,-4.115 11.427,-4.115c2.642,-0 5.056,0.476 7.243,1.427c2.187,0.952 3.842,2.166 4.964,3.643c1.122,1.477 1.903,3.153 2.343,5.027c0.44,1.875 0.66,4.559 0.66,8.053l0,24.047Z" style="fill:#375a64;fill-rule:nonzero;"/><path d="M928.015,226.706c-0.875,1.348 -2.474,2.039 -4.056,1.754c-0.954,-0.091 -2.017,-0.282 -3.051,-0.469c-1.335,-0.24 -2.462,-1.128 -3.007,-2.369c-0.546,-1.241 -0.438,-2.672 0.287,-3.817c1.19,-1.769 2.556,-3.254 4.183,-4.401c2.983,-2.102 7.414,-3.153 13.293,-3.153c5.34,-0 9.317,0.632 11.93,1.896c2.613,1.264 4.452,2.868 5.517,4.814c1.064,1.943 1.596,5.508 1.598,10.695c-0,0.013 -0,0.026 -0,0.039c-0.005,0.553 -0.123,13.36 -0.128,13.936c0,0.013 0,0.025 0,0.038c0.001,3.967 0.192,6.894 0.575,8.78c0.069,0.337 0.147,0.678 0.237,1.023c0.3,1.213 0.026,2.497 -0.745,3.482c-0.77,0.984 -1.951,1.559 -3.201,1.559c-1.058,0.007 -2.119,0.007 -3.047,0.007c-1.799,0.001 -3.386,-1.179 -3.903,-2.902c-0.058,-0.204 -0.12,-0.415 -0.184,-0.634c-0.199,-0.71 -0.341,-1.179 -0.426,-1.406c-2.045,1.988 -4.232,3.48 -6.561,4.474c-2.329,0.994 -4.815,1.491 -7.456,1.491c-4.658,-0 -8.33,-1.264 -11.014,-3.792c-2.684,-2.528 -4.026,-5.723 -4.026,-9.586c0,-2.557 0.611,-4.836 1.832,-6.838c1.222,-2.003 2.933,-3.537 5.134,-4.602c2.201,-1.065 5.376,-1.995 9.522,-2.791c5.596,-1.05 9.473,-2.03 11.632,-2.939c-0,-0 -0,-0 -0,-0c-0,-0.011 -0,-1.193 -0,-1.193c-0,-2.301 -0.568,-3.941 -1.704,-4.921c-1.137,-0.98 -3.281,-1.47 -6.434,-1.47c-2.13,-0 -3.792,0.419 -4.985,1.257c-0.677,0.475 -1.281,1.155 -1.812,2.038Zm14.935,14.44c-0.002,-0.552 -0.261,-1.071 -0.7,-1.404c-0.44,-0.333 -1.01,-0.442 -1.541,-0.294c-1.356,0.354 -3.037,0.747 -5.045,1.176c-3.323,0.71 -5.496,1.406 -6.518,2.087c-1.563,1.108 -2.344,2.514 -2.344,4.218c0,1.676 0.625,3.125 1.875,4.346c1.25,1.221 2.84,1.832 4.772,1.832c2.158,-0 4.218,-0.71 6.178,-2.13c1.448,-1.08 2.4,-2.4 2.854,-3.963c0.313,-1.022 0.469,-2.968 0.469,-5.836l-0,-0.032Zm-15.718,-34.173c-0.689,1.293 -2.034,2.101 -3.499,2.101c-0.295,0.107 -0.583,0.107 -0.851,0.107c-0.407,0.001 -0.798,-0.161 -1.086,-0.448c-0.288,-0.288 -0.45,-0.678 -0.45,-1.086c0.003,0 0.003,0 0.003,-0c-0,-2.982 0.724,-5.276 2.173,-6.881c1.448,-1.605 3.309,-2.407 5.581,-2.407c0.994,-0 1.917,0.106 2.769,0.319c0.852,0.213 2.408,0.824 4.666,1.832c2.258,1.009 4.026,1.513 5.304,1.513c0.909,-0 1.669,-0.284 2.279,-0.852c0.333,-0.31 0.601,-0.733 0.803,-1.271c0.397,-0.921 1.304,-1.518 2.308,-1.518c1.597,-0.066 3.6,-0.066 3.6,-0.066c-0.029,3.835 -0.746,6.576 -2.152,8.223c-1.406,1.648 -3.217,2.471 -5.432,2.471c-0.966,0 -1.917,-0.099 -2.855,-0.298c-0.653,-0.17 -2.286,-0.753 -4.899,-1.747c-2.613,-0.994 -4.516,-1.491 -5.709,-1.491c-0.909,0 -1.619,0.277 -2.131,0.831c-0.166,0.18 -0.306,0.403 -0.422,0.668Z" style="fill:#375a64;fill-rule:nonzero;"/><path d="M963.741,237.258c0,-3.977 0.98,-7.825 2.94,-11.546c1.96,-3.721 4.736,-6.562 8.329,-8.521c3.593,-1.96 7.605,-2.94 12.036,-2.94c6.846,-0 12.455,2.222 16.83,6.668c4.374,4.445 6.561,10.062 6.561,16.85c-0,6.845 -2.209,12.519 -6.625,17.021c-4.417,4.502 -9.977,6.753 -16.68,6.753c-4.147,-0 -8.103,-0.937 -11.866,-2.812c-3.763,-1.875 -6.625,-4.623 -8.585,-8.244c-1.96,-3.622 -2.94,-8.031 -2.94,-13.229Zm12.271,0.639c-0,4.488 1.065,7.924 3.195,10.31c2.13,2.386 4.758,3.579 7.882,3.579c3.124,0 5.745,-1.193 7.861,-3.579c2.116,-2.386 3.174,-5.851 3.174,-10.395c-0,-4.431 -1.058,-7.84 -3.174,-10.226c-2.116,-2.386 -4.737,-3.579 -7.861,-3.579c-3.124,0 -5.752,1.193 -7.882,3.579c-2.13,2.386 -3.195,5.823 -3.195,10.311Z" style="fill:#375a64;fill-rule:nonzero;"/><path d="M1069.25,248.691c0.828,-1.458 2.479,-2.244 4.133,-1.967c1.085,0.102 2.314,0.309 3.508,0.509c1.384,0.232 2.552,1.16 3.089,2.457c0.538,1.297 0.369,2.779 -0.445,3.922c-1.332,1.764 -2.845,3.281 -4.611,4.501c-3.309,2.287 -7.449,3.43 -12.419,3.43c-7.868,-0 -13.691,-2.571 -17.468,-7.712c-2.983,-4.118 -4.474,-9.316 -4.474,-15.593c-0,-7.499 1.96,-13.371 5.879,-17.618c3.92,-4.246 8.877,-6.369 14.87,-6.369c6.731,-0 12.043,2.222 15.934,6.668c3.25,3.712 5.083,9.073 5.5,16.084c0.076,1.114 -0.314,2.21 -1.077,3.026c-0.762,0.816 -1.829,1.279 -2.946,1.279c-5.507,0.04 -15.266,0.04 -21.101,0.04c-1.436,-0.002 -2.767,0.754 -3.503,1.988c-0.735,1.234 -0.765,2.764 -0.08,4.027c0.523,0.816 1.055,1.591 1.691,2.272c1.847,1.974 4.147,2.961 6.903,2.961c1.874,-0 3.451,-0.512 4.729,-1.534c0.731,-0.585 1.361,-1.376 1.888,-2.371Zm-3.122,-14.671c1.469,0.001 2.824,-0.789 3.547,-2.068c0.723,-1.279 0.702,-2.847 -0.056,-4.106c-0.442,-0.613 -0.868,-1.206 -1.363,-1.73c-1.704,-1.803 -3.777,-2.705 -6.22,-2.705c-2.613,-0 -4.772,0.951 -6.476,2.855c-0.443,0.495 -0.828,1.036 -1.154,1.623c-0.742,1.231 -0.764,2.767 -0.058,4.019c0.707,1.252 2.034,2.026 3.472,2.026c2.57,0.086 5.732,0.086 8.308,0.086Z" style="fill:#375a64;fill-rule:nonzero;"/><path d="M1133.74,256.448c0,2.249 -1.823,4.072 -4.072,4.072c-1.235,0 -2.592,0 -3.828,0c-2.249,0 -4.072,-1.823 -4.072,-4.072l-0,-19.02c-0,-4.885 -0.256,-8.045 -0.767,-9.48c-0.511,-1.434 -1.342,-2.549 -2.492,-3.344c-1.151,-0.795 -2.535,-1.193 -4.154,-1.193c-2.074,-0 -3.934,0.568 -5.582,1.704c-1.647,1.136 -2.776,2.642 -3.387,4.516c-0.61,1.875 -0.916,5.34 -0.916,10.396l0,16.421c0,1.08 -0.429,2.116 -1.192,2.88c-0.764,0.763 -1.8,1.192 -2.88,1.192c-1.235,0 -2.592,0 -3.828,0c-2.249,0 -4.072,-1.823 -4.072,-4.072c0,-8.596 0,-28.507 0,-37.103c0,-1.08 0.429,-2.115 1.193,-2.879c0.763,-0.764 1.799,-1.193 2.879,-1.193c0.134,0 0.27,0 0.406,0c1.762,0 3.451,0.7 4.697,1.946c1.245,1.245 1.945,2.934 1.945,4.696c0,-6.642 0,-6.03 0,-5.179c0.001,0.824 0.479,1.573 1.225,1.922c0.746,0.349 1.626,0.235 2.259,-0.292c3.241,-2.759 7.063,-4.115 11.428,-4.115c2.642,-0 5.056,0.476 7.243,1.427c2.187,0.952 3.842,2.166 4.963,3.643c1.122,1.477 1.903,3.153 2.344,5.027c0.44,1.875 0.66,4.559 0.66,8.053l0,24.047Z" style="fill:#375a64;fill-rule:nonzero;"/><path d="M1183.26,223.545c0.638,1.124 0.692,2.488 0.144,3.659c-0.549,1.171 -1.63,2.003 -2.903,2.233c-1.18,0.3 -2.437,0.527 -3.55,0.728c-1.779,0.319 -3.556,-0.573 -4.363,-2.19c-0.376,-1.043 -0.993,-1.868 -1.761,-2.519c-1.406,-1.193 -3.231,-1.789 -5.475,-1.789c-2.982,-0 -5.361,1.029 -7.136,3.088c-1.775,2.06 -2.663,5.504 -2.663,10.332c0,5.369 0.902,9.16 2.706,11.376c1.803,2.215 4.225,3.323 7.264,3.323c2.272,0 4.133,-0.646 5.581,-1.938c0.915,-0.817 1.66,-2.004 2.235,-3.562c0.708,-1.731 2.522,-2.738 4.366,-2.424c1.174,0.12 2.481,0.342 3.704,0.55c1.238,0.211 2.31,0.981 2.905,2.087c0.595,1.107 0.645,2.426 0.137,3.574c-1.389,3.024 -3.215,5.48 -5.55,7.337c-3.465,2.755 -8.109,4.133 -13.932,4.133c-6.618,-0 -11.894,-2.088 -15.828,-6.263c-3.934,-4.175 -5.901,-9.956 -5.901,-17.341c0,-7.47 1.974,-13.285 5.922,-17.447c3.948,-4.161 9.288,-6.241 16.02,-6.241c5.51,-0 9.892,1.186 13.144,3.557c1.986,1.449 3.631,3.361 4.934,5.737Z" style="fill:#375a64;fill-rule:nonzero;"/><path d="M1191.64,237.258c0,-3.977 0.98,-7.825 2.94,-11.546c1.96,-3.721 4.736,-6.562 8.329,-8.521c3.593,-1.96 7.605,-2.94 12.036,-2.94c6.845,-0 12.455,2.222 16.829,6.668c4.375,4.445 6.562,10.062 6.562,16.85c-0,6.845 -2.209,12.519 -6.626,17.021c-4.416,4.502 -9.976,6.753 -16.68,6.753c-4.147,-0 -8.102,-0.937 -11.865,-2.812c-3.764,-1.875 -6.625,-4.623 -8.585,-8.244c-1.96,-3.622 -2.94,-8.031 -2.94,-13.229Zm12.27,0.639c0,4.488 1.066,7.924 3.196,10.31c2.13,2.386 4.757,3.579 7.882,3.579c3.124,0 5.744,-1.193 7.861,-3.579c2.116,-2.386 3.174,-5.851 3.174,-10.395c-0,-4.431 -1.058,-7.84 -3.174,-10.226c-2.117,-2.386 -4.737,-3.579 -7.861,-3.579c-3.125,0 -5.752,1.193 -7.882,3.579c-2.13,2.386 -3.196,5.823 -3.196,10.311Z" style="fill:#375a64;fill-rule:nonzero;"/><path d="M1288.86,256.448c-0,2.249 -1.823,4.072 -4.072,4.072c-1.236,0 -2.593,0 -3.828,0c-2.249,0 -4.072,-1.823 -4.072,-4.072l-0,-19.02c-0,-4.885 -0.256,-8.045 -0.767,-9.48c-0.512,-1.434 -1.342,-2.549 -2.493,-3.344c-1.15,-0.795 -2.535,-1.193 -4.154,-1.193c-2.073,-0 -3.934,0.568 -5.581,1.704c-1.647,1.136 -2.777,2.642 -3.387,4.516c-0.611,1.875 -0.916,5.34 -0.916,10.396l-0,16.421c-0,1.08 -0.429,2.116 -1.193,2.88c-0.764,0.763 -1.799,1.192 -2.879,1.192c-1.236,0 -2.593,0 -3.828,0c-2.249,0 -4.072,-1.823 -4.072,-4.072c-0,-8.596 -0,-28.507 -0,-37.103c-0,-1.08 0.429,-2.115 1.192,-2.879c0.764,-0.764 1.8,-1.193 2.88,-1.193c0.134,0 0.27,0 0.406,0c1.761,0 3.451,0.7 4.696,1.946c1.246,1.245 1.946,2.934 1.946,4.696c-0,-6.642 -0,-6.03 -0,-5.179c0.001,0.824 0.478,1.573 1.224,1.922c0.746,0.349 1.627,0.235 2.26,-0.292c3.24,-2.759 7.063,-4.115 11.428,-4.115c2.641,-0 5.055,0.476 7.243,1.427c2.187,0.952 3.841,2.166 4.963,3.643c1.122,1.477 1.903,3.153 2.343,5.027c0.441,1.875 0.661,4.559 0.661,8.053l-0,24.047Z" style="fill:#375a64;fill-rule:nonzero;"/><path d="M1317.68,215.273c1.08,0 2.116,0.429 2.879,1.193c0.764,0.764 1.193,1.799 1.193,2.879c0,0.464 0,0.936 0,1.4c0,1.08 -0.429,2.116 -1.193,2.879c-0.763,0.764 -1.799,1.193 -2.879,1.193c-0.012,-0 -0.024,-0 -0.036,-0c-1.08,-0 -2.116,0.429 -2.879,1.193c-0.764,0.763 -1.193,1.799 -1.193,2.879l-0,14.163c-0,3.693 0.078,5.844 0.234,6.455c0.156,0.61 0.512,1.115 1.065,1.512c0.554,0.398 1.229,0.597 2.024,0.597c0.271,-0 0.572,-0.023 0.902,-0.069c2.202,-0.207 4.164,1.391 4.406,3.59c0.072,0.464 0.123,0.93 0.172,1.377c0.224,2.022 -1.078,3.898 -3.05,4.396c-1.885,0.41 -3.899,0.633 -6.051,0.633c-2.159,-0 -4.105,-0.362 -5.837,-1.087c-1.733,-0.724 -3.004,-1.661 -3.813,-2.812c-0.81,-1.15 -1.371,-2.705 -1.683,-4.665c-0.256,-1.392 -0.384,-4.204 -0.384,-8.436l0,-19.726l-2.75,-0c-0.728,-0 -1.427,-0.289 -1.942,-0.804c-0.515,-0.515 -0.804,-1.214 -0.804,-1.942c0,-1.272 0,-2.78 0,-4.052c0,-0.728 0.289,-1.427 0.804,-1.941c0.515,-0.515 1.214,-0.805 1.942,-0.805c1.375,0 2.75,0 2.75,0l0,-6.647c0,-1.45 0.771,-2.791 2.025,-3.52c1.08,-0.628 2.471,-1.437 3.871,-2.251c1.259,-0.733 2.814,-0.736 4.077,-0.01c1.263,0.727 2.042,2.073 2.042,3.53c-0,1.652 -0,3.357 -0,4.826c-0,1.08 0.429,2.116 1.193,2.88c0.763,0.763 1.799,1.192 2.879,1.192c0.012,0 0.024,0 0.036,0Z" style="fill:#375a64;fill-rule:nonzero;"/><path d="M1341.52,256.448c0,2.249 -1.823,4.072 -4.072,4.072c-1.235,0 -2.592,0 -3.828,0c-2.249,0 -4.072,-1.823 -4.072,-4.072c-0,-8.596 -0,-28.507 -0,-37.103c-0,-1.08 0.429,-2.115 1.193,-2.879c0.763,-0.764 1.799,-1.193 2.879,-1.193c0.203,0 0.408,0 0.615,0c3.553,0 6.433,2.881 6.433,6.434c0,-6.434 0,-5.845 0,-5.024c0.002,0.669 0.41,1.27 1.032,1.519c0.621,0.249 1.332,0.095 1.795,-0.388c0.806,-0.95 1.578,-1.652 2.307,-2.115c1.52,-0.965 3.245,-1.448 5.177,-1.448c1.298,-0 2.574,0.17 3.827,0.512c1.084,0.286 1.998,1.013 2.522,2.004c0.523,0.991 0.607,2.156 0.232,3.213c-0.261,0.925 -0.609,1.908 -0.941,2.841c-0.707,1.986 -2.812,3.104 -4.853,2.577c-0.759,-0.296 -1.51,-0.411 -2.236,-0.411c-1.676,0 -3.096,0.462 -4.261,1.385c-1.164,0.923 -2.08,2.592 -2.748,5.006c-0.667,2.414 -1.001,7.47 -1.001,15.168l0,9.902Z" style="fill:#375a64;fill-rule:nonzero;"/><path d="M1374.05,226.706c-0.875,1.348 -2.474,2.039 -4.056,1.754c-0.954,-0.091 -2.017,-0.282 -3.052,-0.469c-1.334,-0.24 -2.461,-1.128 -3.006,-2.369c-0.546,-1.241 -0.438,-2.672 0.287,-3.817c1.19,-1.769 2.556,-3.254 4.183,-4.401c2.983,-2.102 7.414,-3.153 13.293,-3.153c5.34,-0 9.317,0.632 11.93,1.896c2.613,1.264 4.452,2.868 5.517,4.814c1.064,1.943 1.596,5.508 1.598,10.695c-0,0.013 -0,0.026 -0,0.039c-0.005,0.553 -0.123,13.36 -0.128,13.936c0,0.013 -0,0.025 -0,0.038c0.001,3.967 0.192,6.894 0.575,8.78c0.068,0.337 0.147,0.678 0.237,1.023c0.3,1.213 0.025,2.497 -0.745,3.482c-0.771,0.984 -1.951,1.559 -3.201,1.559c-1.058,0.007 -2.119,0.007 -3.047,0.007c-1.799,0.001 -3.386,-1.179 -3.903,-2.902c-0.058,-0.204 -0.12,-0.415 -0.184,-0.634c-0.199,-0.71 -0.341,-1.179 -0.426,-1.406c-2.045,1.988 -4.232,3.48 -6.561,4.474c-2.329,0.994 -4.815,1.491 -7.456,1.491c-4.658,-0 -8.33,-1.264 -11.014,-3.792c-2.684,-2.528 -4.026,-5.723 -4.026,-9.586c0,-2.557 0.611,-4.836 1.832,-6.838c1.221,-2.003 2.933,-3.537 5.134,-4.602c2.201,-1.065 5.375,-1.995 9.522,-2.791c5.596,-1.05 9.473,-2.03 11.631,-2.939c0.001,-0 0.001,-0 0.001,-0c-0,-0.011 -0,-1.193 -0,-1.193c-0,-2.301 -0.568,-3.941 -1.705,-4.921c-1.136,-0.98 -3.28,-1.47 -6.433,-1.47c-2.13,-0 -3.792,0.419 -4.985,1.257c-0.677,0.475 -1.281,1.155 -1.812,2.038Zm14.935,14.44c-0.002,-0.552 -0.261,-1.071 -0.7,-1.404c-0.44,-0.333 -1.01,-0.442 -1.542,-0.294c-1.355,0.354 -3.036,0.747 -5.044,1.176c-3.323,0.71 -5.496,1.406 -6.519,2.087c-1.562,1.108 -2.343,2.514 -2.343,4.218c0,1.676 0.625,3.125 1.875,4.346c1.25,1.221 2.84,1.832 4.772,1.832c2.158,-0 4.218,-0.71 6.177,-2.13c1.449,-1.08 2.401,-2.4 2.855,-3.963c0.312,-1.022 0.469,-2.968 0.469,-5.836l-0,-0.032Z" style="fill:#375a64;fill-rule:nonzero;"/><path d="M1454.05,256.448c0,2.249 -1.823,4.072 -4.072,4.072c-2.002,0 -4.283,0 -5.694,0c-0.359,0 -0.703,-0.142 -0.957,-0.396c-0.254,-0.254 -0.397,-0.599 -0.397,-0.958c0,-0.001 0,-0.003 0,-0.004c-0.001,-0.804 -0.464,-1.535 -1.19,-1.879c-0.726,-0.345 -1.586,-0.241 -2.209,0.267c-0.971,0.842 -2.023,1.535 -3.141,2.097c-2.513,1.264 -5.048,1.896 -7.605,1.896c-5.198,-0 -9.65,-2.095 -13.357,-6.284c-3.706,-4.19 -5.56,-10.034 -5.56,-17.533c0,-7.669 1.804,-13.498 5.411,-17.489c3.607,-3.991 8.166,-5.986 13.677,-5.986c2.629,-0 5.074,0.568 7.335,1.705c1.212,0.592 2.644,0.517 3.789,-0.199c1.144,-0.715 1.839,-1.969 1.839,-3.318c0.159,-3.499 0.159,-7.437 0.159,-10.306c0,-2.249 1.823,-4.072 4.072,-4.072c1.236,-0 2.593,-0 3.828,-0c2.249,-0 4.072,1.823 4.072,4.072c0,11.308 0,43.007 0,54.315Zm-31.954,-19.531c0,4.829 0.668,8.322 2.003,10.481c1.931,3.124 4.629,4.686 8.095,4.686c2.755,0 5.098,-1.171 7.03,-3.515c1.931,-2.343 2.897,-5.844 2.897,-10.502c-0,-5.198 -0.938,-8.94 -2.812,-11.226c-1.875,-2.287 -4.275,-3.43 -7.201,-3.43c-2.84,-0 -5.219,1.129 -7.136,3.387c-1.917,2.258 -2.876,5.631 -2.876,10.119Z" style="fill:#375a64;fill-rule:nonzero;"/><path d="M1475.88,226.706c-0.875,1.348 -2.474,2.039 -4.056,1.754c-0.954,-0.091 -2.017,-0.282 -3.051,-0.469c-1.334,-0.24 -2.462,-1.128 -3.007,-2.369c-0.546,-1.241 -0.438,-2.672 0.287,-3.817c1.19,-1.769 2.556,-3.254 4.183,-4.401c2.983,-2.102 7.414,-3.153 13.293,-3.153c5.34,-0 9.317,0.632 11.93,1.896c2.613,1.264 4.452,2.868 5.517,4.814c1.064,1.943 1.597,5.508 1.598,10.695c-0,0.013 -0,0.026 -0,0.039c-0.005,0.553 -0.122,13.36 -0.128,13.936c0,0.013 0,0.025 0,0.038c0.001,3.967 0.192,6.894 0.575,8.78c0.069,0.337 0.148,0.678 0.237,1.023c0.3,1.213 0.026,2.497 -0.745,3.482c-0.77,0.984 -1.951,1.559 -3.201,1.559c-1.058,0.007 -2.119,0.007 -3.047,0.007c-1.799,0.001 -3.386,-1.179 -3.903,-2.902c-0.058,-0.204 -0.12,-0.415 -0.184,-0.634c-0.199,-0.71 -0.341,-1.179 -0.426,-1.406c-2.045,1.988 -4.232,3.48 -6.561,4.474c-2.329,0.994 -4.815,1.491 -7.456,1.491c-4.658,-0 -8.329,-1.264 -11.014,-3.792c-2.684,-2.528 -4.026,-5.723 -4.026,-9.586c0,-2.557 0.611,-4.836 1.832,-6.838c1.222,-2.003 2.933,-3.537 5.134,-4.602c2.201,-1.065 5.376,-1.995 9.522,-2.791c5.596,-1.05 9.473,-2.03 11.632,-2.939c-0,-0 -0,-0 -0,-0c-0,-0.011 -0,-1.193 -0,-1.193c-0,-2.301 -0.568,-3.941 -1.704,-4.921c-1.137,-0.98 -3.281,-1.47 -6.434,-1.47c-2.13,-0 -3.792,0.419 -4.985,1.257c-0.677,0.475 -1.281,1.155 -1.812,2.038Zm14.935,14.44c-0.002,-0.552 -0.261,-1.071 -0.7,-1.404c-0.44,-0.333 -1.01,-0.442 -1.541,-0.294c-1.356,0.354 -3.037,0.747 -5.045,1.176c-3.323,0.71 -5.496,1.406 -6.518,2.087c-1.563,1.108 -2.344,2.514 -2.344,4.218c0,1.676 0.625,3.125 1.875,4.346c1.25,1.221 2.84,1.832 4.772,1.832c2.158,-0 4.218,-0.71 6.178,-2.13c1.448,-1.08 2.4,-2.4 2.854,-3.963c0.313,-1.022 0.469,-2.968 0.469,-5.836l-0,-0.032Z" style="fill:#375a64;fill-rule:nonzero;"/><path d="M1522.44,244.415c-1.918,0 -3.524,-1.455 -3.711,-3.365c-0.754,-7.685 -2.554,-26.027 -2.761,-28.135c-0.012,-0.132 -0.019,-0.265 -0.019,-0.397c0,-1.099 0,-6.506 0,-10.385c0,-2.249 1.823,-4.072 4.072,-4.072c1.533,-0 3.275,-0 4.808,-0c2.249,-0 4.072,1.823 4.072,4.072c0,3.882 0,9.295 0,10.387c0,0.131 -0.006,0.262 -0.019,0.393c-0.257,2.658 -3.049,31.502 -3.049,31.502l-3.393,0Zm-1.908,16.105c-2.249,0 -4.072,-1.823 -4.072,-4.072c0,-1.235 0,-2.592 0,-3.828c0,-2.249 1.823,-4.072 4.072,-4.072c1.236,0 2.593,0 3.828,0c2.249,0 4.072,1.823 4.072,4.072c0,1.236 0,2.593 0,3.828c0,2.249 -1.823,4.072 -4.072,4.072l-3.828,0Z" style="fill:#375a64;fill-rule:nonzero;"/></g></g></svg>