<?xml version="1.0" encoding="UTF-8" standalone="no"?><!DOCTYPE svg PUBLIC "-//W3C//DTD SVG 1.1//EN" "http://www.w3.org/Graphics/SVG/1.1/DTD/svg11.dtd"><svg width="100%" height="100%" viewBox="0 0 2084 2084" version="1.1" xmlns="http://www.w3.org/2000/svg" xmlns:xlink="http://www.w3.org/1999/xlink" xml:space="preserve" xmlns:serif="http://www.serif.com/" style="fill-rule:evenodd;clip-rule:evenodd;stroke-linejoin:round;stroke-miterlimit:2;"><g id="Background-Complete" serif:id="Background Complete"><path d="M280.92,833.293l-34.542,-34.275l34.275,-34.542l-19.842,-19.691l-34.279,34.541l-34.537,-34.275l-19.692,19.842l34.537,34.275l-34.275,34.542l19.846,19.691l34.275,-34.541l34.542,34.279l19.692,-19.846Z" style="fill:#f5f5f5;fill-rule:nonzero;"/><path d="M1055.5,193.638l-34.542,-34.275l34.279,-34.542l-19.845,-19.692l-34.275,34.542l-34.542,-34.275l-19.692,19.842l34.542,34.275l-34.279,34.541l19.846,19.692l34.275,-34.542l34.541,34.279l19.692,-19.845Z" style="fill:#f5f5f5;fill-rule:nonzero;"/><path d="M1892.53,855.955l-34.541,-34.275l34.279,-34.541l-19.846,-19.692l-34.275,34.542l-34.542,-34.275l-19.691,19.841l34.541,34.275l-34.279,34.542l19.846,19.692l34.275,-34.542l34.542,34.279l19.691,-19.846Z" style="fill:#e1e1e1;fill-rule:nonzero;"/><path d="M1784.32,856.373l19.7,19.545l34.275,-34.541l0.075,0.075l34.463,34.2l19.55,-19.696l-34.542,-34.275l0.071,-0.075l34.204,-34.467l-19.696,-19.546l-34.279,34.542l-0.075,-0.075l-34.467,-34.204l-19.545,19.7l34.545,34.275l-0.075,0.075l-34.204,34.466Zm19.7,19.838l-0.075,-0.071l-19.917,-19.766l0.071,-0.075l34.205,-34.467l-34.542,-34.275l0.075,-0.075l19.762,-19.917l0.075,0.075l34.467,34.204l34.279,-34.545l0.071,0.075l19.917,19.766l-0.071,0.071l-34.204,34.471l34.541,34.275l-0.075,0.071l-19.766,19.921l-0.071,-0.076l-34.467,-34.199l-34.275,34.537Z" style="fill:#e1e1e1;fill-rule:nonzero;"/><path d="M900.045,1600.08l-34.542,-34.275l34.279,-34.542l-19.845,-19.692l-34.275,34.542l-34.542,-34.279l-19.692,19.846l34.542,34.275l-34.279,34.541l19.846,19.692l34.275,-34.542l34.541,34.275l19.692,-19.841Z" style="fill:#f5f5f5;fill-rule:nonzero;"/><path d="M263.649,1483.21l-23.558,-23.375l23.379,-23.558l-13.533,-13.429l-23.38,23.554l-23.554,-23.375l-13.433,13.533l23.558,23.38l-23.375,23.554l13.534,13.429l23.375,-23.554l23.558,23.375l13.429,-13.534Z" style="fill:#e1e1e1;fill-rule:nonzero;"/><path d="M189.899,1483.49l13.388,13.287l23.375,-23.558l0.075,0.075l23.483,23.304l13.283,-13.388l-23.558,-23.379l0.075,-0.071l23.304,-23.487l-13.387,-13.279l-23.379,23.554l-0.071,-0.075l-23.484,-23.3l-13.283,13.383l23.554,23.379l-0.071,0.071l-23.304,23.483Zm13.388,13.58l-0.075,-0.075l-13.604,-13.505l0.07,-0.07l23.305,-23.484l-23.559,-23.379l0.075,-0.071l13.504,-13.608l0.071,0.075l23.484,23.304l23.379,-23.558l0.071,0.075l13.608,13.5l-0.075,0.075l-23.3,23.483l23.554,23.379l-0.075,0.071l-13.5,13.608l-0.075,-0.075l-23.483,-23.3l-23.375,23.555Z" style="fill:#e1e1e1;fill-rule:nonzero;"/><path d="M304.28,1229.03l0,-204.275l144.967,-145.729l202.95,0l143.441,143.442l0,202.804l-142.187,142.187l-203.442,0l-145.729,-138.429Z" style="fill:#fff;fill-rule:nonzero;"/><path d="M304.28,1229.03c-0,-0 0.912,0.779 2.612,2.35c1.721,1.612 4.225,3.945 7.504,7.004c6.604,6.212 16.304,15.341 28.859,27.158c25.091,23.725 61.562,58.208 107.245,101.4l-0.491,-0.196c57.046,-0.062 126.137,-0.137 203.441,-0.225l-0.662,0.275c43.296,-43.346 91.317,-91.416 142.108,-142.266l-0.308,0.741c-0.013,-63.946 -0.021,-132.316 -0.033,-202.804l0.316,0.767l-2.558,-2.559c-48.654,-48.67 -95.896,-95.925 -140.858,-140.904l0.741,0.309c-72.229,-0.042 -140.371,-0.08 -202.95,-0.113l0.667,-0.275c-55.15,55.317 -104.129,104.446 -145.125,145.567l0.208,-0.504c-0.146,63.979 -0.262,114.991 -0.346,150.066c-0.079,17.513 -0.141,31.029 -0.183,40.234c-0.042,4.55 -0.071,8.02 -0.092,10.412c-0.033,2.346 -0.095,3.563 -0.095,3.563c-0,-0 -0.063,-1.163 -0.092,-3.484c-0.021,-2.375 -0.054,-5.825 -0.096,-10.341c-0.042,-9.188 -0.104,-22.68 -0.183,-40.15c-0.084,-35.134 -0.2,-86.221 -0.346,-150.3l-0,-0.292l0.208,-0.213c40.909,-41.212 89.779,-90.45 144.809,-145.887l0.275,-0.279l0.391,-0c62.579,-0.034 130.721,-0.071 202.95,-0.109l0.438,0l0.308,0.309c44.979,44.962 92.233,92.204 140.908,140.858c0.875,0.875 1.75,1.75 2.555,2.558l0.316,0.317l0,0.45c-0.012,70.488 -0.025,138.858 -0.033,202.804l-0,0.434l-0.308,0.308c-50.85,50.792 -98.921,98.812 -142.267,142.108l-0.275,0.275l-0.388,0c-77.304,-0.087 -146.395,-0.162 -203.441,-0.225l-0.288,0l-0.204,-0.196c-45.55,-43.47 -81.917,-78.175 -106.937,-102.054c-12.421,-11.908 -22.013,-21.108 -28.546,-27.371c-3.2,-3.095 -5.646,-5.458 -7.329,-7.087c-1.638,-1.6 -2.425,-2.433 -2.425,-2.433" style="fill:#e1e1e1;fill-rule:nonzero;"/><path d="M329.508,1219.35l0,-185.588l131.705,-132.396l184.383,0l130.321,130.317l-0,184.25l-129.184,129.183l-184.829,0l-132.396,-125.766Z" style="fill:#ececec;fill-rule:nonzero;"/><path d="M329.508,1219.35c0,-0 0.838,0.708 2.38,2.133c1.575,1.467 3.85,3.583 6.829,6.358c6.008,5.65 14.825,13.938 26.229,24.663c22.808,21.554 55.946,52.871 97.45,92.096l-0.492,-0.196c51.834,-0.063 114.6,-0.142 184.829,-0.225l-0.662,0.275c39.337,-39.384 82.958,-83.063 129.1,-129.263l-0.304,0.742c-0.013,-58.096 -0.025,-120.208 -0.038,-184.25l0.317,0.767c-0.729,-0.73 -1.525,-1.525 -2.321,-2.321c-44.204,-44.221 -87.121,-87.154 -127.971,-128.017l0.742,0.304c-65.621,-0.037 -127.529,-0.075 -184.383,-0.108l0.666,-0.275c-50.108,50.25 -94.612,94.879 -131.862,132.233l0.208,-0.504c-0.146,58.117 -0.262,104.454 -0.346,136.329c-0.079,15.904 -0.141,28.184 -0.183,36.554c-0.042,4.13 -0.071,7.284 -0.092,9.463c-0.033,2.133 -0.096,3.242 -0.096,3.242c0,-0 -0.062,-1.055 -0.095,-3.163c-0.021,-2.167 -0.05,-5.296 -0.092,-9.392c-0.042,-8.354 -0.104,-20.608 -0.183,-36.475c-0.084,-31.929 -0.2,-78.341 -0.346,-136.558l-0,-0.292l0.208,-0.212c37.163,-37.446 81.558,-82.183 131.546,-132.554l0.275,-0.279l0.392,-0c56.854,-0.034 118.762,-0.071 184.383,-0.109l0.437,-0.004l0.309,0.313c40.862,40.845 83.796,83.766 128.016,127.97c0.796,0.796 1.592,1.588 2.325,2.321l0.317,0.317l0,0.45c-0.012,64.042 -0.025,126.154 -0.037,184.25l-0,0.437l-0.309,0.309c-46.196,46.141 -89.875,89.762 -129.258,129.096l-0.275,0.279l-0.388,-0c-70.229,-0.088 -132.995,-0.163 -184.829,-0.229l-0.283,-0l-0.204,-0.196c-41.375,-39.5 -74.409,-71.038 -97.146,-92.746c-11.271,-10.817 -19.979,-19.175 -25.917,-24.875c-2.9,-2.813 -5.116,-4.958 -6.65,-6.446c-1.483,-1.45 -2.196,-2.212 -2.196,-2.212" style="fill:#e1e1e1;fill-rule:nonzero;"/><rect x="425.604" y="1077.31" width="264.921" height="82.338" style="fill:#fff;"/><path d="M1570.8,449.822l0,-117.167l83.146,-83.583l116.409,0l82.27,82.271l0,116.325l-81.554,81.55l-116.687,-0l-83.584,-79.396Z" style="fill:#fff;fill-rule:nonzero;"/><path d="M1570.8,449.822c0,0 0.55,0.438 1.538,1.333c1.037,0.955 2.475,2.275 4.342,3.996c3.845,3.592 9.42,8.804 16.616,15.534c14.45,13.612 35.384,33.337 61.579,58.02l-0.487,-0.195c32.733,-0.063 72.358,-0.142 116.683,-0.225l-0.662,0.27c24.829,-24.875 52.358,-52.454 81.475,-81.629l-0.309,0.738c-0.008,-36.675 -0.02,-75.888 -0.033,-116.321l0.317,0.767c-0.463,-0.459 -0.963,-0.963 -1.467,-1.463c-27.904,-27.921 -54.996,-55.029 -80.783,-80.829l0.746,0.308c-41.43,-0.041 -80.509,-0.079 -116.405,-0.112l0.667,-0.275c-31.65,31.691 -59.762,59.846 -83.308,83.425l0.208,-0.504c-0.146,36.629 -0.262,65.862 -0.346,86.02c-0.079,10.009 -0.141,17.759 -0.183,23.096c-0.042,2.575 -0.071,4.559 -0.092,5.988c-0.033,1.35 -0.096,2.058 -0.096,2.058c0,0 -0.062,-0.654 -0.091,-1.979c-0.025,-1.413 -0.054,-3.371 -0.096,-5.921c-0.042,-5.317 -0.104,-13.042 -0.183,-23.012c-0.084,-20.213 -0.2,-49.521 -0.346,-86.25l-0,-0.296l0.208,-0.213c23.454,-23.666 51.458,-51.925 82.988,-83.741l0.275,-0.28l0.395,0c35.896,-0.033 74.975,-0.07 116.405,-0.108l0.433,0l0.308,0.308c25.804,25.788 52.913,52.88 80.829,80.78l1.467,1.466l0.317,0.321l-0,0.446c-0.009,40.433 -0.021,79.646 -0.034,116.321l0,0.437l-0.308,0.309c-29.175,29.116 -56.758,56.645 -81.633,81.475l-0.275,0.275l-0.388,-0.005c-44.325,-0.083 -83.95,-0.162 -116.683,-0.225l-0.288,0l-0.204,-0.195c-26.066,-24.959 -46.896,-44.905 -61.271,-58.671c-7.062,-6.821 -12.537,-12.104 -16.308,-15.746c-1.792,-1.758 -3.171,-3.108 -4.167,-4.083c-0.925,-0.921 -1.35,-1.413 -1.35,-1.413" style="fill:#e1e1e1;fill-rule:nonzero;"/><path d="M1585.27,444.271l-0,-106.446l75.542,-75.937l105.754,-0l74.746,74.746l-0,105.679l-74.092,74.092l-106.013,-0l-75.937,-72.134Z" style="fill:#ececec;fill-rule:nonzero;"/><path d="M1585.27,444.271c-0,0 0.504,0.396 1.404,1.204c0.95,0.875 2.263,2.08 3.954,3.63c3.508,3.27 8.575,8.004 15.113,14.1c13.141,12.375 32.158,30.279 55.958,52.683l-0.492,-0.196c29.746,-0.062 65.742,-0.137 106.013,-0.225l-0.663,0.275c22.554,-22.6 47.563,-47.662 74.013,-74.171l-0.308,0.742c-0.009,-33.325 -0.021,-68.95 -0.034,-105.679l0.317,0.766c-0.421,-0.42 -0.875,-0.875 -1.333,-1.333c-25.35,-25.367 -49.959,-49.992 -73.388,-73.437l0.742,0.308c-37.634,-0.038 -73.142,-0.075 -105.754,-0.108l0.666,-0.28c-28.758,28.788 -54.304,54.359 -75.7,75.78l0.209,-0.505c-0.146,33.267 -0.263,59.813 -0.346,78.146c-0.079,9.079 -0.142,16.117 -0.184,20.984c-0.041,2.329 -0.071,4.133 -0.091,5.441c-0.034,1.229 -0.096,1.875 -0.096,1.875c-0,0 -0.063,-0.591 -0.092,-1.796c-0.025,-1.291 -0.054,-3.075 -0.096,-5.375c-0.041,-4.845 -0.104,-11.858 -0.183,-20.9c-0.083,-18.387 -0.2,-45.012 -0.346,-78.375l0,-0.291l0.208,-0.213c21.309,-21.512 46.746,-47.187 75.38,-76.096l0.275,-0.279l0.395,0c32.613,-0.033 68.121,-0.071 105.755,-0.112l0.437,-0l0.308,0.308c23.442,23.429 48.071,48.042 73.438,73.392c0.454,0.454 0.912,0.912 1.329,1.333l0.321,0.317l-0,0.45c-0.013,36.729 -0.025,72.354 -0.038,105.679l0,0.433l-0.308,0.309c-26.508,26.45 -51.567,51.458 -74.171,74.012l-0.275,0.275l-0.387,0c-40.271,-0.083 -76.267,-0.162 -106.013,-0.225l-0.287,0l-0.204,-0.196c-23.667,-22.683 -42.58,-40.812 -55.65,-53.337c-6.4,-6.188 -11.367,-10.992 -14.8,-14.313c-1.613,-1.587 -2.867,-2.821 -3.775,-3.712c-0.842,-0.838 -1.221,-1.288 -1.221,-1.288" style="fill:#e1e1e1;fill-rule:nonzero;"/><rect x="1640.38" y="362.796" width="151.95" height="47.229" style="fill:#fff;"/><path d="M1230.05,1408.6l-0,-232.088l164.704,-165.57l230.583,-0l162.971,162.97l-0,230.417l-161.546,161.546l-231.142,-0l-165.57,-157.275Z" style="fill:#fff;fill-rule:nonzero;"/><path d="M1230.05,1408.6c-0,-0 1.029,0.892 2.954,2.675c1.946,1.821 4.787,4.479 8.512,7.962c7.492,7.055 18.509,17.434 32.767,30.871c28.496,26.959 69.929,66.154 121.825,115.25l-0.488,-0.196c64.809,-0.062 143.309,-0.137 231.138,-0.225l-0.658,0.275c49.191,-49.241 103.754,-103.854 161.466,-161.625l-0.308,0.742c-0.013,-72.654 -0.025,-150.329 -0.038,-230.417l0.321,0.767c-0.916,-0.917 -1.912,-1.908 -2.904,-2.904c-55.283,-55.296 -108.958,-108.988 -160.042,-160.088l0.742,0.309c-82.067,-0.042 -159.487,-0.079 -230.583,-0.113l0.666,-0.275c-62.654,62.859 -118.295,118.688 -164.862,165.409l0.208,-0.505c-0.146,72.705 -0.262,130.675 -0.346,170.517c-0.079,19.9 -0.141,35.263 -0.183,45.704c-0.042,5.175 -0.071,9.121 -0.096,11.825c-0.029,2.663 -0.091,4.042 -0.091,4.042c-0,-0 -0.063,-1.325 -0.092,-3.963c-0.025,-2.687 -0.054,-6.612 -0.096,-11.758c-0.042,-10.421 -0.104,-25.758 -0.183,-45.621c-0.079,-39.896 -0.2,-97.941 -0.346,-170.746l-0,-0.291l0.208,-0.213c46.479,-46.812 102.013,-102.75 164.542,-165.729l0.279,-0.279l0.392,-0c71.096,-0.033 148.516,-0.071 230.583,-0.108l0.438,-0l0.308,0.308c51.1,51.087 104.787,104.758 160.087,160.042l3.221,3.22l0,0.45c-0.012,80.088 -0.025,157.763 -0.037,230.417l-0,0.433l-0.304,0.309c-57.771,57.712 -112.384,112.275 -161.625,161.466l-0.28,0.275l-0.387,0c-87.829,-0.083 -166.329,-0.162 -231.138,-0.225l-0.287,0l-0.204,-0.195c-51.767,-49.375 -93.096,-88.792 -121.521,-115.905c-14.125,-13.529 -25.033,-23.979 -32.454,-31.083c-3.646,-3.521 -6.429,-6.204 -8.338,-8.046c-1.862,-1.812 -2.766,-2.758 -2.766,-2.758" style="fill:#e1e1e1;fill-rule:nonzero;"/><path d="M1264.8,1397.6l-0,-210.854l149.637,-150.425l209.488,-0l148.062,148.062l0,209.338l-146.771,146.767l-209.991,-0l-150.425,-142.888Z" style="fill:#e1e1e1;fill-rule:nonzero;"/><path d="M1264.8,1397.6c-0,-0 0.941,0.808 2.691,2.429c1.779,1.658 4.359,4.066 7.746,7.229c6.813,6.412 16.821,15.837 29.779,28.033c25.9,24.492 63.546,60.092 110.696,104.679l-0.487,-0.195c58.883,-0.063 130.2,-0.138 209.991,-0.226l-0.662,0.276c44.692,-44.742 94.258,-94.363 146.687,-146.846l-0.304,0.741c-0.012,-66.008 -0.025,-136.579 -0.037,-209.337l0.316,0.767c-0.829,-0.834 -1.733,-1.734 -2.637,-2.638c-50.221,-50.242 -98.983,-99.021 -145.396,-145.446l0.742,0.308c-74.559,-0.041 -144.896,-0.075 -209.488,-0.108l0.667,-0.279c-56.925,57.104 -107.483,107.817 -149.796,150.262l0.208,-0.504c-0.145,66.042 -0.262,118.7 -0.345,154.904c-0.08,18.075 -0.142,32.034 -0.184,41.525c-0.041,4.7 -0.071,8.284 -0.091,10.75c-0.034,2.421 -0.096,3.675 -0.096,3.675c-0,0 -0.063,-1.2 -0.092,-3.595c-0.025,-2.45 -0.054,-6.013 -0.096,-10.68c-0.041,-9.475 -0.104,-23.404 -0.183,-41.445c-0.079,-36.259 -0.2,-88.992 -0.346,-155.134l0,-0.296l0.208,-0.208c42.225,-42.537 92.671,-93.358 149.475,-150.583l0.275,-0.279l0.396,-0c64.592,-0.034 134.929,-0.071 209.488,-0.109l0.437,0l0.309,0.309c46.425,46.412 95.204,95.175 145.441,145.395l2.959,2.959l-0,0.45c-0.013,72.758 -0.025,143.329 -0.038,209.337l0,0.434l-0.308,0.308c-52.484,52.429 -102.104,101.996 -146.846,146.687l-0.275,0.275l-0.388,0c-79.791,-0.087 -151.108,-0.162 -209.991,-0.225l-0.288,0l-0.204,-0.195c-47.021,-44.867 -84.562,-80.688 -110.392,-105.334c-12.82,-12.287 -22.725,-21.783 -29.466,-28.246c-3.309,-3.2 -5.834,-5.637 -7.567,-7.316c-1.692,-1.646 -2.508,-2.509 -2.508,-2.509" style="fill:#e1e1e1;fill-rule:nonzero;"/><rect x="1367.9" y="1236.22" width="300.992" height="93.55" style="fill:#fff;"/></g><g id="Floor"></g><g id="Speech-Bubble" serif:id="Speech Bubble"><path d="M1304.86,373.472l33.767,-10.621c17.638,6.75 37.296,8.854 57.204,5.079c57.259,-10.854 94.863,-66.137 83.992,-123.471c-10.871,-57.337 -66.1,-95.017 -123.354,-84.162c-57.259,10.854 -94.859,66.133 -83.992,123.47c4.542,23.942 16.833,44.438 33.758,59.421l-0.054,-0.029l-1.321,30.313Z" style="fill:#fff;fill-rule:nonzero;"/><path d="M1304.86,373.471c-0.025,0.034 -0.016,-0.604 0.009,-1.883c0.037,-1.392 0.087,-3.3 0.154,-5.754c0.167,-5.267 0.408,-12.875 0.717,-22.692c0.008,-0.242 0.212,-0.433 0.454,-0.425c0.062,0.004 0.133,0.025 0.187,0.05l0.054,0.025l-0.495,0.725c-10.005,-8.767 -21.946,-22.592 -29.421,-42.546c-3.775,-9.908 -6.096,-21.3 -6.534,-33.546c-0.45,-12.237 1.221,-25.4 5.734,-38.391c4.487,-12.979 11.808,-25.754 21.937,-36.871c10.1,-11.113 23.025,-20.538 37.938,-26.763c14.958,-6.05 31.779,-8.883 48.783,-7.604c17.029,1.113 34.054,6.888 49.029,16.425c29.429,18.525 47.179,51.034 48.988,82.45c1.079,15.734 -1.417,31.159 -6.617,44.909c-5.187,13.779 -13.033,25.883 -22.312,35.675c-18.671,19.675 -42.475,29.75 -63.305,32.304c-21.012,2.729 -38.966,-1.284 -51.704,-6.267l0.309,0.008c-11.021,3.338 -19.521,5.909 -25.375,7.68c-2.75,0.82 -4.88,1.45 -6.417,1.908c-1.429,0.421 -2.113,0.583 -2.113,0.583c0,0 0.788,-0.296 2.255,-0.787c1.55,-0.517 3.7,-1.229 6.479,-2.15c5.741,-1.879 14.079,-4.6 24.887,-8.134c0.104,-0.033 0.221,-0.025 0.313,0.009c12.691,4.775 30.466,8.562 51.175,5.721c20.537,-2.667 43.891,-12.721 62.162,-32.13c9.084,-9.658 16.746,-21.579 21.8,-35.116c5.067,-13.513 7.475,-28.642 6.388,-44.063c-1.838,-30.816 -19.25,-62.616 -48.084,-80.775c-14.67,-9.337 -31.341,-15.008 -48.025,-16.108c-16.654,-1.271 -33.154,1.479 -47.829,7.383c-14.629,6.075 -27.329,15.284 -37.275,26.167c-9.975,10.879 -17.212,23.404 -21.675,36.142c-4.491,12.75 -6.196,25.691 -5.821,37.741c0.359,12.063 2.575,23.313 6.225,33.113c7.23,19.741 18.892,33.537 28.692,42.375c0.183,0.158 0.204,0.437 0.042,0.621c-0.134,0.154 -0.359,0.191 -0.534,0.104l-0.054,-0.029l0.642,-0.375c-0.538,9.675 -0.958,17.17 -1.246,22.366c-0.15,2.5 -0.271,4.446 -0.354,5.867c-0.088,1.333 -0.163,2.058 -0.163,2.058" style="fill:#1a2e35;fill-rule:nonzero;"/><path d="M1422.97,294.649l-28.917,-28.696l28.696,-28.921l-16.616,-16.483l-28.696,28.916l-28.917,-28.695l-16.487,16.612l28.916,28.696l-28.696,28.921l16.617,16.487l28.696,-28.921l28.917,28.696l16.487,-16.612Z" style="fill:#375a64;fill-rule:nonzero;"/></g><g id="Sign"><path d="M254.105,564.523l0,-266.208l188.917,-189.917l264.488,-0l186.933,186.933l-0,264.292l-185.3,185.3l-265.125,-0l-189.913,-180.4Z" style="fill:#fff;fill-rule:nonzero;"/><path d="M254.105,564.523c0,-0 1.171,1.025 3.375,3.075c2.221,2.083 5.479,5.133 9.754,9.137c8.575,8.092 21.204,20.005 37.558,35.425c32.671,30.925 80.192,75.909 139.717,132.246l-0.491,-0.196c74.337,-0.062 164.379,-0.137 265.125,-0.225l-0.663,0.275c56.429,-56.479 119.017,-119.12 185.221,-185.379l-0.308,0.742c-0.013,-83.333 -0.025,-172.429 -0.038,-264.292l0.317,0.767c-1.046,-1.05 -2.188,-2.192 -3.329,-3.333c-63.413,-63.425 -124.98,-125.009 -183.576,-183.621l0.742,0.308c-94.133,-0.037 -182.933,-0.075 -264.483,-0.108l0.666,-0.279c-71.858,72.112 -135.674,136.154 -189.079,189.754l0.209,-0.504c-0.146,83.408 -0.263,149.908 -0.346,195.6c-0.079,22.833 -0.142,40.458 -0.183,52.416c-0.042,5.946 -0.071,10.475 -0.092,13.563c-0.033,3.05 -0.096,4.629 -0.096,4.629c0,-0 -0.062,-1.525 -0.092,-4.55c-0.02,-3.071 -0.054,-7.579 -0.095,-13.492c-0.042,-11.941 -0.105,-29.537 -0.184,-52.337c-0.079,-45.746 -0.2,-112.321 -0.346,-195.829l0,-0.296l0.209,-0.213c53.316,-53.687 117.025,-117.837 188.758,-190.071l0.279,-0.275l0.392,-0.004c81.55,-0.033 170.35,-0.071 264.483,-0.108l0.438,-0l0.308,0.308c58.613,58.6 120.196,120.163 183.621,183.575l3.65,3.65l-0,0.45c-0.013,91.863 -0.025,180.959 -0.038,264.292l0,0.437l-0.304,0.309c-66.258,66.2 -128.9,128.787 -185.379,185.216l-0.275,0.275l-0.387,0c-100.746,-0.087 -190.788,-0.162 -265.126,-0.225l-0.283,0l-0.204,-0.195c-59.396,-56.621 -106.812,-101.821 -139.412,-132.9c-16.217,-15.513 -28.742,-27.5 -37.246,-35.634c-4.196,-4.046 -7.396,-7.125 -9.579,-9.225c-2.142,-2.079 -3.188,-3.158 -3.188,-3.158" style="fill:#1a2e35;fill-rule:nonzero;"/><path d="M286.983,551.911l0,-241.854l171.638,-172.542l240.287,-0l169.829,169.829l0,240.117l-168.345,168.346l-240.871,-0l-172.538,-163.896Z" style="fill:#ff735d;fill-rule:nonzero;"/><path d="M286.983,551.911c-0,-0 1.071,0.929 3.075,2.791c2.025,1.896 4.983,4.667 8.867,8.296c7.8,7.354 19.279,18.171 34.137,32.175c29.696,28.096 72.871,68.95 126.95,120.117l-0.487,-0.196c67.533,-0.062 149.337,-0.137 240.866,-0.225l-0.662,0.275c51.266,-51.312 108.125,-108.225 168.266,-168.425l-0.304,0.742c-0.012,-75.709 -0.025,-156.659 -0.037,-240.117l0.316,0.767c-0.954,-0.954 -1.987,-1.988 -3.025,-3.025c-57.608,-57.625 -113.541,-113.575 -166.779,-166.825l0.742,0.308c-85.521,-0.042 -166.196,-0.075 -240.288,-0.112l0.667,-0.275c-65.287,65.508 -123.271,123.687 -171.796,172.379l0.209,-0.504c-0.146,75.771 -0.263,136.179 -0.346,177.696c-0.079,20.737 -0.142,36.75 -0.184,47.625c-0.041,5.395 -0.07,9.508 -0.091,12.325c-0.034,2.774 -0.096,4.208 -0.096,4.208c-0,-0 -0.063,-1.383 -0.092,-4.129c-0.021,-2.8 -0.054,-6.888 -0.096,-12.255c-0.041,-10.858 -0.104,-26.841 -0.183,-47.545c-0.083,-41.571 -0.2,-102.059 -0.346,-177.925l0,-0.296l0.209,-0.213c48.437,-48.779 106.312,-107.066 171.475,-172.695l0.275,-0.28l0.395,0c74.092,-0.033 154.767,-0.07 240.288,-0.108l0.437,0l0.309,0.308c53.25,53.238 109.2,109.171 166.825,166.78c1.037,1.037 2.071,2.07 3.025,3.025l0.321,0.316l-0,0.45c-0.013,83.459 -0.025,164.409 -0.038,240.117l0,0.433l-0.308,0.309c-60.2,60.141 -117.109,117 -168.425,168.266l-0.275,0.275l-0.388,0c-91.529,-0.083 -173.333,-0.162 -240.866,-0.225l-0.288,0l-0.204,-0.196c-53.95,-51.45 -97.021,-92.52 -126.642,-120.77c-14.725,-14.096 -26.1,-24.984 -33.829,-32.384c-3.804,-3.671 -6.704,-6.471 -8.692,-8.387c-1.941,-1.888 -2.887,-2.871 -2.887,-2.871" style="fill:#1a2e35;fill-rule:nonzero;"/><path d="M670.03,261.174c-4.029,-1.937 -9.504,-2.179 -12.883,0.809c-3.046,2.687 -4.825,6.066 -6.758,9.583c-6.742,12.287 -12.946,24.867 -19.542,37.237c-0.829,1.55 -2.587,3.138 -4.237,3.625c-21.859,6.5 -38.58,27.43 -40.18,50.329c-0.037,0.505 -0.291,0.992 -0.641,1.476c-0.879,1.212 -2.721,1.079 -3.442,-0.234c-0.308,-0.558 -0.517,-1.112 -0.479,-1.646c1.7,-24.312 19.283,-46.65 42.233,-53.946c2.592,-0.825 4.354,-3.208 4.338,-5.924c-0.05,-8.451 0.066,-16.901 0.071,-25.351c0.016,-23.679 0.1,-47.358 -0.1,-71.037c-0.025,-3.213 -0.821,-6.833 -2.467,-9.529c-3.05,-5 -9.379,-6.592 -14.963,-4.704c-5.604,1.891 -8.812,6.316 -8.825,12.571c-0.041,25.433 -0.012,50.862 -0.045,76.295c-0,0.429 -0.025,0.854 -0.063,1.284c-0.154,1.737 -2.271,2.525 -3.483,1.279c-0,-0 -1.309,-1.054 -1.088,-2.804l-0.171,-15.967c-0.116,-23.675 0.009,-47.358 -0.179,-71.033c-0.025,-2.846 -0.891,-6.038 -2.379,-8.442c-3.033,-4.892 -9.333,-6.625 -14.983,-4.863c-5.421,1.688 -8.913,6.405 -8.925,12.521c-0.063,23.554 -0.038,47.109 -0.046,70.659l-0.083,19.087c-0.284,0.525 -0.688,0.979 -1.134,1.413c-0.871,0.85 -2.275,0.77 -3.037,-0.18c-0.275,-0.341 -0.484,-0.691 -0.546,-1.07l-0.15,-18.038c0.096,-18.671 0.012,-37.337 0.054,-56.004c0.008,-4.888 -1.679,-8.821 -5.904,-11.429c-4.396,-2.713 -9.017,-2.929 -13.596,-0.559c-4.975,2.575 -6.937,6.93 -6.933,12.388c0.025,18.667 0.008,37.337 0.008,56.004l-0.004,12.821c0.021,2.883 0.121,5.771 -0.058,8.642c-0.075,1.245 -0.538,2.612 -1.271,3.591c-0.054,0.075 -0.175,0.129 -0.338,0.159c-1.187,0.237 -2.279,-0.725 -2.321,-1.93l-0.75,-62.558c-0.295,-7.55 -5.57,-12.796 -12.575,-12.725c-7.362,0.079 -12.325,5.325 -12.354,13.138c-0.029,9.27 0,18.541 -0.012,27.812l-0.163,58.913c0.138,15.408 -0.054,30.82 0.104,46.229c0.209,20.196 9.409,35.246 26.963,44.983c18.571,10.304 38.658,11.467 59.146,8.5c19.512,-2.825 33.525,-12.983 40.646,-31.85c10.908,-28.921 22.091,-57.737 32.716,-86.762c2.721,-7.434 4.413,-10.071 6.813,-17.663c2.625,-8.308 -2.054,-13.208 -5.984,-15.1" style="fill:#fff;fill-rule:nonzero;"/><g opacity="0.3"><path d="M289.872,554.783l429.416,-395.271l54.142,54.034l-423.913,398.341l-59.645,-57.104Z" style="fill:#fff;fill-rule:nonzero;"/></g><g opacity="0.3"><path d="M361.028,623.577l429.416,-395.271l14.713,17.292l-423.913,398.342l-20.216,-20.363Z" style="fill:#fff;fill-rule:nonzero;"/></g><g><path d="M422.964,506.756l0,-43.759c0,-3.417 1.225,-6.351 3.676,-8.801c2.45,-2.451 5.384,-3.676 8.801,-3.676l12.536,-0c3.418,-0 6.351,1.23 8.802,3.69c2.451,2.461 3.676,5.39 3.676,8.787l-0,43.759l-12.478,0l0,-25.013l-12.536,-0l0,25.013l-12.477,0Zm12.477,-31.223l12.536,0l0,-12.536c0,-1.698 -0.619,-3.158 -1.859,-4.378c-1.24,-1.221 -2.71,-1.831 -4.409,-1.831c-1.718,-0 -3.192,0.61 -4.422,1.831c-1.23,1.22 -1.846,2.68 -1.846,4.378l0,12.536Z" style="fill:#fff;fill-rule:nonzero;"/><path d="M516.422,494.279c-0.547,8.318 -4.706,12.477 -12.478,12.477l-12.536,0c-3.417,0 -6.351,-1.225 -8.801,-3.676c-2.451,-2.45 -3.676,-5.384 -3.676,-8.801l-0,-31.282c-0,-3.358 1.206,-6.277 3.617,-8.757c2.412,-2.48 5.365,-3.72 8.86,-3.72l12.536,-0c7.85,-0 12.009,4.159 12.478,12.477l-6.268,0c-0.488,-4.139 -2.558,-6.209 -6.21,-6.209l-6.268,-0c-1.718,-0 -3.192,0.61 -4.422,1.831c-1.231,1.22 -1.846,2.68 -1.846,4.378l0,31.282c0,1.679 0.61,3.134 1.831,4.364c1.22,1.23 2.699,1.845 4.437,1.845l6.268,0c3.671,0 5.741,-2.07 6.21,-6.209l6.268,-0Z" style="fill:#fff;fill-rule:nonzero;"/><path d="M534.898,506.756l-0,-56.236l31.223,-0l-0,6.268l-18.746,-0l0,18.745l12.536,0l0,6.21l-12.536,-0l0,18.745l18.746,0l-0,6.268l-31.223,0Z" style="fill:#fff;fill-rule:nonzero;"/><path d="M615.878,462.997l-6.21,0c-0.546,-4.178 -2.518,-6.268 -5.916,-6.268c-2.187,0 -3.837,0.528 -4.95,1.582c-1.113,1.054 -1.67,2.626 -1.67,4.716c0,1.562 0.616,3.026 1.846,4.393l13.239,14.879c2.441,2.734 3.661,5.673 3.661,8.817l-0,3.163c-0,3.378 -1.22,6.302 -3.661,8.772c-2.441,2.47 -5.38,3.705 -8.817,3.705l-6.268,0c-4.139,0 -7.254,-1.044 -9.343,-3.134c-2.089,-2.089 -3.134,-5.204 -3.134,-9.343l6.268,-0c-0.039,0.429 -0.059,0.771 -0.059,1.025c0,1.699 0.655,2.988 1.963,3.866c1.308,0.879 2.743,1.318 4.305,1.318c2.227,0 3.828,-0.537 4.804,-1.611c0.976,-1.074 1.464,-2.636 1.464,-4.686c0,-1.582 -0.615,-3.046 -1.845,-4.394l-13.239,-14.82c-2.441,-2.714 -3.661,-5.653 -3.661,-8.816l0,-3.164c0,-3.397 1.22,-6.326 3.661,-8.787c2.441,-2.46 5.38,-3.69 8.816,-3.69l6.268,-0c7.811,-0 11.97,4.159 12.478,12.477Z" style="fill:#fff;fill-rule:nonzero;"/><path d="M665.635,462.997l-6.209,0c-0.547,-4.178 -2.519,-6.268 -5.917,-6.268c-2.187,0 -3.837,0.528 -4.95,1.582c-1.113,1.054 -1.669,2.626 -1.669,4.716c-0,1.562 0.615,3.026 1.845,4.393l13.239,14.879c2.441,2.734 3.661,5.673 3.661,8.817l0,3.163c0,3.378 -1.22,6.302 -3.661,8.772c-2.441,2.47 -5.379,3.705 -8.816,3.705l-6.268,0c-4.14,0 -7.254,-1.044 -9.344,-3.134c-2.089,-2.089 -3.134,-5.204 -3.134,-9.343l6.268,-0c-0.039,0.429 -0.058,0.771 -0.058,1.025c-0,1.699 0.654,2.988 1.962,3.866c1.309,0.879 2.744,1.318 4.306,1.318c2.226,0 3.827,-0.537 4.803,-1.611c0.977,-1.074 1.465,-2.636 1.465,-4.686c-0,-1.582 -0.615,-3.046 -1.845,-4.394l-13.239,-14.82c-2.441,-2.714 -3.662,-5.653 -3.662,-8.816l0,-3.164c0,-3.397 1.221,-6.326 3.662,-8.787c2.44,-2.46 5.379,-3.69 8.816,-3.69l6.268,-0c7.81,-0 11.97,4.159 12.477,12.477Z" style="fill:#fff;fill-rule:nonzero;"/><path d="M696.647,450.52l12.536,-0c3.417,-0 6.351,1.23 8.802,3.69c2.45,2.461 3.676,5.39 3.676,8.787l-0,31.282c-0,3.378 -1.226,6.302 -3.676,8.772c-2.451,2.47 -5.385,3.705 -8.802,3.705l-12.536,0c-3.417,0 -6.351,-1.225 -8.801,-3.676c-2.451,-2.45 -3.676,-5.384 -3.676,-8.801l-0,-31.282c-0,-3.417 1.225,-6.351 3.676,-8.801c2.45,-2.451 5.384,-3.676 8.801,-3.676Zm0,12.477l0,31.282c0,1.679 0.61,3.134 1.831,4.364c1.22,1.23 2.699,1.845 4.437,1.845c1.738,0 3.217,-0.615 4.438,-1.845c1.22,-1.23 1.83,-2.685 1.83,-4.364l0,-31.282c0,-1.698 -0.62,-3.158 -1.86,-4.378c-1.24,-1.221 -2.709,-1.831 -4.408,-1.831c-1.718,-0 -3.192,0.61 -4.422,1.831c-1.231,1.22 -1.846,2.68 -1.846,4.378Z" style="fill:#fff;fill-rule:nonzero;"/><path d="M413.621,613.517l-0,-56.236l2.841,0l34.649,31.223l0,-31.223l6.268,0l0,56.236l-2.87,0l-34.62,-31.223l-0,31.223l-6.268,0Z" style="fill:#fff;fill-rule:nonzero;"/><path d="M475.855,613.517l0,-56.236l31.223,0l0,6.268l-18.745,0l-0,18.745l12.536,0l-0,6.21l-12.536,-0l-0,18.745l18.745,0l0,6.268l-31.223,0Z" style="fill:#fff;fill-rule:nonzero;"/><path d="M544.358,582.294l18.746,0l-0,18.746c-0,4.139 -1.333,7.254 -3.998,9.343c-2.666,2.09 -5.492,3.134 -8.48,3.134l-12.536,0c-3.417,0 -6.351,-1.225 -8.801,-3.676c-2.451,-2.45 -3.676,-5.384 -3.676,-8.801l-0,-31.282c-0,-3.358 1.206,-6.277 3.617,-8.757c2.412,-2.48 5.365,-3.72 8.86,-3.72l12.536,0c7.85,0 12.009,4.159 12.478,12.477l-6.268,0c-0.488,-4.139 -2.558,-6.209 -6.21,-6.209l-6.268,0c-1.718,0 -3.192,0.61 -4.422,1.831c-1.231,1.22 -1.846,2.68 -1.846,4.378l0,31.282c0,1.718 0.615,3.183 1.846,4.393c1.23,1.211 2.704,1.816 4.422,1.816c3.984,-0.195 6.073,-2.265 6.268,-6.209l0,-12.536l-6.268,-0l0,-6.21Z" style="fill:#fff;fill-rule:nonzero;"/><path d="M581.58,613.517l-0,-43.759c-0,-3.417 1.225,-6.351 3.676,-8.801c2.45,-2.451 5.384,-3.676 8.801,-3.676l12.536,0c3.417,0 6.351,1.23 8.802,3.691c2.45,2.46 3.675,5.389 3.675,8.786l0,43.759l-12.477,0l0,-25.013l-12.536,-0l0,25.013l-12.477,0Zm12.477,-31.223l12.536,0l0,-12.536c0,-1.698 -0.62,-3.158 -1.86,-4.378c-1.24,-1.221 -2.709,-1.831 -4.408,-1.831c-1.718,0 -3.193,0.61 -4.423,1.831c-1.23,1.22 -1.845,2.68 -1.845,4.378l0,12.536Z" style="fill:#fff;fill-rule:nonzero;"/><path d="M637.546,613.517l0,-56.236l25.014,0c3.417,0 6.351,1.23 8.801,3.691c2.451,2.46 3.676,5.389 3.676,8.786l0,31.282c0,3.378 -1.225,6.302 -3.676,8.772c-2.45,2.47 -5.384,3.705 -8.801,3.705l-25.014,0Zm12.478,-6.268l6.268,0c1.738,0 3.217,-0.615 4.437,-1.845c1.221,-1.23 1.831,-2.685 1.831,-4.364l-0,-31.282c-0,-1.698 -0.62,-3.158 -1.86,-4.378c-1.24,-1.221 -2.709,-1.831 -4.408,-1.831l-6.268,0l-0,43.7Z" style="fill:#fff;fill-rule:nonzero;"/><path d="M705.991,557.281l12.536,0c3.417,0 6.351,1.23 8.801,3.691c2.451,2.46 3.676,5.389 3.676,8.786l0,31.282c0,3.378 -1.225,6.302 -3.676,8.772c-2.45,2.47 -5.384,3.705 -8.801,3.705l-12.536,0c-3.417,0 -6.351,-1.225 -8.802,-3.676c-2.45,-2.45 -3.676,-5.384 -3.676,-8.801l0,-31.282c0,-3.417 1.226,-6.351 3.676,-8.801c2.451,-2.451 5.385,-3.676 8.802,-3.676Zm-0,12.477l-0,31.282c-0,1.679 0.61,3.134 1.83,4.364c1.221,1.23 2.7,1.845 4.438,1.845c1.738,0 3.217,-0.615 4.437,-1.845c1.22,-1.23 1.831,-2.685 1.831,-4.364l-0,-31.282c-0,-1.698 -0.62,-3.158 -1.86,-4.378c-1.24,-1.221 -2.71,-1.831 -4.408,-1.831c-1.719,0 -3.193,0.61 -4.423,1.831c-1.23,1.22 -1.845,2.68 -1.845,4.378Z" style="fill:#fff;fill-rule:nonzero;"/></g></g><g id="Plant"><path d="M578.087,1806.56c-0,0 -21.03,-144.571 -19.275,-228.687c1.75,-84.113 -0.105,-178.742 -0.105,-178.742l9.688,-0c-0,-0 -6.558,166.958 0.583,267.654c7.134,100.621 25.938,139.775 25.938,139.775l-16.829,0Z" style="fill:#1a2e35;fill-rule:nonzero;"/><path d="M640.723,1236.46c-1.95,-4.938 -4.341,-10.084 -8.829,-12.925c-6.146,-3.896 -14.204,-2.275 -21.067,0.15c-29.279,10.354 -55.233,64.941 -67.066,93.654l38.871,130.971c70.158,-65.088 82.308,-150.475 58.091,-211.85" style="fill:#375a64;fill-rule:nonzero;"/><path d="M629.626,1228.84c0.05,0.021 -0.146,0.608 -0.562,1.708c-0.5,1.255 -1.134,2.834 -1.904,4.771c-1.705,4.121 -4.096,10.117 -6.955,17.554c-5.725,14.875 -13.016,35.667 -19.533,59.092c-6.492,23.442 -10.967,45.017 -13.725,60.713c-1.383,7.85 -2.425,14.216 -3.087,18.625c-0.338,2.062 -0.613,3.737 -0.83,5.07c-0.208,1.159 -0.345,1.763 -0.4,1.755c-0.054,-0.005 -0.025,-0.625 0.08,-1.796c0.137,-1.342 0.316,-3.034 0.529,-5.113c0.475,-4.437 1.346,-10.841 2.591,-18.729c2.48,-15.771 6.788,-37.45 13.296,-60.954c6.538,-23.488 14.017,-44.283 20.025,-59.075c3,-7.4 5.554,-13.338 7.434,-17.388c0.887,-1.891 1.608,-3.429 2.183,-4.654c0.512,-1.058 0.808,-1.6 0.858,-1.579" style="fill:#1a2e35;fill-rule:nonzero;"/><path d="M565.356,1479.72c-36.433,-20.13 -57.904,-58.005 -59.908,-99.584c-1.4,-29.062 7.529,-57.583 17.645,-84.862c0.88,-2.367 1.921,-4.917 4.117,-6.163c3.054,-1.729 6.879,-0.191 9.929,1.55c26.475,15.071 42.517,43.817 51.05,73.063c5.684,19.458 8.621,39.979 5.996,60.079c-2.629,20.1 -14.117,41.971 -28.829,55.917" style="fill:#375a64;fill-rule:nonzero;"/><path d="M565.356,1479.72c-0.054,-0 -0.104,-0.609 -0.142,-1.759c-0.025,-1.325 -0.058,-2.987 -0.096,-5.025c-0.012,-4.362 -0.191,-10.675 -0.545,-18.462c-0.705,-15.579 -2.746,-37.05 -6.763,-60.504c-4.046,-23.459 -8.95,-44.467 -12.562,-59.65c-1.784,-7.425 -3.242,-13.517 -4.313,-17.975c-0.454,-1.988 -0.825,-3.613 -1.121,-4.905c-0.237,-1.125 -0.341,-1.725 -0.287,-1.737c0.054,-0.013 0.258,0.554 0.6,1.654c0.371,1.275 0.837,2.871 1.412,4.829c1.2,4.2 2.854,10.3 4.809,17.863c3.895,15.125 8.983,36.125 13.041,59.65c4.029,23.525 5.9,45.1 6.313,60.729c0.216,7.817 0.216,14.146 0.037,18.512c-0.083,2.038 -0.15,3.705 -0.204,5.03c-0.063,1.15 -0.125,1.75 -0.179,1.75" style="fill:#1a2e35;fill-rule:nonzero;"/><g opacity="0.3"><path d="M565.356,1479.72c-36.433,-20.13 -57.904,-58.005 -59.908,-99.584c-1.4,-29.062 7.529,-57.583 17.645,-84.862c0.88,-2.367 1.921,-4.917 4.117,-6.163c3.054,-1.729 6.879,-0.191 9.929,1.55c26.475,15.071 42.517,43.817 51.05,73.063c5.684,19.458 8.621,39.979 5.996,60.079c-2.629,20.1 -14.117,41.971 -28.829,55.917" style="fill-rule:nonzero;"/></g><path d="M606.46,1700.92c35.859,7.875 65.384,33.17 99.98,45.466c22.887,8.138 48.77,11.017 67.041,27.021c-4.383,-11.071 -14.779,-18.446 -24.879,-24.754c-28.45,-17.771 -58.912,-32.313 -90.617,-43.258c-16.275,-5.621 -33.933,-10.317 -50.516,-5.688" style="fill:#375a64;fill-rule:nonzero;"/><path d="M554.617,1732.87c-44.904,-0.725 -92.188,-38.958 -136.888,-41.237c46.775,-15.105 113.754,-2.767 136.888,41.237" style="fill:#375a64;fill-rule:nonzero;"/><path d="M572.163,1625.14c22.804,-8.221 47.841,-8.608 71.791,-4.888c23.954,3.725 47.088,11.405 70.088,19.05c-2.304,-15.579 -14.921,-27.295 -26.775,-37.666c-8.921,-7.8 -17.909,-15.654 -28.146,-21.629c-10.233,-5.975 -21.908,-10.025 -33.75,-9.525c-14.284,0.608 -27.883,7.975 -37.25,18.775c-9.371,10.804 -14.409,21.67 -15.958,35.883" style="fill:#375a64;fill-rule:nonzero;"/><path d="M479.998,1575.56c-28.27,-24.133 -71.087,-21.775 -108.245,-20.937c57.12,27.312 118.679,64.754 167.875,104.612c1.508,-26.27 -23.921,-53.187 -59.63,-83.675" style="fill:#375a64;fill-rule:nonzero;"/><g opacity="0.3"><path d="M479.998,1575.56c-28.27,-24.133 -71.087,-21.775 -108.245,-20.937c57.12,27.312 118.679,64.754 167.875,104.612c1.508,-26.27 -23.921,-53.187 -59.63,-83.675" style="fill-rule:nonzero;"/></g><path d="M584.877,1542.24c14.213,-9.475 28.596,-18.508 43.475,-25.267c14.875,-6.762 28.758,-17.529 43.129,-25.312c18.634,-10.092 34.775,-24.113 51.879,-36.625c17.105,-12.509 35.892,-23.8 56.821,-27.113c-17.066,-3.521 -34.9,-1.6 -51.708,2.992c-16.813,4.587 -32.783,11.775 -48.671,18.933c-22.05,9.934 -44.487,20.113 -62.512,36.238c-18.025,16.129 -34.317,32.041 -32.413,56.154" style="fill:#375a64;fill-rule:nonzero;"/><path d="M705.617,1732.87c-0.029,0.046 -0.517,-0.167 -1.421,-0.612c-1.063,-0.55 -2.354,-1.221 -3.921,-2.034c-3.379,-1.8 -8.237,-4.462 -14.35,-7.537c-3.025,-1.6 -6.379,-3.267 -10.021,-4.975c-3.6,-1.788 -7.512,-3.55 -11.658,-5.346c-8.292,-3.542 -17.554,-7.238 -27.65,-9.638c-10.071,-2.47 -20.104,-3.012 -28.808,-0.72c-4.392,1.058 -8.525,2.108 -12.205,3.641c-3.691,1.496 -6.983,3.246 -9.854,5.059c-5.754,3.625 -9.771,7.462 -12.379,10.229c-2.604,2.787 -3.871,4.491 -3.983,4.404c-0.046,-0.029 0.233,-0.483 0.804,-1.321c0.562,-0.842 1.471,-2.029 2.712,-3.5c2.492,-2.921 6.45,-6.95 12.234,-10.762c2.879,-1.909 6.208,-3.75 9.962,-5.338c3.742,-1.625 7.971,-2.746 12.367,-3.85c8.896,-2.433 19.325,-1.913 29.517,0.6c10.258,2.438 19.562,6.208 27.875,9.846c4.15,1.837 8.062,3.658 11.65,5.504c3.629,1.767 6.962,3.496 9.962,5.163c6.063,3.208 10.842,6.033 14.133,8c1.509,0.916 2.75,1.675 3.771,2.291c0.854,0.542 1.292,0.846 1.263,0.896" style="fill:#1a2e35;fill-rule:nonzero;"/><path d="M521.12,1710.61c0.038,-0.105 1.038,0.191 2.813,0.82c1.787,0.605 4.3,1.684 7.317,3.184c6.041,2.983 13.991,8.066 21.454,15.212c7.446,7.175 12.841,14.917 16.066,20.834c1.621,2.958 2.796,5.425 3.471,7.183c0.7,1.75 1.038,2.733 0.934,2.779c-0.259,0.113 -1.934,-3.692 -5.384,-9.392c-3.437,-5.704 -8.879,-13.195 -16.196,-20.25c-7.337,-7.024 -15.037,-12.162 -20.875,-15.366c-5.837,-3.217 -9.704,-4.742 -9.6,-5.004" style="fill:#1a2e35;fill-rule:nonzero;"/><path d="M421.764,1573.3c0.016,-0.054 0.675,0.142 1.912,0.567c1.392,0.492 3.179,1.129 5.392,1.917c2.392,0.883 5.233,1.933 8.496,3.133c3.312,1.233 6.912,3.05 10.979,4.842c16.167,7.341 37.683,19.691 58.462,37.25c10.25,8.916 19.513,17.983 27.263,26.845c7.721,8.88 14.258,17.23 19.35,24.517c5.129,7.263 9.017,13.313 11.679,17.496c1.263,1.979 2.279,3.575 3.075,4.817c0.696,1.104 1.038,1.704 0.996,1.733c-0.046,0.033 -0.479,-0.5 -1.263,-1.55c-0.787,-1.046 -1.925,-2.604 -3.325,-4.654c-2.829,-4.084 -6.854,-10.025 -12.079,-17.179c-5.196,-7.18 -11.796,-15.421 -19.537,-24.2c-7.771,-8.763 -17.013,-17.742 -27.196,-26.609c-20.65,-17.446 -41.929,-29.866 -57.908,-37.441c-4.021,-1.85 -7.571,-3.734 -10.838,-5.038c-3.217,-1.3 -6.017,-2.429 -8.375,-3.379c-2.167,-0.9 -3.917,-1.629 -5.279,-2.196c-1.2,-0.521 -1.821,-0.817 -1.804,-0.871" style="fill:#1a2e35;fill-rule:nonzero;"/><path d="M639.545,1599.9c-0.03,0.108 -1.309,-0.063 -3.58,-0.463c-1.237,-0.225 -2.604,-0.479 -4.129,-0.758c-1.6,-0.312 -3.475,-0.321 -5.512,-0.533c-8.075,-0.584 -19.842,0.083 -30.863,6.091c-5.562,2.813 -10.229,6.613 -14.046,10.421c-3.875,3.779 -6.812,7.717 -9.029,11.163c-4.504,6.896 -5.896,11.879 -6.171,11.783c-0.087,-0.025 0.163,-1.292 0.913,-3.504c0.825,-2.171 2.096,-5.325 4.296,-8.879c2.133,-3.579 5.033,-7.671 8.941,-11.6c3.85,-3.954 8.617,-7.9 14.346,-10.8c11.371,-6.196 23.538,-6.692 31.709,-5.8c2.066,0.283 3.962,0.375 5.566,0.775c1.521,0.379 2.884,0.725 4.117,1.033c2.25,0.592 3.471,0.967 3.442,1.071" style="fill:#1a2e35;fill-rule:nonzero;"/><path d="M684.677,1459.88c0.025,0.05 -0.562,0.408 -1.7,1.046c-1.292,0.704 -2.954,1.604 -5.008,2.72c-4.359,2.35 -10.625,5.813 -18.246,10.3c-7.579,4.55 -16.513,10.134 -26.013,16.925c-9.475,6.809 -19.654,14.725 -29.045,24.338c-4.634,4.837 -8.905,9.887 -11.88,15.379c-2.941,5.65 -5.754,11.108 -8.341,16.35c-5.192,10.475 -9.421,20.117 -12.475,28.404c-3.046,8.288 -4.942,15.192 -6.071,20c-1.15,4.804 -1.563,7.517 -1.721,7.492c-0.054,-0.013 0.008,-0.692 0.179,-1.988c0.163,-1.295 0.438,-3.204 0.934,-5.637c0.945,-4.871 2.687,-11.863 5.612,-20.25c2.938,-8.383 7.083,-18.129 12.217,-28.671c2.558,-5.275 5.35,-10.758 8.271,-16.421c3.091,-5.746 7.429,-10.866 12.125,-15.771c9.508,-9.733 19.77,-17.65 29.341,-24.425c9.596,-6.762 18.621,-12.266 26.296,-16.704c7.717,-4.375 14.079,-7.691 18.529,-9.875c2.117,-1.004 3.821,-1.821 5.154,-2.454c1.184,-0.546 1.817,-0.808 1.842,-0.758" style="fill:#1a2e35;fill-rule:nonzero;"/><path d="M558.756,1595.85c-0.108,0.017 -0.421,-1.333 -0.891,-3.783c-0.525,-2.771 -1.184,-6.246 -1.963,-10.375c-1.712,-8.742 -4.325,-20.784 -8.492,-33.7c-4.129,-12.934 -9.154,-24.188 -12.825,-32.309c-1.745,-3.825 -3.208,-7.046 -4.379,-9.612c-1.021,-2.279 -1.537,-3.563 -1.441,-3.613c0.1,-0.046 0.808,1.142 2,3.338c1.191,2.191 2.87,5.396 4.845,9.404c3.938,8.008 9.163,19.262 13.325,32.3c4.196,13.017 6.65,25.171 8.08,33.987c0.704,4.417 1.208,7.996 1.466,10.484c0.279,2.483 0.384,3.862 0.275,3.879" style="fill:#1a2e35;fill-rule:nonzero;"/><path d="M555.508,1493.69c-1.125,-16.966 -6.655,-33.45 -14.605,-48.483c-21.795,-41.208 -62.758,-71.754 -108.475,-80.892c33.475,49.896 66.95,99.788 100.425,149.684l12.971,26.716c8.846,-14.521 10.809,-30.058 9.684,-47.025" style="fill:#375a64;fill-rule:nonzero;"/><rect x="466.042" y="1788.67" width="233.521" height="41.387" style="fill:#ff735d;"/><path d="M483.481,1821.85l19.884,128.429l155.029,0l23.729,-128.429l-198.642,0Z" style="fill:#ff735d;fill-rule:nonzero;"/><path d="M699.435,1830.11c-0,0.454 -52.675,0.821 -117.638,0.821c-64.983,-0 -117.646,-0.367 -117.646,-0.821c0,-0.454 52.663,-0.821 117.646,-0.821c64.963,-0 117.638,0.367 117.638,0.821" style="fill:#1a2e35;fill-rule:nonzero;"/></g><g id="Boxes"><path d="M1350.87,1819.42l0,127.596l392.392,0l-0,-127.596l-392.392,0Z" style="fill:#d8765f;fill-rule:nonzero;"/><path d="M1334.41,1783.75l0,35.671l422.579,-0l0,-35.671l-422.579,0Z" style="fill:#7c4236;fill-rule:nonzero;"/><path d="M1545.69,1947.02l197.566,-0l0,-127.596l13.721,-0l0,-35.671l-219.521,0l7.109,36.808l1.125,126.459Z" style="fill:#7c4236;fill-rule:nonzero;"/><rect x="1405.75" y="1840" width="79.575" height="19.208" style="fill:#7c4236;"/><rect x="1395.51" y="1883.22" width="102.179" height="40.558" style="fill:#fff;"/><path d="M1411.24,1656.32l0,127.596l392.392,-0l-0,-127.596l-392.392,0Z" style="fill:#d8765f;fill-rule:nonzero;"/><path d="M1394.78,1620.65l0,35.675l422.575,0l0,-35.675l-422.575,0Z" style="fill:#7c4236;fill-rule:nonzero;"/><path d="M1606.06,1783.92l197.567,-0.001l-0,-127.595l13.721,-0l-0,-35.671l-210.438,1.279l0.521,36.817l-1.371,125.17Z" style="fill:#7c4236;fill-rule:nonzero;"/><rect x="1466.12" y="1676.9" width="79.575" height="19.208" style="fill:#7c4236;"/><rect x="1455.88" y="1720.12" width="102.179" height="40.558" style="fill:#fff;"/><path d="M1806.53,1656.27c0,0.6 -92.017,1.083 -205.5,1.083c-113.525,0 -205.525,-0.483 -205.525,-1.083c0,-0.6 92,-1.083 205.525,-1.083c113.483,-0 205.5,0.483 205.5,1.083" style="fill:#1a2e35;fill-rule:nonzero;"/><path d="M1606.91,1621.93c0.6,-0 1.083,36.329 1.083,81.133c-0,44.821 -0.483,81.142 -1.083,81.142c-0.6,-0 -1.084,-36.321 -1.084,-81.142c0,-44.804 0.484,-81.133 1.084,-81.133" style="fill:#1a2e35;fill-rule:nonzero;"/><path d="M1800.5,1784.44c-0,0.6 -104.146,1.083 -232.588,1.083c-128.483,0 -232.608,-0.483 -232.608,-1.083c-0,-0.6 104.125,-1.083 232.608,-1.083c128.442,-0 232.588,0.483 232.588,1.083" style="fill:#1a2e35;fill-rule:nonzero;"/><path d="M1750.92,1819.44c-0,0.6 -92.721,1.083 -207.067,1.083c-114.392,0 -207.088,-0.483 -207.088,-1.083c0,-0.6 92.696,-1.083 207.088,-1.083c114.346,-0 207.067,0.483 207.067,1.083" style="fill:#1a2e35;fill-rule:nonzero;"/><path d="M1544.57,1947.77c-0.6,0 -1.083,-36.237 -1.083,-80.929c-0,-44.713 0.483,-80.942 1.083,-80.942c0.6,0 1.083,36.229 1.083,80.942c0,44.692 -0.483,80.929 -1.083,80.929" style="fill:#1a2e35;fill-rule:nonzero;"/></g><g id="Character"><path d="M975.514,395.602c9.996,-69.304 29.25,-155.258 128.275,-148.175c-0,0 90.004,9.692 97.754,75.155c7.487,63.254 43.267,111.545 10.996,169.695c-18.6,33.513 -10.521,42.588 33.016,76.275c30.013,23.221 11.855,163.434 0.28,196.225l-312.634,-20.595c-28.075,-27.471 -17.121,-61.896 -4.741,-97.134c11.533,-32.833 22.029,-65.475 14.295,-98.471c-3.266,-13.941 -4.041,-28.416 -0.333,-45.129c8.133,-36.679 29.854,-85.412 33.092,-107.846" style="fill:#1a2e35;fill-rule:nonzero;"/><path d="M1189.63,451.704c5.512,-26.175 4.475,-62.191 2.925,-97.633c-2.146,-49.05 -36.171,-78.683 -75.596,-78.633l-6.196,-5.905l-66.95,26.98c-9.683,0.537 -17.35,8.395 -17.646,18.091l7.975,224.842l-51.921,14.487l40.638,59.913l72.821,32.762l37.825,-32.866l41.512,-32.225l3.479,-27.363l-40.958,-11.612c-0,-0 -0,-33.671 0.004,-33.492c0,0 41.004,-4.712 52.088,-57.346" style="fill:#ffc19d;fill-rule:nonzero;"/><path d="M1108.32,386.811c-0.054,3.6 -3.146,6.521 -6.904,6.537c-3.754,0.013 -6.763,-2.887 -6.709,-6.487c0.055,-3.6 3.146,-6.525 6.896,-6.542c3.763,-0.012 6.771,2.892 6.717,6.492" style="fill:#1a2e35;fill-rule:nonzero;"/><path d="M1174.66,389.066c-0.054,3.6 -3.146,6.521 -6.904,6.538c-3.754,0.012 -6.758,-2.888 -6.708,-6.488c0.054,-3.6 3.145,-6.525 6.9,-6.541c3.758,-0.013 6.766,2.891 6.712,6.491" style="fill:#1a2e35;fill-rule:nonzero;"/><path d="M1185.56,368.091c-0.887,0.846 -5.85,-3.229 -13.175,-3.575c-7.308,-0.454 -12.875,3.046 -13.621,2.108c-0.37,-0.417 0.571,-1.975 2.992,-3.562c2.388,-1.58 6.4,-3.034 10.963,-2.788c4.558,0.254 8.312,2.129 10.429,3.958c2.166,1.838 2.85,3.48 2.412,3.859" style="fill:#1a2e35;fill-rule:nonzero;"/><path d="M1114.72,368.849c-0.971,0.75 -5.5,-3.812 -12.742,-4.908c-7.225,-1.204 -13.116,1.704 -13.766,0.696c-0.321,-0.454 0.762,-1.909 3.346,-3.234c2.537,-1.329 6.675,-2.362 11.187,-1.645c4.508,0.72 8.05,2.966 9.971,5.004c1.958,2.05 2.475,3.758 2.004,4.087" style="fill:#1a2e35;fill-rule:nonzero;"/><path d="M1136.83,422.15c-0.012,-0.417 4.575,-0.975 12,-1.55c1.879,-0.1 3.667,-0.383 4.046,-1.642c0.508,-1.329 -0.171,-3.383 -0.971,-5.604c-1.529,-4.612 -3.133,-9.446 -4.816,-14.517c-6.659,-20.654 -11.384,-37.6 -10.55,-37.862c0.833,-0.258 6.912,16.271 13.575,36.925c1.595,5.092 3.125,9.946 4.579,14.587c0.6,2.163 1.696,4.634 0.6,7.388c-0.571,1.375 -1.996,2.317 -3.209,2.583c-1.216,0.304 -2.27,0.271 -3.2,0.279c-7.441,0.03 -12.045,-0.17 -12.054,-0.587" style="fill:#1a2e35;fill-rule:nonzero;"/><path d="M1137.55,509.052c-0,-0 -35.809,0.512 -70.109,-22.517c0,-0 16.754,37.729 70.109,35.425l-0,-12.908Z" style="fill:#ff9c6a;fill-rule:nonzero;"/><path d="M1130.14,435.562c-3.983,-2.933 -8.687,-2.271 -8.687,-2.271c-3.196,0.188 -6.113,2.079 -8.175,4.571c-2.059,2.492 -1.867,5.825 -0.238,8.379c1.838,2.879 6.858,4.342 10.404,3.525c3.546,-0.821 6.642,-2.583 8.171,-6c0,0 2.508,-5.271 -1.475,-8.204" style="fill:#ff9c6a;fill-rule:nonzero;"/><path d="M1119.23,347.547c-1.017,1.863 -8.108,-0.183 -16.767,-0.462c-8.654,-0.45 -15.891,0.987 -16.75,-0.955c-0.375,-0.92 1.104,-2.591 4.171,-4.075c3.038,-1.483 7.7,-2.62 12.892,-2.408c5.191,0.225 9.737,1.75 12.641,3.488c2.929,1.737 4.263,3.525 3.813,4.412" style="fill:#1a2e35;fill-rule:nonzero;"/><path d="M1183.79,340.312c-1.409,1.696 -7.109,0.096 -13.921,0.162c-6.813,-0.141 -12.554,1.396 -13.917,-0.316c-0.604,-0.83 0.271,-2.517 2.754,-4.15c2.45,-1.625 6.575,-3 11.254,-2.98c4.684,0.03 8.771,1.45 11.175,3.1c2.446,1.659 3.275,3.359 2.655,4.184" style="fill:#1a2e35;fill-rule:nonzero;"/><path d="M1027.51,407.697c0,-0 26.517,4.2 67.2,-81.605c13.492,-28.45 28.121,-56.562 28.121,-56.562l-11.9,-3.579c-0,-0 -73.954,20.837 -75.196,21.771c-1.246,0.929 -18.658,38.245 -18.658,38.245l10.433,81.73Z" style="fill:#1a2e35;fill-rule:nonzero;"/><path d="M1031.42,403.316c-0.329,-5.783 -1.154,-13.383 -2.458,-13.366c-10.559,0.129 -29.163,-2.255 -30.663,24.2c-2.05,36.166 34.679,30.766 34.8,29.733c0.096,-0.808 -0.904,-26.929 -1.679,-40.567" style="fill:#ffc19d;fill-rule:nonzero;"/><path d="M1022.84,429.554c-0.154,-0.125 -0.654,0.404 -1.745,0.834c-1.067,0.416 -2.871,0.641 -4.717,-0.171c-3.742,-1.617 -6.613,-7.867 -6.417,-14.396c0.092,-3.296 0.959,-6.392 2.271,-8.921c1.254,-2.579 3.071,-4.333 5.017,-4.562c1.937,-0.338 3.233,0.891 3.616,1.933c0.43,1.042 0.159,1.75 0.346,1.821c0.096,0.1 0.813,-0.559 0.604,-2.067c-0.108,-0.729 -0.483,-1.608 -1.295,-2.35c-0.825,-0.754 -2.08,-1.187 -3.43,-1.121c-2.8,0.038 -5.454,2.463 -6.9,5.238c-1.595,2.779 -2.65,6.254 -2.754,9.954c-0.183,7.3 3.163,14.329 8.304,16.137c2.505,0.809 4.671,0.163 5.817,-0.629c1.171,-0.829 1.404,-1.625 1.283,-1.7" style="fill:#ff9c6a;fill-rule:nonzero;"/><path d="M1136.95,445.531c-0.258,0.925 -6.887,0.125 -14.804,-1.779c-7.921,-1.908 -14.162,-4.212 -13.942,-5.146c0.217,-0.933 6.846,-0.133 14.805,1.784c7.958,1.916 14.2,4.22 13.941,5.141" style="fill:#1a2e35;fill-rule:nonzero;"/><path d="M1070.64,1896.27l-0.062,5.342c-0,0 90.012,37.763 90.717,54.963l-179.826,-3.675l3.667,-59.792c14.513,7.087 70.588,-43.538 86.25,-43.484c12.925,0.042 -0.746,46.646 -0.746,46.646" style="fill:#1a2e35;fill-rule:nonzero;"/><path d="M981.421,1953.69l0.879,-14.379l173.017,8.116c-0,0 6.946,4.317 5.929,9.938l-179.825,-3.675Z" style="fill:#375a64;fill-rule:nonzero;"/><path d="M1071.15,1901.37c-0.046,0.88 -4.446,1.184 -8.825,3.921c-4.45,2.621 -6.754,6.375 -7.554,6.013c-0.804,-0.188 0.612,-5.409 5.971,-8.625c5.329,-3.267 10.616,-2.113 10.408,-1.309" style="fill:#fff;fill-rule:nonzero;"/><path d="M1089.85,1909.55c0.184,0.855 -3.65,2.271 -6.708,5.925c-3.167,3.563 -4,7.563 -4.875,7.509c-0.829,0.12 -1.329,-5.038 2.558,-9.505c3.85,-4.504 9.025,-4.766 9.025,-3.929" style="fill:#fff;fill-rule:nonzero;"/><path d="M1100.1,1932.35c-0.804,0.171 -1.933,-4.241 0.421,-9.004c2.317,-4.779 6.5,-6.591 6.854,-5.85c0.479,0.729 -2.237,3.254 -4.112,7.196c-1.963,3.896 -2.288,7.592 -3.163,7.658" style="fill:#fff;fill-rule:nonzero;"/><path d="M952.527,1836.86c0,-0 51.504,26.167 73.05,27.537c0,0 -8.167,27.709 -7.837,29.075l20.766,106.888c1.084,6.187 -2.458,12.554 -8.641,14.262c-4.763,1.313 -9.73,-0.158 -12.888,-3.695c-16.904,-18.955 -78.733,-88.98 -77.246,-97.534l2.446,-22.846c0.508,-4.737 4.429,-21.687 4.429,-22.708l5.921,-30.979Z" style="fill:#1a2e35;fill-rule:nonzero;"/><path d="M1027.59,2015.04l-87.138,-109.608l-0.454,5c-1.004,5.366 1.221,7.741 3.529,11.458c6.842,11.029 26.308,36.088 73.083,89.004c2.717,3.079 6.855,4.642 10.98,4.146" style="fill:#375a64;fill-rule:nonzero;"/><path d="M1004.62,1960.98c0.654,0.388 3.95,-5.537 11.458,-8.204c7.421,-2.879 13.959,-0.604 14.179,-1.321c0.13,-0.279 -1.32,-1.337 -4.116,-1.983c-2.771,-0.663 -6.904,-0.65 -11.025,0.875c-4.117,1.537 -7.2,4.2 -8.804,6.491c-1.634,2.292 -1.984,4.017 -1.692,4.142" style="fill:#fff;fill-rule:nonzero;"/><path d="M1011.8,1977.56c0.529,0.563 4.767,-2.916 11.192,-4.091c6.395,-1.313 11.695,0.316 11.962,-0.4c0.404,-0.571 -5.196,-3.609 -12.5,-2.15c-7.312,1.379 -11.254,6.266 -10.654,6.641" style="fill:#fff;fill-rule:nonzero;"/><path d="M990.412,1939.26c0.516,0.613 7.004,-4.771 16.825,-7.45c9.779,-2.829 18.237,-1.65 18.337,-2.433c0.25,-0.613 -8.596,-3.075 -19.091,-0.071c-10.521,2.904 -16.625,9.571 -16.071,9.954" style="fill:#fff;fill-rule:nonzero;"/><path d="M1279.51,1023.56c0,0 34.909,117.892 -24.287,268.592c-59.192,150.7 -92.25,271.229 -94.529,303.687c-2.275,32.459 -5.842,66.021 -36.963,168.813c-22.721,75.041 -39.516,119.912 -39.516,119.912c-23.605,12.884 -48.638,16.363 -71.417,3.846c-0,0 2.196,-178.967 36.342,-299.529c34.15,-120.558 57.533,-308.95 45.841,-377.046c-11.691,-68.096 13.629,-106.829 13.629,-106.829l170.9,-81.446Z" style="fill:#1a2e35;fill-rule:nonzero;"/><path d="M1135.2,1129.28c-0,0 145.812,-103.629 145.154,-103.395c-7.975,-29.842 -31.15,-89.705 -43.921,-116.638c0,0 -56.85,44.917 -108.725,55.296c-51.875,10.379 -167.454,-37.883 -167.454,-37.883l-23.271,68.6c-11.716,32.225 -36.621,122.554 -19.041,213.858c16.77,87.117 90.866,291.6 105.058,335.483c11.175,34.542 -25.204,71.963 -39.513,113.279c-17.387,50.209 -42.112,214.43 -42.112,214.43l75.95,17.795c-0,0 109.225,-227.025 131.991,-282.666c21.217,-51.854 -10.791,-427.892 -15.25,-478.904l1.134,0.745Z" style="fill:#1a2e35;fill-rule:nonzero;"/><path d="M1184.7,1050.86c-0.025,-0.016 -0.346,0.375 -0.95,1.171c-0.646,0.867 -1.517,2.042 -2.646,3.558c-2.354,3.238 -5.75,7.909 -10.142,13.946c-8.854,12.321 -21.716,30.209 -37.975,52.825l-0.141,0.196l0.021,0.233c1.85,19.78 2.55,42.746 3.816,68.321c1.259,25.571 2.642,53.729 4.129,83.963c1.638,30.237 3.384,62.541 5.217,96.4c2.083,33.858 3.875,69.254 7.379,105.666c3.646,30.292 6.871,60.042 4.196,88.65c-0.679,7.13 -1.587,14.184 -2.979,21.084c-1.438,6.858 -2.75,13.812 -5.179,20.204c-4.959,12.842 -10.721,25.279 -16.175,37.375c-22.104,48.371 -42.813,91.604 -60.05,127.967c-17.3,36.266 -31.313,65.641 -41.046,86.037c-4.792,10.1 -8.529,17.975 -11.108,23.417c-1.221,2.621 -2.167,4.654 -2.842,6.112c-0.629,1.379 -0.9,2.113 -0.9,2.113c-0,-0 0.412,-0.667 1.112,-2.017c0.73,-1.433 1.742,-3.437 3.05,-6.017c2.671,-5.4 6.542,-13.212 11.505,-23.237c9.891,-20.329 24.133,-49.6 41.716,-85.742c17.434,-36.283 38.292,-79.441 60.517,-127.804c5.5,-12.129 11.246,-24.442 16.321,-37.533c2.512,-6.613 3.812,-13.513 5.287,-20.475c1.413,-6.971 2.338,-14.092 3.034,-21.288c2.729,-28.875 -0.513,-58.829 -4.155,-89.087c-3.487,-36.263 -5.312,-71.721 -7.433,-105.55c-1.9,-33.846 -3.712,-66.146 -5.408,-96.375c-1.592,-30.225 -3.075,-58.379 -4.425,-83.946c-1.379,-25.546 -2.213,-48.546 -4.204,-68.338l-0.121,0.425c16.033,-22.766 28.716,-40.775 37.45,-53.175c4.262,-6.125 7.558,-10.858 9.846,-14.141c1.062,-1.563 1.883,-2.771 2.491,-3.663c0.55,-0.829 0.817,-1.258 0.792,-1.275" style="fill:#375a64;fill-rule:nonzero;"/><path d="M1331.18,799.091c0.554,-0.179 -2.163,-6.496 -2.604,-17.263c-0.638,-10.762 1.933,-25.554 6.383,-41.512c4.475,-15.979 7.954,-30.938 7.954,-42.046c0.079,-5.525 -0.408,-9.996 -1.05,-13.012c-0.629,-3.021 -1.221,-4.625 -1.4,-4.584c-0.546,0.1 1.029,6.734 0.279,17.5c-0.55,10.796 -4.258,25.309 -8.75,41.342c-4.479,16.05 -6.808,31.379 -5.583,42.458c0.533,5.517 1.617,9.9 2.7,12.792c1.063,2.904 1.904,4.392 2.071,4.325" style="fill:#1a2e35;fill-rule:nonzero;"/><path d="M1394.29,607.253c-0.001,-0 27.541,128.108 27.52,208.55c-0.008,25.787 -22.375,56.9 -62.962,50.025c-40.584,-6.871 -138.429,-138.538 -138.429,-138.538l24.741,-162.45c0,0 19.834,1.692 35.479,28.721c15.746,27.213 61.663,113.925 61.663,113.925l-2.2,-105.475l54.188,5.242Z" style="fill:#375a64;fill-rule:nonzero;"/><path d="M1253.97,799.093c0,0 6.4,-55.05 6.396,-95.462c0,-15.892 -5.975,-138.117 -7.354,-138.117c-1.379,0 -105.225,-20.629 -105.225,-20.629c0,0 -3.667,35.013 -51.379,37.212c-42.95,1.98 -71.175,-39.975 -71.175,-41.32c-0,-1.346 -89.817,15.266 -103.609,17.958c-13.795,2.696 -29.887,19.304 -42.179,31.754l-15.171,90.659c16.184,2.412 42.096,9.629 61.184,3.837l32.367,165.721l-9.588,45.612c-2.338,11.13 0.85,22.705 8.554,31.071c91.358,53.713 216.884,48.796 284.325,-2.341c8.342,-4.967 14.867,-22.625 14.217,-32.313l-1.363,-93.642Z" style="fill:#375a64;fill-rule:nonzero;"/><path d="M916.737,591.473c0.267,-0.071 1.8,4.483 3.688,12.012c1.891,7.521 4.041,18.046 5.591,29.792c1.534,11.754 2.167,22.475 2.284,30.233c0.116,7.763 -0.188,12.554 -0.467,12.554c-0.321,0.004 -0.558,-4.779 -1.067,-12.487c-0.508,-7.709 -1.375,-18.338 -2.904,-30.017c-1.533,-11.671 -3.437,-22.167 -4.937,-29.746c-1.492,-7.575 -2.5,-12.258 -2.188,-12.341" style="fill:#1a2e35;fill-rule:nonzero;"/><path d="M785.95,614.025c0,-0 -8.117,-4.384 -11.879,-15.825c-1.663,-5.05 -13.675,-58.755 -13.171,-74.021c0.508,-15.267 5.571,-24.517 5.571,-24.517c-0,0 6.079,-64.771 14.692,-74.483c8.608,-9.717 12.154,-3.7 14.687,-2.313c0,0 7.6,-34.237 23.3,-33.775l8.104,2.779c0,0 3.213,-15.037 13.596,-14.033c3.379,0.325 8.158,1.183 8.188,15.883c-0,0 12.154,-11.566 20.258,10.638c8.104,22.208 1.521,95.304 3.546,100.854c2.029,5.55 5.066,25.446 5.066,25.446c0,-0 13.171,-23.133 29.884,-29.146c16.716,-6.017 22.796,-2.312 22.796,4.163c-0,6.479 -14.692,10.641 -25.834,30.995c-11.142,20.355 -23.3,45.338 -34.442,58.755c-11.145,13.416 -48.129,25.42 -84.362,18.6" style="fill:#ffc19d;fill-rule:nonzero;"/><path d="M787.747,588.408c0,-0 -3.021,33.47 7.613,53.225c10.637,19.754 25.962,38.512 50.375,41.495c26.237,3.209 52.941,-2.533 52.941,-2.533c0,0 22.329,-12.629 17.771,-44.813c-4.558,-32.179 -19.292,-46.87 -28.912,-47.375l-21.275,3.546l-78.513,-3.546Z" style="fill:#ffc19d;fill-rule:nonzero;"/><path d="M877.338,635.873c-0.512,0.429 -6.362,-6.337 -14.158,-13.987c-7.862,-7.584 -14.787,-13.242 -14.375,-13.767c0.317,-0.421 7.871,4.484 15.888,12.213c7.945,7.8 13.058,15.216 12.645,15.541" style="fill:#ff9c6a;fill-rule:nonzero;"/><path d="M851.606,484.561c-0.029,0.334 -4.271,0.129 -11.1,0.179c-6.829,0.042 -16.258,0.488 -26.55,2.005c-10.291,1.529 -19.441,3.841 -25.983,5.8c-6.546,1.945 -10.538,3.391 -10.663,3.079c-0.104,-0.238 3.696,-2.196 10.188,-4.538c6.479,-2.354 15.708,-4.937 26.142,-6.487c10.433,-1.542 20.012,-1.742 26.895,-1.392c6.892,0.346 11.096,1.092 11.071,1.354" style="fill:#ff9c6a;fill-rule:nonzero;"/><path d="M788.787,489.777c-0.287,0.004 -0.633,-3.871 -0.729,-10.15c-0.1,-6.279 0.104,-14.963 0.879,-24.517c0.783,-9.558 1.992,-18.158 3.104,-24.337c1.113,-6.184 2.079,-9.95 2.363,-9.9c0.304,0.054 -0.125,3.908 -0.846,10.12c-0.721,6.213 -1.679,14.792 -2.458,24.292c-0.771,9.5 -1.213,18.121 -1.509,24.367c-0.296,6.245 -0.491,10.12 -0.804,10.125" style="fill:#ff9c6a;fill-rule:nonzero;"/><path d="M815.048,484.253c-0.15,0.009 -0.362,-1.27 -0.625,-3.608c-0.271,-2.329 -0.516,-5.721 -0.683,-9.912c-0.35,-8.388 -0.2,-20.021 1.15,-32.775c1.367,-12.759 3.667,-24.163 5.767,-32.288c1.045,-4.067 1.991,-7.329 2.75,-9.55c0.741,-2.229 1.22,-3.437 1.362,-3.396c0.321,0.088 -0.917,5.117 -2.617,13.292c-1.704,8.167 -3.75,19.517 -5.104,32.171c-1.337,12.65 -1.733,24.175 -1.775,32.521c-0.054,8.345 0.109,13.525 -0.225,13.545" style="fill:#ff9c6a;fill-rule:nonzero;"/><path d="M843.073,476.091c-0.6,-0.025 -0.275,-18.508 0.725,-41.279c0.996,-22.779 2.292,-41.213 2.892,-41.188c0.596,0.025 0.275,18.504 -0.725,41.284c-1,22.766 -2.292,41.208 -2.892,41.183" style="fill:#ff9c6a;fill-rule:nonzero;"/><path d="M880.253,577.605c0.209,0.062 -0.604,3.666 -3.479,8.858c-2.821,5.183 -8.146,11.717 -15.625,16.846c-7.417,5.229 -15.137,8.162 -20.721,9.9c-5.633,1.671 -9.233,2.179 -9.291,1.933c-0.313,-0.825 14.229,-3.65 28.766,-13.608c7.225,-4.963 12.484,-11.034 15.559,-15.867c3.116,-4.825 4.441,-8.2 4.791,-8.062" style="fill:#ff9c6a;fill-rule:nonzero;"/><path d="M814.227,573.225c-0.117,-0.038 0.062,-1.221 0.791,-3.242c0.717,-2.017 1.992,-4.883 4.113,-8.113c4.15,-6.433 12.312,-14.212 23.579,-18.108c9.604,-3.404 19.196,-3.517 26.233,-2.271l-0.791,0.313c6.15,-7.484 10.179,-12.1 10.446,-11.892c0.27,0.213 -3.28,5.208 -9.117,12.938l-0.288,0.379l-0.504,-0.067c-6.858,-0.912 -16.05,-0.617 -25.254,2.646c-10.783,3.733 -18.704,10.937 -23.046,16.942c-4.408,6.05 -5.796,10.62 -6.162,10.475" style="fill:#ff9c6a;fill-rule:nonzero;"/><path d="M810.696,618.901c0.054,0.225 -3.062,1.204 -8.254,0.842c-5.121,-0.325 -12.383,-2.396 -18.529,-7.596c-6.138,-5.212 -9.367,-12.042 -10.525,-17.042c-1.208,-5.058 -0.75,-8.295 -0.521,-8.275c0.363,-0.02 0.467,3.138 1.996,7.859c1.483,4.679 4.733,10.941 10.454,15.804c5.729,4.846 12.438,7.029 17.3,7.725c4.904,0.733 8.038,0.321 8.079,0.683" style="fill:#ff9c6a;fill-rule:nonzero;"/><path d="M1207.13,821.755c0.1,0.113 -1.638,1.825 -4.871,4.838c-3.2,3.045 -8.067,7.208 -14.275,12.104c-6.188,4.925 -13.867,10.391 -22.663,16.054c-8.854,5.571 -18.858,11.279 -29.716,16.571c-10.896,5.221 -21.588,9.508 -31.459,12.979c-9.904,3.371 -18.962,5.987 -26.666,7.775c-7.692,1.817 -13.975,3.046 -18.35,3.662c-4.371,0.659 -6.792,0.95 -6.817,0.805c-0.025,-0.15 2.35,-0.725 6.662,-1.638c4.317,-0.867 10.525,-2.321 18.13,-4.317c7.616,-1.966 16.574,-4.72 26.379,-8.17c9.766,-3.555 20.358,-7.867 31.179,-13.05c10.779,-5.255 20.737,-10.867 29.591,-16.309c8.801,-5.533 16.521,-10.837 22.796,-15.583c6.296,-4.713 11.292,-8.679 14.655,-11.517c3.395,-2.812 5.325,-4.312 5.425,-4.204" style="fill:#1a2e35;fill-rule:nonzero;"/><path d="M1258.97,615.378c0.6,-0.013 1.4,13.279 1.791,29.687c0.392,16.413 0.221,29.725 -0.375,29.738c-0.6,0.017 -1.404,-13.275 -1.795,-29.688c-0.388,-16.408 -0.221,-29.72 0.379,-29.737" style="fill:#1a2e35;fill-rule:nonzero;"/><path d="M1256.04,818.729l0,-157.875l112.038,-112.625l156.85,-0l110.858,110.858l0,156.738l-109.892,109.887l-157.229,0l-112.625,-106.983Z" style="fill:#fff;fill-rule:nonzero;"/><path d="M1256.04,818.729c-0,-0 0.721,0.596 2.037,1.808c1.359,1.258 3.292,3.054 5.821,5.4c5.133,4.817 12.633,11.858 22.338,20.967c19.42,18.337 47.612,44.954 82.921,78.291l-0.492,-0.195c44.096,-0.063 97.492,-0.138 157.229,-0.225l-0.663,0.275c33.459,-33.505 70.563,-70.663 109.813,-109.967l-0.308,0.742c-0.013,-49.421 -0.021,-102.259 -0.034,-156.738l0.317,0.767c-0.625,-0.625 -1.3,-1.3 -1.975,-1.975c-37.604,-37.621 -74.113,-74.142 -108.858,-108.904l0.741,0.308c-55.825,-0.042 -108.483,-0.079 -156.85,-0.113l0.667,-0.275c-42.633,42.734 -80.496,80.688 -112.196,112.467l0.208,-0.504c-0.145,49.417 -0.262,88.821 -0.345,115.95c-0.08,13.521 -0.142,23.962 -0.184,31.104c-0.041,3.5 -0.071,6.179 -0.091,8.054c-0.034,1.817 -0.096,2.763 -0.096,2.763c-0,-0 -0.063,-0.892 -0.092,-2.684c-0.025,-1.858 -0.054,-4.512 -0.096,-7.987c-0.041,-7.121 -0.104,-17.538 -0.183,-31.021c-0.079,-27.179 -0.196,-66.662 -0.346,-116.179l0,-0.296l0.208,-0.212c31.609,-31.863 69.367,-69.93 111.88,-112.784l0.275,-0.279l0.391,0c48.367,-0.033 101.025,-0.071 156.85,-0.108l0.438,-0l0.308,0.308c34.763,34.746 71.288,71.254 108.904,108.858c0.675,0.675 1.354,1.35 1.975,1.975l0.317,0.317l-0,0.45c-0.013,54.479 -0.025,107.317 -0.033,156.738l-0,0.433l-0.309,0.308c-39.304,39.246 -76.462,76.35 -109.971,109.809l-0.275,0.275l-0.387,-0c-59.738,-0.084 -113.133,-0.163 -157.229,-0.225l-0.284,-0l-0.204,-0.196c-35.179,-33.617 -63.266,-60.459 -82.616,-78.946c-9.567,-9.2 -16.963,-16.313 -22.025,-21.179c-2.45,-2.384 -4.33,-4.209 -5.642,-5.488c-1.258,-1.237 -1.854,-1.887 -1.854,-1.887" style="fill:#1a2e35;fill-rule:nonzero;"/><path d="M1275.53,811.249l0,-143.429l101.788,-102.325l142.5,0l100.716,100.717l0,142.4l-99.837,99.833l-142.846,0l-102.321,-97.196Z" style="fill:#ff735d;fill-rule:nonzero;"/><path d="M1275.53,811.249c-0,0 0.658,0.542 1.862,1.638c1.242,1.15 3,2.779 5.296,4.904c4.671,4.383 11.492,10.775 20.308,19.037c17.655,16.663 43.271,40.834 75.346,71.1l-0.487,-0.196c40.062,-0.062 88.571,-0.137 142.841,-0.225l-0.662,0.275c30.396,-30.441 64.104,-64.204 99.758,-99.912l-0.308,0.742c-0.008,-44.9 -0.021,-92.904 -0.033,-142.4l0.316,0.766c-0.566,-0.566 -1.179,-1.179 -1.796,-1.795c-34.158,-34.175 -67.329,-67.359 -98.895,-98.942l0.741,0.308c-50.712,-0.042 -98.558,-0.075 -142.5,-0.112l0.667,-0.275c-38.738,38.816 -73.142,73.295 -101.946,102.162l0.208,-0.504c-0.145,44.879 -0.262,80.679 -0.345,105.333c-0.08,12.275 -0.142,21.759 -0.184,28.263c-0.041,3.175 -0.071,5.604 -0.091,7.321c-0.034,1.65 -0.096,2.512 -0.096,2.512c-0,0 -0.063,-0.808 -0.092,-2.433c-0.025,-1.7 -0.054,-4.109 -0.096,-7.254c-0.041,-6.48 -0.104,-15.938 -0.183,-28.179c-0.079,-24.705 -0.2,-60.584 -0.346,-105.563l0,-0.296l0.208,-0.208c28.717,-28.958 63.013,-63.542 101.63,-102.484l0.275,-0.279l0.391,0c43.942,-0.033 91.788,-0.07 142.5,-0.108l0.438,0l0.308,0.308c31.583,31.571 64.767,64.738 98.942,98.896l2.112,2.113l0,0.45c-0.008,49.495 -0.021,97.5 -0.033,142.4l-0,0.433l-0.308,0.308c-35.709,35.654 -69.471,69.359 -99.917,99.755l-0.275,0.274l-0.388,0c-54.27,-0.083 -102.779,-0.162 -142.841,-0.225l-0.288,0l-0.204,-0.195c-31.946,-30.546 -57.458,-54.938 -75.042,-71.754c-8.683,-8.359 -15.395,-14.817 -19.995,-19.25c-2.221,-2.163 -3.921,-3.817 -5.121,-4.988c-1.138,-1.125 -1.675,-1.721 -1.675,-1.721" style="fill:#1a2e35;fill-rule:nonzero;"/><path d="M1395.65,548.193c0,-1.513 11.234,-22.829 18.796,-23.433l6.959,-0c-0,-0 6.841,-9.142 15.825,-6.784c-0,0 6.237,-8.791 18.641,-2.133c0,-0 8.646,-1.683 12.725,2.567c5.184,5.404 24.504,22.383 26.017,30.25c1.512,7.866 -0,26.62 -4.538,27.833c-4.537,1.208 -5.979,0.354 -5.979,0.354c0,0 -1.433,9.046 -4.283,12.579c-5.388,6.679 -14.242,-0.833 -14.242,-0.833c0,-0 -3.421,4.817 -7.983,5.171c-8.238,0.637 -9.263,-13.342 -9.263,-13.342l-0.604,-19.662c0,-0 -1.6,9.375 -8.471,9.541c-4.7,0.117 -7.529,-5.562 -7.529,-5.562l-8.604,-16.304l-27.467,-0.242Z" style="fill:#ffc19d;fill-rule:nonzero;"/><path d="M1423.04,525.496c-0.4,0.692 9.083,4.9 15.991,15.021c7.1,9.992 7.754,20.346 8.542,20.213c0.3,-0.009 0.592,-2.596 -0.121,-6.717c-0.7,-4.104 -2.646,-9.688 -6.308,-14.967c-3.679,-5.262 -8.238,-9.029 -11.846,-11.108c-3.617,-2.1 -6.146,-2.721 -6.258,-2.442" style="fill:#ff9c6a;fill-rule:nonzero;"/><path d="M1451.93,525.266c-0.271,0.358 2.988,2.587 6.571,7.596c3.625,4.941 7.146,12.887 8.375,22.212c1.217,9.342 0.471,17.992 -0.013,24.221c-0.529,6.246 -0.825,10.142 -0.454,10.192c0.334,0.046 1.267,-3.738 2.263,-9.975c0.946,-6.217 2.021,-15.038 0.754,-24.784c-1.275,-9.758 -5.292,-18.079 -9.483,-22.975c-4.167,-4.983 -7.9,-6.72 -8.013,-6.487" style="fill:#ff9c6a;fill-rule:nonzero;"/><path d="M1479.07,539.669c-0.313,0.242 0.929,2.109 2.237,5.367c1.334,3.242 2.554,7.958 2.9,13.321c0.35,5.366 -0.016,10.304 -0.183,13.9c-0.188,3.6 -0.183,5.862 0.175,5.904c0.346,0.046 0.979,-2.117 1.633,-5.696c0.634,-3.575 1.309,-8.625 0.946,-14.283c-0.362,-5.663 -1.971,-10.696 -3.829,-13.934c-1.838,-3.27 -3.646,-4.783 -3.879,-4.579" style="fill:#ff9c6a;fill-rule:nonzero;"/><g opacity="0.3"><path d="M1289.73,824.393l268.2,-219.283l42.162,42.183l-266.779,218.142l-43.583,-41.042Z" style="fill:#fff;fill-rule:nonzero;"/></g><g><path d="M1310.33,764.994l-0,-68.017l30.253,0c4.133,0 7.681,1.488 10.645,4.464c2.964,2.976 4.446,6.518 4.446,10.627l-0,7.581c-0,4.133 -1.482,7.682 -4.446,10.646c-2.964,2.964 -6.512,4.446 -10.645,4.446l-15.162,-0l-0,30.253l-15.091,-0Zm15.091,-37.764l7.581,0c2.054,0 3.832,-0.749 5.331,-2.249c1.5,-1.5 2.25,-3.277 2.25,-5.332l-0,-7.581c-0,-2.054 -0.75,-3.82 -2.25,-5.296c-1.499,-1.476 -3.277,-2.214 -5.331,-2.214l-7.581,0l-0,22.672Z" style="fill:#fff;fill-rule:nonzero;"/><path d="M1378.02,764.994l0,-52.926c0,-4.133 1.482,-7.681 4.446,-10.645c2.964,-2.964 6.512,-4.446 10.645,-4.446l15.162,0c4.133,0 7.681,1.488 10.645,4.464c2.964,2.976 4.446,6.518 4.446,10.627l0,52.926l-15.091,-0l0,-30.253l-15.162,-0l0,30.253l-15.091,-0Zm15.091,-37.764l15.162,0l0,-15.162c0,-2.054 -0.75,-3.82 -2.249,-5.296c-1.5,-1.476 -3.277,-2.214 -5.332,-2.214c-2.078,0 -3.861,0.738 -5.349,2.214c-1.488,1.476 -2.232,3.242 -2.232,5.296l0,15.162Z" style="fill:#fff;fill-rule:nonzero;"/><path d="M1445.71,764.994l0,-68.017l30.254,0c4.132,0 7.681,1.488 10.645,4.464c2.964,2.976 4.446,6.518 4.446,10.627l-0,4.11c-0,3.377 -1.158,6.63 -3.472,9.759c-2.314,3.13 -6.188,4.694 -11.619,4.694l7.51,0c2.078,0 3.861,0.744 5.349,2.232c1.488,1.488 2.232,3.271 2.232,5.349l-0,26.782l-15.091,-0l-0,-22.673c-0,-2.078 -0.75,-3.861 -2.25,-5.349c-1.5,-1.488 -3.277,-2.231 -5.331,-2.231l-7.581,-0l-0,30.253l-15.092,-0Zm15.092,-37.764l7.581,0c2.054,0 3.831,-0.749 5.331,-2.249c1.5,-1.5 2.25,-3.277 2.25,-5.332l-0,-7.581c-0,-2.054 -0.75,-3.82 -2.25,-5.296c-1.5,-1.476 -3.277,-2.214 -5.331,-2.214l-7.581,0l-0,22.672Z" style="fill:#fff;fill-rule:nonzero;"/><path d="M1513.4,764.994l-0,-68.017l37.763,0l0,7.581l-22.672,0l-0,22.672l15.162,0l-0,7.511l-15.162,-0l-0,22.672l22.672,-0l0,7.581l-37.763,-0Z" style="fill:#fff;fill-rule:nonzero;"/><path d="M1581.09,742.321l0,-45.344l15.127,0l-0,45.344l-15.127,0Zm0,22.673l0,-15.092l15.127,0l-0,15.092l-15.127,-0Z" style="fill:#fff;fill-rule:nonzero;"/></g></g></svg>